{"glyphs":{"0":{"ha":778,"x_min":45,"x_max":735,"o":"m 353 -2 l 353 -2 q 408 11 408 4 l 408 11 q 448 23 434 23 l 448 23 q 470 21 458 23 l 470 21 q 473 27 471 22 l 473 27 q 499 49 487 49 l 499 49 l 503 49 q 520 41 515 41 l 520 41 l 520 41 q 541 58 522 44 l 541 58 q 595 113 564 77 l 595 113 q 616 152 616 136 l 616 152 q 612 165 614 163 l 612 165 l 612 165 l 648 179 q 670 229 659 210 l 670 229 q 687 258 682 246 l 687 258 q 709 311 701 292 l 709 311 q 728 396 718 326 l 728 396 q 735 525 735 496 l 735 525 l 735 533 q 730 551 734 546 l 730 551 l 730 580 q 722 642 730 613 l 722 642 q 709 667 721 654 l 709 667 q 681 757 707 669 l 681 757 q 633 828 664 787 l 633 828 q 607 846 632 833 l 607 846 q 603 865 606 849 l 603 865 q 595 873 603 869 l 595 873 q 555 912 576 884 l 555 912 q 538 925 548 925 l 538 925 l 528 932 q 511 924 526 925 l 511 924 q 472 954 494 954 l 472 954 q 474 958 475 957 l 474 958 q 458 951 473 960 l 458 951 q 456 952 458 951 l 456 952 q 413 972 430 972 l 413 972 l 410 977 q 377 964 397 972 l 377 964 q 358 966 376 964 l 358 966 q 277 949 321 966 l 277 949 q 229 920 247 938 l 229 920 q 194 883 211 911 l 194 883 l 179 872 l 200 880 l 210 873 q 165 846 202 869 l 165 846 q 138 801 138 833 l 138 801 l 139 792 q 119 768 134 768 l 119 768 q 110 771 114 768 l 110 771 l 109 770 q 102 739 109 754 l 102 739 q 89 722 90 729 l 89 722 q 59 627 68 671 l 59 627 q 54 575 58 595 l 54 575 q 45 443 45 469 l 45 443 l 45 437 q 58 377 45 392 l 58 377 q 71 326 64 368 l 71 326 q 75 292 74 292 l 75 292 q 84 296 83 296 l 84 296 l 87 288 q 97 253 95 253 l 97 253 q 111 239 111 242 l 111 239 l 110 239 q 113 207 111 212 l 113 207 q 144 130 113 180 l 144 130 q 160 99 157 99 l 160 99 q 185 87 160 94 l 185 87 q 220 49 208 75 l 220 49 q 250 14 245 20 l 250 14 q 289 16 279 16 l 289 16 l 294 16 q 333 10 316 16 l 333 10 q 353 -2 348 0 z m 487 232 l 479 235 q 468 227 473 235 l 468 227 q 451 196 458 206 l 451 196 q 405 168 447 193 l 405 168 l 399 168 q 354 173 393 168 l 354 173 q 313 193 351 173 l 313 193 q 296 212 304 209 l 296 212 q 271 245 295 212 l 271 245 q 245 290 254 269 l 245 290 q 247 307 246 298 l 247 307 q 235 344 247 328 l 235 344 q 231 363 232 344 l 231 363 q 220 463 225 443 l 220 463 q 224 465 223 463 l 224 465 q 232 495 231 469 l 232 495 l 232 528 q 222 547 232 547 l 222 547 q 227 564 227 563 l 227 564 q 231 600 228 581 l 231 600 q 243 650 238 612 l 243 650 q 254 676 246 676 l 254 676 q 277 726 263 702 l 277 726 q 336 774 313 774 l 336 774 l 337 774 q 353 765 347 774 l 353 765 q 385 780 378 774 l 385 780 q 391 785 386 785 l 391 785 l 395 785 q 418 772 406 785 l 418 772 l 441 772 l 460 746 l 473 746 q 502 713 487 735 l 502 713 q 513 688 507 699 l 513 688 q 522 675 519 675 l 522 675 q 537 658 538 671 l 537 658 q 559 557 559 585 l 559 557 q 557 482 558 505 l 557 482 q 551 429 557 450 l 551 429 l 551 401 q 555 387 551 395 l 555 387 q 541 380 555 386 l 541 380 q 533 325 537 344 l 533 325 q 507 277 525 294 l 507 277 q 501 252 506 277 l 501 252 q 487 243 488 245 l 487 243 l 487 232 z "},"1":{"ha":427,"x_min":41,"x_max":397,"o":"m 345 962 l 336 998 q 319 979 330 987 l 319 979 l 319 972 q 317 956 319 962 l 317 956 q 309 968 316 956 l 309 968 q 298 960 304 967 l 298 960 l 264 939 q 233 910 253 932 l 233 910 l 230 911 l 229 911 l 228 910 q 227 913 228 911 l 227 913 q 215 897 222 913 l 215 897 q 201 882 215 893 l 201 882 q 182 867 193 873 l 182 867 l 180 868 l 180 868 q 162 857 170 860 l 162 857 q 152 847 153 847 l 152 847 l 149 848 l 148 848 q 141 831 145 844 l 141 831 q 130 812 137 812 l 130 812 l 129 812 q 122 818 126 817 l 122 818 l 91 790 l 77 773 q 69 754 73 754 l 69 754 l 68 754 q 63 760 68 757 l 63 760 q 55 751 56 760 l 55 751 q 41 740 45 744 l 41 740 l 41 738 q 43 709 41 729 l 43 709 q 50 699 50 701 l 50 699 q 47 692 48 694 l 47 692 l 46 686 q 50 665 46 672 l 50 665 q 48 645 50 662 l 48 645 q 51 638 49 638 l 51 638 q 62 644 53 640 l 62 644 q 85 669 79 668 l 85 669 q 98 677 95 677 l 98 677 q 116 695 112 689 l 116 695 q 140 717 130 712 l 140 717 q 155 732 151 729 l 155 732 q 159 633 160 678 l 159 633 l 159 631 q 155 620 155 623 l 155 620 l 155 617 q 156 616 155 616 l 156 616 q 163 619 158 616 l 163 619 q 165 618 163 619 l 165 618 q 148 590 165 614 l 148 590 q 149 587 149 588 l 149 587 q 159 582 159 585 l 159 582 l 159 577 q 158 564 159 571 l 158 564 q 159 553 159 557 l 159 553 q 155 475 157 505 l 155 475 q 160 455 155 455 l 160 455 q 172 448 172 451 l 172 448 q 172 447 172 448 l 172 447 q 155 439 156 444 l 155 439 l 155 430 q 161 327 161 385 l 161 327 q 157 311 159 311 l 157 311 q 151 313 153 313 l 151 313 q 149 307 150 313 l 149 307 q 149 269 149 282 l 149 269 l 153 233 l 153 230 q 148 208 153 225 l 148 208 q 149 202 148 205 l 149 202 q 157 186 157 189 l 157 186 q 151 149 152 154 l 151 149 l 151 146 q 157 134 157 138 l 157 134 l 157 134 q 151 95 157 113 l 151 95 q 142 78 144 85 l 142 78 q 130 46 142 59 l 130 46 q 104 14 119 22 l 104 14 q 95 5 101 14 l 95 5 q 96 3 95 3 l 96 3 l 136 3 q 147 -3 144 -3 l 147 -3 q 201 -2 181 -2 l 201 -2 l 203 -2 q 222 1 219 1 l 222 1 l 224 1 l 226 1 q 231 8 226 8 l 231 8 l 236 8 l 254 11 q 267 8 267 11 l 267 8 q 320 -1 267 -1 l 320 -1 l 337 -1 q 395 -7 353 -1 l 395 -7 q 397 -6 395 -7 l 397 -6 q 372 16 390 5 l 372 16 q 353 43 355 32 l 353 43 l 353 45 q 354 69 353 56 l 354 69 l 353 73 q 342 80 342 76 l 342 80 q 345 94 343 87 l 345 94 l 349 96 q 347 124 349 117 l 347 124 l 345 123 q 344 130 345 123 l 344 130 q 346 164 344 146 l 346 164 q 345 197 346 169 l 345 197 q 347 285 347 268 l 347 285 l 347 290 q 342 319 342 303 l 342 319 q 349 330 342 328 l 349 330 q 348 332 349 330 l 348 332 q 349 351 349 344 l 349 351 l 349 356 q 348 361 349 359 l 348 361 q 344 372 343 369 l 344 372 l 344 412 q 340 418 340 416 l 340 418 q 341 437 340 425 l 341 437 q 340 444 340 442 l 340 444 l 341 444 q 343 441 343 442 l 343 441 q 345 443 345 441 l 345 443 l 345 445 q 351 465 345 460 l 351 465 l 351 473 l 349 475 l 345 474 q 344 476 345 475 l 344 476 q 349 524 347 524 l 349 524 q 356 532 356 527 l 356 532 q 355 534 356 534 l 355 534 l 348 534 q 344 535 345 534 l 344 535 q 341 544 340 537 l 341 544 q 342 570 342 563 l 342 570 q 342 618 342 587 l 342 618 q 344 630 343 629 l 344 630 l 346 630 q 349 635 349 630 l 349 635 q 349 673 348 660 l 349 673 l 352 692 l 352 696 l 350 703 l 351 709 q 349 722 349 717 l 349 722 q 350 739 349 729 l 350 739 q 355 770 355 766 l 355 770 q 353 779 353 777 l 353 779 l 354 814 q 353 827 352 824 l 353 827 l 353 859 q 352 865 353 862 l 352 865 q 347 882 347 873 l 347 882 l 347 899 q 347 901 347 901 l 347 901 q 344 919 345 919 l 344 919 l 345 962 z "},"2":{"ha":787,"x_min":16,"x_max":745,"o":"m 414 975 l 414 975 q 409 974 409 975 l 409 974 q 320 969 353 972 l 320 969 q 294 974 296 974 l 294 974 l 290 974 q 285 964 288 973 l 285 964 q 260 956 260 957 l 260 956 q 195 911 239 951 l 195 911 q 177 881 180 883 l 177 881 q 169 884 176 881 l 169 884 q 144 853 144 859 l 144 853 l 145 853 l 146 854 l 146 853 q 121 780 138 843 l 121 780 q 114 755 116 755 l 114 755 q 106 758 106 758 l 106 758 q 104 752 104 758 l 104 752 q 106 731 104 731 l 106 731 q 115 672 111 682 l 115 672 q 138 641 118 659 l 138 641 l 138 641 q 150 673 143 657 l 150 673 q 157 690 157 687 l 157 690 l 157 695 l 168 703 q 196 728 179 718 l 196 728 q 229 747 227 742 l 229 747 l 229 749 l 224 750 q 213 770 216 750 l 213 770 l 213 770 l 215 770 q 216 768 216 770 l 216 768 q 233 751 221 764 l 233 751 l 245 751 q 260 783 250 758 l 260 783 q 301 805 274 792 l 301 805 q 300 814 301 809 l 300 814 q 304 817 302 817 l 304 817 q 337 814 315 817 l 337 814 l 341 815 l 359 823 q 376 822 361 823 l 376 822 q 405 831 386 822 l 405 831 l 406 831 q 415 827 409 831 l 415 827 q 446 808 439 808 l 446 808 l 463 808 q 477 792 469 808 l 477 792 q 497 762 494 763 l 497 762 l 498 762 l 500 763 q 505 778 503 778 l 505 778 l 505 778 q 526 719 526 756 l 526 719 l 526 717 q 513 648 526 692 l 513 648 l 513 647 l 520 640 q 503 628 520 632 l 503 628 q 486 618 492 628 l 486 618 q 455 590 458 599 l 455 590 q 429 555 455 578 l 429 555 l 429 555 q 420 561 426 555 l 420 561 l 419 561 q 412 555 416 561 l 412 555 q 385 516 395 527 l 385 516 l 385 514 q 389 508 387 511 l 389 508 l 389 507 q 389 505 389 506 l 389 505 q 376 474 383 501 l 376 474 q 366 461 373 465 l 366 461 l 363 461 q 360 463 362 461 l 360 463 l 358 463 q 326 424 347 453 l 326 424 q 304 394 326 418 l 304 394 q 278 357 281 370 l 278 357 q 250 311 278 338 l 250 311 q 226 283 231 292 l 226 283 q 216 256 219 261 l 216 256 q 191 236 194 239 l 191 236 q 174 201 176 220 l 174 201 q 152 170 163 174 l 152 170 q 133 153 134 158 l 133 153 l 135 146 l 135 146 q 136 130 135 142 l 136 130 q 111 98 119 110 l 111 98 q 97 89 104 89 l 97 89 q 88 73 88 85 l 88 73 l 88 71 l 87 71 q 82 70 82 71 l 82 70 q 66 54 70 70 l 66 54 q 40 28 58 37 l 40 28 q 16 12 18 12 l 16 12 q 53 0 16 6 l 53 0 q 69 5 62 1 l 69 5 q 131 14 87 5 l 131 14 l 144 13 q 160 20 149 13 l 160 20 q 183 26 167 26 l 183 26 l 184 26 l 184 25 q 163 11 168 14 l 163 11 l 164 9 l 165 10 l 209 10 q 237 12 211 10 l 237 12 l 260 16 l 267 16 q 280 9 277 9 l 280 9 l 281 9 q 290 13 283 9 l 290 13 q 286 16 290 14 l 286 16 q 301 19 286 19 l 301 19 l 309 19 q 330 12 321 19 l 330 12 l 370 12 q 413 17 380 12 l 413 17 q 423 14 419 17 l 423 14 q 447 6 433 9 l 447 6 q 449 7 449 6 l 449 7 l 449 12 l 454 12 l 465 12 q 465 3 465 9 l 465 3 q 465 1 465 3 l 465 1 l 526 3 l 594 1 q 627 2 623 2 l 627 2 q 666 7 661 7 l 666 7 l 667 7 l 700 2 l 701 3 q 714 53 701 18 l 714 53 q 720 86 714 83 l 720 86 q 734 104 732 104 l 734 104 q 733 134 734 113 l 733 134 q 745 180 742 155 l 745 180 l 743 186 q 744 192 744 189 l 744 192 l 744 194 l 743 195 q 729 189 736 195 l 729 189 q 709 167 717 173 l 709 167 q 675 153 702 159 l 675 153 q 557 138 648 148 l 557 138 l 557 139 q 549 148 555 148 l 549 148 q 534 146 549 147 l 534 146 q 509 151 514 151 l 509 151 l 505 151 l 506 154 q 479 160 506 159 l 479 160 q 353 155 361 155 l 353 155 q 337 156 345 155 l 337 156 l 338 158 q 359 176 359 170 l 359 176 q 425 258 359 182 l 425 258 q 473 307 439 277 l 473 307 q 484 315 483 312 l 484 315 l 481 326 q 482 328 481 326 l 482 328 q 492 335 488 330 l 492 335 q 503 366 497 342 l 503 366 q 519 391 509 385 l 519 391 l 520 391 l 521 391 q 536 397 526 391 l 536 397 q 572 436 572 422 l 572 436 q 581 450 572 448 l 581 450 q 643 520 632 503 l 643 520 q 668 541 666 535 l 668 541 q 681 574 676 574 l 681 574 q 691 570 682 574 l 691 570 l 693 570 q 709 595 703 581 l 709 595 q 734 690 734 661 l 734 690 l 734 703 q 734 713 734 709 l 734 713 q 723 789 729 740 l 723 789 q 712 808 723 791 l 712 808 q 702 843 705 837 l 702 843 q 685 871 697 845 l 685 871 q 705 867 688 871 l 705 867 q 707 868 706 867 l 707 868 l 707 869 q 696 889 700 889 l 696 889 q 629 932 669 911 l 629 932 q 597 938 621 936 l 597 938 l 578 934 q 574 936 574 934 l 574 936 l 574 937 q 577 944 576 940 l 577 944 q 570 955 577 950 l 570 955 q 465 972 512 972 l 465 972 q 460 972 464 972 l 460 972 q 451 967 452 970 l 451 967 q 424 961 446 962 l 424 961 q 414 975 423 961 z "},"3":{"ha":729,"x_min":35,"x_max":692,"o":"m 270 972 l 269 972 q 250 955 265 972 l 250 955 l 250 951 q 228 947 241 949 l 228 947 q 222 951 226 947 l 222 951 q 157 925 176 935 l 157 925 q 131 911 136 911 l 131 911 l 127 913 l 125 913 l 119 909 q 104 892 109 895 l 104 892 q 104 887 104 891 l 104 887 q 100 881 104 884 l 100 881 l 96 881 l 92 882 q 82 877 82 879 l 82 877 q 75 874 82 876 l 75 874 q 59 864 64 874 l 59 864 q 35 850 52 855 l 35 850 l 35 849 q 44 839 42 839 l 44 839 q 64 817 50 839 l 64 817 l 64 812 q 73 805 68 805 l 73 805 q 80 794 75 805 l 80 794 q 98 736 92 736 l 98 736 l 98 736 q 100 739 100 736 l 100 739 q 117 764 117 758 l 117 764 q 128 778 117 773 l 128 778 q 136 791 134 789 l 136 791 q 157 800 157 797 l 157 800 q 204 819 157 802 l 204 819 q 215 825 204 824 l 215 825 q 235 834 233 834 l 235 834 q 242 832 241 832 l 242 832 l 243 832 q 256 838 254 838 l 256 838 q 264 837 259 838 l 264 837 q 286 846 267 837 l 286 846 q 326 838 294 846 l 326 838 q 359 824 351 833 l 359 824 q 373 815 373 817 l 373 815 q 377 817 377 817 l 377 817 q 370 823 373 823 l 370 823 q 373 825 370 825 l 373 825 q 381 820 376 823 l 381 820 q 420 790 398 817 l 420 790 q 442 777 427 783 l 442 777 q 467 720 467 744 l 467 720 l 467 718 q 456 662 456 671 l 456 662 l 456 659 q 458 657 458 657 l 458 657 l 462 659 l 460 650 q 441 601 458 635 l 441 601 q 433 591 441 591 l 433 591 l 433 591 l 433 589 l 428 583 q 410 572 427 581 l 410 572 q 404 574 408 572 l 404 574 q 397 565 401 574 l 397 565 q 367 553 377 560 l 367 553 q 366 556 366 553 l 366 556 q 347 554 354 556 l 347 554 q 330 556 336 556 l 330 556 l 326 556 q 324 554 324 555 l 324 554 q 315 558 321 554 l 315 558 l 313 558 q 304 553 311 558 l 304 553 q 297 557 298 557 l 297 557 q 288 555 292 557 l 288 555 q 290 549 288 555 l 290 549 q 286 529 289 536 l 286 529 l 286 528 q 290 506 290 517 l 290 506 q 290 504 290 505 l 290 504 l 292 504 q 308 513 304 509 l 308 513 l 310 513 q 336 519 321 513 l 336 519 l 348 515 q 351 519 349 515 l 351 519 q 366 513 352 519 l 366 513 l 370 513 l 376 513 q 394 505 389 505 l 394 505 q 411 495 411 497 l 411 495 l 411 494 l 406 494 q 404 493 404 494 l 404 493 l 404 492 q 420 479 418 481 l 420 479 q 424 465 421 469 l 424 465 l 433 446 l 435 446 q 436 447 436 446 l 436 447 l 436 448 q 435 456 436 453 l 435 456 l 436 456 l 437 456 q 449 433 437 448 l 449 433 q 468 359 457 423 l 468 359 q 476 342 468 345 l 476 342 l 476 338 q 469 289 469 296 l 469 289 q 465 276 465 278 l 465 276 l 465 276 q 459 281 465 281 l 459 281 l 458 281 q 454 258 454 264 l 454 258 q 456 256 454 256 l 456 256 l 453 241 q 431 203 447 214 l 431 203 l 431 201 q 433 199 431 199 l 433 199 l 433 198 q 421 195 422 195 l 421 195 q 408 197 420 196 l 408 197 q 391 172 391 197 l 391 172 q 367 151 391 161 l 367 151 q 323 129 326 136 l 323 129 q 319 130 321 129 l 319 130 q 311 127 313 130 l 311 127 q 300 115 301 115 l 300 115 q 297 119 298 116 l 297 119 l 300 124 q 296 125 297 125 l 296 125 l 295 125 q 267 121 269 121 l 267 121 q 258 125 264 121 l 258 125 q 252 125 256 125 l 252 125 q 201 132 227 125 l 201 132 q 191 146 193 144 l 191 146 l 184 146 q 153 164 161 146 l 153 164 q 154 165 154 164 l 154 165 q 136 171 143 171 l 136 171 q 126 184 130 171 l 126 184 q 115 193 126 191 l 115 193 q 111 215 111 193 l 111 215 q 109 217 109 217 l 109 217 q 96 201 102 217 l 96 201 l 90 201 q 69 153 86 195 l 69 153 q 56 138 62 153 l 56 138 q 50 140 55 138 l 50 140 q 47 135 49 140 l 47 135 q 36 130 36 133 l 36 130 q 50 111 36 121 l 50 111 q 64 96 60 96 l 64 96 q 81 83 75 96 l 81 83 q 93 74 81 77 l 93 74 q 111 60 106 62 l 111 60 q 125 52 124 52 l 125 52 q 138 67 127 53 l 138 67 q 140 65 140 66 l 140 65 l 140 60 q 138 56 140 58 l 138 56 q 140 45 138 54 l 140 45 q 172 35 165 35 l 172 35 q 206 28 199 32 l 206 28 q 247 21 239 23 l 247 21 q 291 5 283 5 l 291 5 q 301 5 292 5 l 301 5 q 372 0 360 0 l 372 0 l 372 0 q 378 1 376 0 l 378 1 q 400 7 388 7 l 400 7 l 425 7 q 446 21 432 7 l 446 21 l 463 21 q 494 29 479 21 l 494 29 l 519 47 q 554 74 538 55 l 554 74 q 581 96 568 81 l 581 96 q 597 109 597 108 l 597 109 q 597 117 597 112 l 597 117 q 598 120 598 119 l 598 120 q 622 142 621 140 l 622 142 l 642 172 q 674 268 658 199 l 674 268 q 686 315 686 300 l 686 315 l 686 317 q 692 332 692 326 l 692 332 l 692 333 l 688 372 q 679 365 680 372 l 679 365 l 677 365 q 672 372 677 366 l 672 372 q 684 400 672 380 l 684 400 l 684 402 q 663 410 676 410 l 663 410 l 663 411 q 650 445 663 427 l 650 445 q 638 468 642 458 l 638 468 q 633 472 633 469 l 633 472 q 625 477 625 477 l 625 477 q 615 475 617 475 l 615 475 q 612 479 614 475 l 612 479 q 613 486 612 479 l 613 486 l 612 488 q 601 497 606 488 l 601 497 l 597 497 q 591 498 594 497 l 591 498 q 576 511 576 501 l 576 511 q 581 520 580 511 l 581 520 q 576 523 576 522 l 576 523 q 568 522 570 522 l 568 522 q 562 531 568 524 l 562 531 l 555 530 l 555 530 q 555 531 555 531 l 555 531 l 555 532 q 549 531 553 532 l 549 531 q 549 532 549 532 l 549 532 l 548 532 q 545 527 545 529 l 545 527 q 543 528 544 527 l 543 528 l 538 528 l 538 528 q 536 532 537 528 l 536 532 l 530 531 l 530 531 l 530 532 q 562 551 541 544 l 562 551 q 607 594 574 551 l 607 594 q 626 621 626 609 l 626 621 q 640 650 638 640 l 640 650 q 646 659 646 655 l 646 659 l 646 661 q 644 672 646 662 l 644 672 q 651 686 644 677 l 651 686 q 663 744 656 686 l 663 744 l 661 746 l 661 748 q 657 790 661 764 l 657 790 l 657 800 q 650 831 657 812 l 650 831 q 650 842 650 835 l 650 842 q 637 863 650 844 l 637 863 l 635 863 q 629 859 629 862 l 629 859 q 618 866 623 859 l 618 866 l 618 869 q 619 882 618 873 l 619 882 l 619 886 q 609 893 619 892 l 609 893 q 594 897 594 895 l 594 897 q 492 964 553 964 l 492 964 l 484 964 q 478 967 478 965 l 478 967 q 463 962 465 965 l 463 962 q 451 950 459 950 l 451 950 l 446 954 q 448 960 448 959 l 448 960 l 448 961 l 446 963 q 432 958 445 963 l 432 958 l 429 963 q 421 960 422 960 l 421 960 q 420 962 421 962 l 420 962 l 414 966 q 406 963 411 966 l 406 963 q 405 964 405 963 l 405 964 q 378 962 388 964 l 378 962 q 376 964 378 964 l 376 964 l 378 966 q 376 968 377 968 l 376 968 q 371 966 374 968 l 371 966 l 370 966 l 366 970 l 361 966 l 359 966 q 358 970 359 968 l 358 970 q 348 965 356 970 l 348 965 q 315 967 335 966 l 315 967 q 307 963 315 966 l 307 963 q 301 966 304 966 l 301 966 q 297 965 299 966 l 297 965 q 298 960 298 960 l 298 960 q 292 958 297 960 l 292 958 l 292 959 l 294 961 l 294 962 q 290 966 291 966 l 290 966 q 288 962 288 966 l 288 962 l 286 962 q 270 972 279 964 l 270 972 z "},"4":{"ha":836,"x_min":16,"x_max":813,"o":"m 217 981 l 217 981 q 195 975 197 975 l 195 975 q 184 964 186 964 l 184 964 q 174 971 182 964 l 174 971 q 144 979 174 976 l 144 979 q 130 976 133 976 l 130 976 l 121 976 q 111 978 119 976 l 111 978 q 99 974 110 978 l 99 974 q 97 975 97 974 l 97 975 q 64 979 92 979 l 64 979 q 87 941 64 974 l 87 941 q 96 878 96 885 l 96 878 l 96 878 q 87 869 87 870 l 87 869 l 96 840 q 91 815 96 831 l 91 815 q 93 751 91 795 l 93 751 q 92 711 93 739 l 92 711 q 84 685 84 689 l 84 685 q 85 683 84 684 l 85 683 q 94 684 87 683 l 94 684 q 96 683 96 684 l 96 683 l 96 680 q 84 654 84 663 l 84 654 q 88 633 85 646 l 88 633 q 83 568 88 611 l 83 568 l 79 552 l 79 549 q 81 539 79 549 l 81 539 l 81 538 q 77 524 79 524 l 77 524 q 73 460 79 483 l 73 460 q 16 366 27 393 l 16 366 l 16 364 l 17 364 q 47 383 28 376 l 47 383 l 52 376 l 54 376 q 73 389 69 389 l 73 389 l 79 389 q 94 387 93 387 l 94 387 l 96 387 q 102 388 98 387 l 102 388 q 98 406 94 401 l 98 406 q 102 408 99 408 l 102 408 q 149 421 128 418 l 149 421 q 187 425 179 425 l 187 425 q 198 423 192 425 l 198 423 q 212 424 208 424 l 212 424 q 229 420 218 424 l 229 420 l 233 423 q 268 420 263 420 l 268 420 q 269 422 269 420 l 269 422 q 294 420 279 420 l 294 420 l 296 420 l 345 425 l 347 425 q 357 418 354 425 l 357 418 l 360 418 l 429 425 q 460 422 434 425 l 460 422 q 468 426 462 424 l 468 426 l 498 420 q 513 423 507 420 l 513 423 q 510 410 513 414 l 510 410 q 511 402 511 406 l 511 402 l 511 399 l 511 399 l 513 400 q 519 384 513 398 l 519 384 q 518 382 519 382 l 518 382 l 517 382 l 514 382 l 514 382 q 521 338 521 372 l 521 338 l 520 328 q 509 307 509 309 l 509 307 q 509 305 509 307 l 509 305 q 517 309 511 305 l 517 309 l 518 309 l 518 286 q 509 272 518 272 l 509 272 q 503 184 505 272 l 503 184 q 496 123 496 136 l 496 123 q 479 45 496 63 l 479 45 q 446 5 457 22 l 446 5 q 494 0 446 3 l 494 0 q 547 5 547 2 l 547 5 q 545 13 547 6 l 545 13 l 545 14 l 555 13 q 572 15 572 15 l 572 15 l 574 14 l 572 7 l 572 5 q 573 3 572 3 l 573 3 l 577 3 q 648 10 583 3 l 648 10 q 662 7 654 10 l 662 7 q 722 2 665 5 l 722 2 q 789 3 754 2 l 789 3 l 789 5 q 761 34 788 7 l 761 34 q 734 50 738 45 l 734 50 l 734 51 q 737 58 734 53 l 737 58 q 725 92 726 83 l 725 92 q 732 258 725 100 l 732 258 l 730 260 l 729 260 l 724 256 q 722 260 722 256 l 722 260 q 730 415 722 304 l 730 415 l 730 416 q 746 406 739 414 l 746 406 q 770 391 746 400 l 770 391 q 771 391 770 391 l 771 391 q 768 443 764 416 q 773 473 773 470 l 773 473 l 763 485 q 770 494 763 488 l 770 494 q 779 488 775 494 l 779 488 q 778 495 778 494 l 778 495 l 778 509 q 780 518 778 510 l 780 518 q 776 528 776 528 l 776 528 l 778 531 q 783 558 781 531 l 783 558 l 783 559 q 777 557 781 559 l 777 557 q 739 540 743 540 l 739 540 l 730 540 q 732 578 732 559 l 732 578 q 730 671 730 667 l 730 671 q 734 721 730 692 l 734 721 q 743 727 743 724 l 743 727 q 747 820 747 813 l 747 820 l 746 824 q 751 867 747 867 l 751 867 q 760 873 760 868 l 760 873 l 760 891 q 762 907 760 901 l 762 907 q 772 916 772 913 l 772 916 q 770 920 770 919 l 770 920 q 771 923 770 921 l 771 923 q 806 958 784 941 l 806 958 q 813 971 813 960 l 813 971 l 812 972 q 770 973 775 973 l 770 973 q 752 972 760 973 l 752 972 l 752 971 q 755 964 752 969 l 755 964 q 750 962 755 962 l 750 962 l 725 962 q 713 970 713 962 l 713 970 q 655 975 713 973 l 655 975 q 623 967 623 972 l 623 967 l 623 966 l 624 963 q 623 962 623 963 l 623 962 q 590 962 613 962 l 590 962 l 587 962 l 587 963 l 589 970 q 588 972 589 971 l 588 972 l 528 970 l 490 972 l 490 971 l 490 970 q 509 942 490 965 l 509 942 q 526 903 522 926 l 526 903 q 523 852 523 873 l 523 852 l 523 846 q 525 842 523 843 l 525 842 l 526 842 l 532 847 l 532 847 l 533 844 l 533 836 q 530 796 533 828 l 530 796 l 532 792 q 541 760 541 783 l 541 760 l 536 709 l 536 707 q 536 705 536 705 l 536 705 l 530 705 q 520 680 526 705 l 520 680 q 524 616 520 672 l 524 616 q 521 602 524 613 l 521 602 q 523 577 521 597 l 523 577 q 520 537 521 543 l 520 537 l 515 538 l 490 538 q 467 540 488 538 l 467 540 q 421 537 454 540 l 421 537 q 417 540 417 538 l 417 540 l 418 545 q 405 550 418 547 l 405 550 q 391 543 391 547 l 391 543 q 346 533 391 536 l 346 533 l 338 534 q 323 540 324 540 l 323 540 l 316 540 q 281 537 296 537 l 281 537 l 275 537 q 277 570 275 545 l 277 570 q 269 576 269 574 l 269 576 q 276 600 269 581 l 276 600 q 284 771 279 600 l 284 771 q 290 809 290 805 l 290 809 l 290 812 q 287 825 290 814 l 287 825 q 288 854 288 834 l 288 854 q 283 902 283 897 l 283 902 l 283 905 q 291 918 291 916 l 291 918 q 287 924 291 919 l 287 924 l 287 924 q 300 951 294 945 l 300 951 q 317 978 311 957 l 317 978 l 317 979 q 260 970 288 970 l 260 970 l 256 970 q 253 970 254 970 l 253 970 q 248 976 250 976 l 248 976 q 216 975 237 976 l 216 975 q 214 977 214 975 l 214 977 l 217 981 z "},"5":{"ha":732,"x_min":35,"x_max":709,"o":"m 709 1006 l 707 1007 q 701 1004 705 1007 l 701 1004 q 668 984 673 984 l 668 984 l 661 984 q 622 970 629 970 l 622 970 q 598 975 602 975 l 598 975 l 589 972 q 579 965 584 965 l 579 965 l 560 969 q 543 975 547 969 l 543 975 l 538 975 q 528 967 534 967 l 528 967 l 527 967 q 519 971 525 967 l 519 971 q 491 965 493 965 l 491 965 q 487 969 487 968 l 487 969 q 421 970 475 969 l 421 970 q 416 970 417 970 l 416 970 q 403 971 411 971 l 403 971 l 387 967 l 385 967 q 363 975 367 975 l 363 975 l 360 975 q 347 970 359 975 l 347 970 l 342 970 l 320 972 l 306 972 q 296 970 296 970 l 296 970 l 295 970 q 262 979 277 977 l 262 979 q 235 968 247 968 l 235 968 l 233 968 q 219 975 221 975 l 219 975 l 218 975 q 201 970 214 975 l 201 970 q 189 971 194 971 l 189 971 l 178 970 q 159 975 176 970 l 159 975 q 143 974 149 975 l 143 974 l 126 975 q 98 970 98 971 l 98 970 l 98 964 q 111 959 98 962 l 111 959 l 111 932 q 114 899 111 913 l 114 899 q 113 884 114 896 l 113 884 q 115 863 115 869 l 115 863 l 115 849 q 107 830 107 833 l 107 830 l 107 829 q 111 775 109 817 l 111 775 q 102 756 103 762 l 102 756 q 108 709 108 713 l 108 709 l 108 708 l 103 683 l 109 666 l 104 653 l 104 651 q 110 631 110 633 l 110 631 l 110 629 q 101 610 101 617 l 101 610 l 104 591 q 92 527 104 576 l 92 527 q 81 489 87 498 l 81 489 q 57 456 57 467 l 57 456 l 57 455 q 108 477 66 455 l 108 477 q 148 496 143 490 l 148 496 l 159 496 q 174 511 163 498 l 174 511 l 174 507 q 176 496 174 499 l 176 496 q 191 510 182 496 l 191 510 q 199 507 197 507 l 199 507 l 200 507 q 205 509 203 507 l 205 509 q 221 517 214 517 l 221 517 l 224 517 l 228 520 q 231 517 229 520 l 231 517 q 250 505 231 511 l 250 505 q 258 507 254 505 l 258 507 q 282 518 275 518 l 282 518 q 302 512 294 518 l 302 512 l 303 512 q 322 517 319 517 l 322 517 q 345 511 328 517 l 345 511 q 390 496 378 496 l 390 496 q 399 498 396 496 l 399 498 l 399 498 q 398 497 399 497 l 398 497 q 400 490 398 490 l 400 490 q 413 492 404 490 l 413 492 q 431 477 422 492 l 431 477 q 460 450 451 453 l 460 450 l 461 450 l 463 450 q 455 466 463 457 l 455 466 l 452 466 q 451 477 451 472 l 451 477 l 451 477 q 476 450 452 474 l 476 450 q 483 426 479 444 l 483 426 q 502 404 493 404 l 502 404 q 505 397 505 404 q 510 390 505 390 l 510 390 l 510 376 q 514 369 510 370 l 514 369 q 517 351 517 369 l 517 351 l 517 350 l 517 347 q 507 336 507 338 l 507 336 q 509 331 507 331 l 509 331 q 504 320 509 323 l 504 320 l 504 309 q 508 290 504 307 l 508 290 q 507 285 508 285 l 507 285 q 496 258 507 271 l 496 258 q 494 236 495 239 l 494 236 q 463 199 466 205 l 463 199 q 451 186 451 192 l 451 186 q 437 174 451 184 l 437 174 l 437 173 q 448 158 448 159 l 448 158 q 410 134 437 157 l 410 134 q 393 125 393 131 l 393 125 q 376 114 379 118 l 376 114 q 355 110 367 111 l 355 110 q 349 111 349 111 l 349 111 q 341 117 344 111 l 341 117 q 337 115 339 117 l 337 115 q 344 106 337 113 l 344 106 q 342 104 343 106 l 342 104 q 319 104 324 104 l 319 104 q 317 105 317 104 l 317 105 q 306 112 310 112 l 306 112 q 298 110 299 112 l 298 110 q 262 103 281 110 l 262 103 l 260 103 q 250 109 252 109 l 250 109 q 247 105 247 109 l 247 105 l 233 105 q 218 112 222 105 l 218 112 l 216 112 q 191 106 199 106 l 191 106 l 189 106 q 144 131 168 106 l 144 131 q 102 199 111 172 l 102 199 q 96 218 102 215 l 96 218 q 92 236 92 222 l 92 236 l 92 241 q 111 307 92 286 l 111 307 q 156 352 146 349 l 156 352 q 160 357 158 357 l 160 357 q 168 387 165 380 l 168 387 q 165 389 166 389 l 165 389 q 152 380 153 381 l 152 380 q 127 368 144 372 l 127 368 l 126 368 q 115 369 125 368 l 115 369 l 114 368 q 102 353 106 353 l 102 353 q 75 323 102 349 l 75 323 l 73 323 q 71 331 73 331 l 71 331 l 71 331 q 66 326 70 331 l 66 326 q 35 214 35 274 l 35 214 l 35 200 q 37 192 35 195 l 37 192 q 49 176 49 179 l 49 176 q 43 153 49 174 l 43 153 q 45 142 43 149 l 45 142 q 60 111 56 113 l 60 111 q 83 104 83 107 l 83 104 l 83 102 q 73 89 73 90 l 73 89 q 75 83 75 84 l 75 83 l 75 82 l 73 76 q 77 69 73 73 l 77 69 q 133 41 112 54 l 133 41 l 142 42 q 173 24 149 41 l 173 24 q 229 7 216 7 l 229 7 l 234 7 q 249 9 237 7 l 249 9 l 252 8 q 267 1 261 1 l 267 1 l 290 4 l 291 4 l 295 0 l 297 0 q 301 5 301 3 l 301 5 l 304 5 l 307 5 q 315 1 312 3 l 315 1 l 315 1 q 340 6 338 6 l 340 6 l 357 1 q 368 4 361 1 l 368 4 q 417 18 399 18 l 417 18 q 424 12 423 12 l 424 12 l 452 12 q 500 27 475 22 l 500 27 q 519 35 507 35 l 519 35 q 538 52 523 35 l 538 52 q 575 84 549 64 l 575 84 l 575 83 q 562 61 566 71 l 562 61 l 562 60 l 562 58 q 568 61 564 58 l 568 61 q 587 83 581 77 l 587 83 q 625 111 600 93 l 625 111 q 639 144 624 138 l 639 144 q 658 174 651 151 l 658 174 q 678 227 678 219 l 678 227 q 682 244 678 242 l 682 244 q 691 274 689 244 l 691 274 q 690 286 690 279 l 690 286 q 695 294 694 291 l 695 294 q 692 307 695 296 l 692 307 q 693 320 693 318 l 693 320 q 690 326 693 323 l 690 326 q 692 347 690 336 l 692 347 q 689 352 692 349 l 689 352 q 690 353 689 353 l 690 353 l 689 360 l 689 362 q 692 363 691 362 l 692 363 q 692 380 692 365 l 692 380 q 690 391 692 391 l 690 391 l 688 391 l 685 389 l 685 391 q 688 393 685 392 l 688 393 q 686 406 688 396 l 686 406 q 673 435 673 429 l 673 435 q 674 455 674 452 l 674 455 q 649 495 674 473 l 649 495 q 635 518 638 515 l 635 518 q 612 541 613 541 l 612 541 l 612 541 q 614 550 612 545 l 614 550 l 613 554 l 597 572 q 567 585 570 571 l 567 585 l 566 585 q 559 587 562 585 l 559 587 q 548 596 552 596 l 548 596 q 543 607 545 596 l 543 607 l 544 614 q 539 620 543 616 l 539 620 q 500 633 518 626 l 500 633 q 474 643 481 643 l 474 643 q 461 649 464 643 l 461 649 q 436 648 457 649 l 436 648 l 434 648 q 401 658 427 658 l 401 658 l 397 658 q 393 656 395 658 l 393 656 q 371 648 379 648 l 371 648 q 357 654 368 654 l 357 654 l 349 654 q 342 659 345 659 l 342 659 q 331 656 331 658 l 331 656 q 310 653 312 654 l 310 653 q 309 654 310 654 l 309 654 q 301 698 301 681 l 301 698 q 304 722 301 699 l 304 722 q 297 726 304 725 l 297 726 q 287 768 290 756 l 287 768 q 288 775 287 772 l 288 775 q 296 782 288 777 l 296 782 l 296 783 q 297 804 296 789 l 297 804 l 298 804 q 315 806 300 804 l 315 806 q 330 805 321 806 l 330 805 q 339 814 334 805 l 339 814 q 354 808 347 808 l 354 808 l 358 808 q 386 812 365 808 l 386 812 l 387 812 q 401 807 399 807 q 422 812 403 807 l 422 812 l 424 812 q 442 808 439 808 l 442 808 l 446 808 q 473 808 456 808 l 473 808 q 481 812 475 812 l 481 812 q 504 802 489 812 l 504 802 l 505 802 q 519 810 517 810 l 519 810 l 522 810 q 544 811 530 810 l 544 811 q 556 816 554 811 l 556 816 l 556 812 q 576 806 556 809 l 576 806 q 608 810 598 810 l 608 810 l 608 810 q 615 799 613 810 l 615 799 l 616 799 q 634 825 626 817 l 634 825 q 645 846 645 830 l 645 846 q 668 916 668 909 l 668 916 l 668 930 l 669 931 q 672 928 669 931 l 672 928 l 673 928 q 683 949 675 930 l 683 949 q 699 968 699 964 l 699 968 q 693 970 699 969 l 693 970 q 709 1006 709 1002 l 709 1006 z "},"6":{"ha":826,"x_min":29,"x_max":796,"o":"m 416 972 l 413 972 q 334 951 389 972 l 334 951 q 310 931 314 931 l 310 931 q 297 935 309 931 l 297 935 q 227 890 277 930 l 227 890 q 212 885 216 888 l 212 885 q 162 825 202 874 l 162 825 q 141 796 141 805 l 141 796 l 141 784 q 122 768 141 773 l 122 768 q 104 741 115 768 l 104 741 q 86 699 92 705 l 86 699 q 73 683 75 690 l 73 683 q 67 630 71 644 l 67 630 q 50 564 54 587 l 50 564 q 40 546 40 555 l 40 546 l 40 545 q 41 507 40 528 l 41 507 q 33 416 36 463 l 33 416 q 35 414 33 414 l 35 414 l 39 414 l 43 414 l 43 411 q 43 408 43 410 l 43 408 q 30 382 30 385 l 30 382 q 29 370 30 375 l 29 370 q 35 336 29 351 l 35 336 q 44 338 37 336 l 44 338 q 47 335 46 338 l 47 335 l 45 331 q 33 315 33 327 l 33 315 q 39 277 33 303 l 39 277 q 43 262 43 264 l 43 262 q 54 243 54 248 l 54 243 l 54 241 q 52 231 54 239 l 52 231 q 56 216 56 221 l 56 216 l 56 208 q 64 195 56 202 l 64 195 q 94 172 87 178 l 94 172 q 109 149 104 150 l 109 149 q 111 151 111 149 l 111 151 l 111 153 l 110 155 l 111 155 q 127 140 119 150 l 127 140 q 115 138 117 139 l 115 138 q 110 125 114 138 l 110 125 q 137 106 110 119 l 137 106 q 149 113 146 113 l 149 113 l 150 113 q 157 104 150 110 l 157 104 q 165 81 159 81 l 165 81 q 174 83 167 81 l 174 83 q 199 66 180 83 l 199 66 q 211 51 199 58 l 211 51 q 250 34 243 40 l 250 34 q 271 25 250 31 l 271 25 q 316 20 316 22 l 316 20 q 325 11 316 14 l 325 11 q 391 0 376 0 l 391 0 l 396 0 q 403 1 399 0 l 403 1 q 408 0 405 0 l 408 0 l 410 0 q 438 2 425 0 l 438 2 l 443 1 q 454 3 454 3 l 454 3 q 534 15 496 8 l 534 15 q 548 33 544 15 l 548 33 q 589 48 570 41 l 589 48 q 600 47 597 47 l 600 47 q 604 50 604 48 l 604 50 l 604 52 q 600 62 604 52 l 600 62 l 600 63 l 601 64 q 634 85 612 75 l 634 85 q 652 99 648 97 l 652 99 q 664 112 664 107 l 664 112 q 661 117 664 113 l 661 117 q 669 132 661 121 l 669 132 q 686 127 683 127 l 686 127 q 697 132 691 127 l 697 132 q 733 187 711 155 l 733 187 q 753 221 743 199 l 753 221 q 762 233 762 228 l 762 233 q 772 267 762 252 l 772 267 q 782 302 776 286 l 782 302 q 793 370 793 343 l 793 370 q 789 383 793 379 l 789 383 l 789 389 l 790 396 q 796 411 796 399 l 796 411 q 789 439 795 425 l 789 439 q 775 479 775 463 l 775 479 q 759 501 775 486 l 759 501 q 735 553 750 526 l 735 553 q 724 562 735 555 l 724 562 q 709 583 715 583 l 709 583 q 702 581 707 583 l 702 581 q 701 582 702 582 l 701 582 q 683 595 686 595 l 683 595 l 682 595 q 673 593 680 595 l 673 593 q 661 613 668 593 l 661 613 q 637 628 661 622 l 637 628 q 539 659 565 659 l 539 659 q 519 659 532 659 l 519 659 q 489 661 501 661 l 489 661 q 457 652 476 661 l 457 652 q 418 646 446 649 l 418 646 q 406 639 406 646 l 406 639 q 399 633 406 633 l 399 633 l 397 633 q 388 636 390 636 l 388 636 l 387 636 q 370 628 384 636 l 370 628 l 337 611 l 338 611 l 338 610 q 314 600 317 604 l 314 600 q 296 571 296 581 l 296 571 l 296 570 l 296 569 q 277 551 277 559 l 277 551 q 280 549 277 551 l 280 549 l 281 549 q 270 532 281 545 l 270 532 q 262 534 268 532 l 262 534 q 258 530 260 534 l 258 530 q 254 505 256 511 l 254 505 q 247 482 247 484 l 247 482 q 250 474 247 477 l 250 474 q 243 460 243 467 l 243 460 l 243 459 q 247 432 243 449 l 247 432 q 254 429 254 430 l 254 429 l 254 426 q 251 418 254 425 l 251 418 l 251 416 q 268 385 251 410 l 268 385 q 292 362 277 370 l 292 362 q 355 348 336 348 l 355 348 l 361 348 q 368 353 368 348 l 368 353 l 368 353 q 342 375 347 373 l 342 375 q 336 382 340 382 l 336 382 q 327 399 336 391 l 327 399 q 323 435 327 405 l 323 435 q 332 455 323 439 l 332 455 q 344 472 340 461 l 344 472 q 374 496 367 496 l 374 496 l 376 496 q 380 497 376 496 l 380 497 q 406 510 402 510 l 406 510 q 444 524 427 524 l 444 524 q 468 523 463 523 l 468 523 q 479 524 471 523 l 479 524 q 483 523 480 523 l 483 523 q 486 539 484 523 l 486 539 l 490 538 l 500 538 q 509 540 506 538 l 509 540 l 510 540 q 501 522 510 536 l 501 522 l 501 522 q 533 511 528 513 l 533 511 q 545 496 541 511 l 545 496 q 557 492 547 495 l 557 492 q 581 482 568 482 l 581 482 q 580 475 580 476 l 580 475 q 582 471 580 473 l 582 471 q 591 465 589 468 l 591 465 q 601 443 597 447 l 601 443 q 618 423 618 429 l 618 423 q 618 401 618 420 l 618 401 q 633 378 618 391 l 633 378 q 638 366 637 366 l 638 366 q 635 361 638 364 l 635 361 q 623 356 625 359 l 623 356 q 627 351 623 351 l 627 351 q 620 336 620 337 l 620 336 l 620 335 q 624 326 620 334 l 624 326 q 623 322 624 325 l 623 322 q 614 296 614 305 l 614 296 q 598 250 604 258 l 598 250 l 597 250 q 595 257 596 256 l 595 257 q 587 255 593 255 l 587 255 q 574 237 582 239 l 574 237 q 555 216 557 216 l 555 216 q 539 211 539 215 l 539 211 q 533 205 533 209 l 533 205 q 524 201 524 203 l 524 201 q 492 189 506 196 l 492 189 q 415 174 431 174 l 415 174 q 411 174 412 174 l 411 174 l 411 175 q 427 183 413 178 l 427 183 l 427 184 q 379 177 379 180 l 379 177 q 350 183 358 183 l 350 183 l 347 182 q 343 183 347 183 l 343 183 q 334 191 342 191 l 334 191 q 321 198 323 198 l 321 198 q 307 197 309 197 l 307 197 q 295 204 301 198 l 295 204 q 272 218 286 207 l 272 218 q 242 271 258 232 l 242 271 q 224 296 233 292 l 224 296 q 212 306 212 298 l 212 306 l 212 307 q 218 311 218 310 l 218 311 q 210 345 218 314 l 210 345 q 212 368 210 355 l 212 368 q 210 380 210 374 l 210 380 l 210 383 q 203 397 210 385 l 203 397 q 204 406 204 404 l 204 406 l 204 424 q 210 481 204 436 l 210 481 q 204 543 207 521 l 204 543 q 217 579 204 559 l 217 579 q 231 628 220 596 l 231 628 q 244 650 231 641 l 244 650 q 259 686 248 655 l 259 686 q 281 731 281 723 l 281 731 q 274 743 281 735 l 274 743 l 274 745 q 278 748 275 747 l 278 748 q 288 742 285 742 l 288 742 l 288 742 q 294 751 290 743 l 294 751 q 307 784 302 778 l 307 784 q 348 823 307 786 l 348 823 q 362 852 359 852 l 362 852 q 373 846 371 846 l 373 846 l 374 846 q 380 854 380 854 l 380 854 q 378 858 380 855 l 378 858 l 378 859 q 383 863 378 861 l 383 863 q 441 886 422 873 l 441 886 q 457 892 454 889 l 457 892 l 474 899 q 492 917 490 917 l 492 917 q 504 909 495 917 l 504 909 l 505 909 q 597 926 568 926 l 597 926 l 601 926 q 604 926 602 926 l 604 926 l 605 926 q 637 922 611 926 l 637 922 q 688 909 678 914 l 688 909 q 690 910 690 909 l 690 910 q 653 946 656 946 l 653 946 l 627 939 q 625 940 627 939 l 625 940 l 629 953 l 629 954 l 610 951 l 610 951 q 608 952 609 951 l 608 952 l 608 955 l 609 958 l 608 959 l 602 959 q 600 958 601 959 l 600 958 q 580 960 597 958 l 580 960 q 576 960 579 960 l 576 960 l 576 960 q 548 964 572 960 l 548 964 q 512 960 544 964 l 512 960 q 510 960 511 960 l 510 960 q 511 968 510 962 l 511 968 q 510 970 511 970 l 510 970 l 496 970 l 432 964 l 431 964 q 416 972 421 972 l 416 972 z "},"7":{"ha":694,"x_min":29,"x_max":771,"o":"m 529 981 l 529 981 q 521 978 527 981 l 521 978 q 499 970 510 970 l 499 970 l 484 970 q 480 968 480 970 l 480 968 q 460 962 463 966 l 460 962 q 454 964 456 962 l 454 964 l 452 963 q 445 970 450 963 l 445 970 q 431 969 433 969 l 431 969 q 406 970 420 969 l 406 970 q 383 969 397 969 l 383 969 l 382 969 q 374 962 382 962 l 374 962 l 370 962 q 363 966 365 962 l 363 966 q 355 962 359 962 l 355 962 l 353 962 q 351 967 351 962 l 351 967 q 344 970 344 968 l 344 970 q 294 969 301 969 l 294 969 q 282 970 287 969 l 282 970 q 277 975 282 975 l 277 975 l 271 975 q 252 970 263 970 l 252 970 q 229 962 241 970 l 229 962 l 226 962 q 222 969 222 969 l 222 969 l 208 969 q 165 970 193 969 l 165 970 q 163 970 164 970 l 163 970 q 156 975 161 975 l 156 975 q 120 973 153 975 l 120 973 l 119 973 q 95 980 98 980 l 95 980 q 90 972 94 980 l 90 972 q 91 958 91 959 l 91 958 q 95 949 95 952 l 95 949 l 95 949 q 81 927 81 930 l 81 927 l 81 926 q 90 927 82 926 l 90 927 q 92 924 92 927 l 92 924 q 87 907 92 918 l 87 907 q 75 865 87 892 l 75 865 q 79 862 79 863 l 79 862 l 79 860 q 71 852 75 852 l 71 852 q 52 830 67 851 l 52 830 q 32 796 32 804 l 32 796 q 33 794 32 795 l 33 794 q 45 800 45 800 l 45 800 q 132 827 76 814 l 132 827 q 153 835 133 829 l 153 835 q 157 831 155 835 l 157 831 q 250 847 238 847 l 250 847 l 255 847 q 298 841 282 841 l 298 841 q 336 847 307 841 l 336 847 l 347 847 q 357 846 357 846 l 357 846 q 427 836 387 846 l 427 836 q 421 824 422 824 l 421 824 q 383 736 393 746 l 383 736 l 384 732 q 375 716 380 724 l 375 716 q 357 664 375 702 l 357 664 q 344 643 353 649 l 344 643 q 335 629 336 629 l 335 629 q 327 585 331 614 l 327 585 q 311 535 317 545 l 311 535 q 300 523 304 530 l 300 523 q 273 454 290 500 l 273 454 q 244 385 256 399 l 244 385 q 216 338 227 361 l 216 338 q 184 258 197 287 l 184 258 q 170 209 178 226 l 170 209 q 152 151 160 186 l 152 151 q 135 117 146 127 l 135 117 q 100 67 111 95 l 100 67 q 52 16 96 54 l 52 16 q 29 1 41 7 l 29 1 l 29 0 q 39 -3 29 -3 l 39 -3 l 84 -3 q 107 -4 99 -3 l 107 -4 q 126 -9 114 -9 l 126 -9 q 247 -5 212 -5 l 247 -5 q 259 -4 255 -5 l 259 -4 l 285 1 q 290 1 288 1 l 290 1 q 304 -5 298 -5 l 304 -5 q 315 -4 311 -4 l 315 -4 l 362 -4 l 362 -1 q 341 47 341 28 l 341 47 l 341 49 q 350 100 350 85 l 350 100 q 367 142 367 137 l 367 142 l 367 143 l 361 153 q 374 172 362 159 l 374 172 q 411 264 382 195 l 411 264 q 435 337 420 288 l 435 337 q 456 390 456 385 l 456 390 l 456 391 l 453 395 l 453 396 q 477 454 453 399 l 477 454 q 508 524 503 524 l 508 524 l 541 590 q 551 604 544 601 l 551 604 l 551 625 q 552 628 551 627 l 552 628 q 559 639 559 630 l 559 639 q 591 713 583 693 l 591 713 q 615 788 604 766 l 615 788 q 637 831 631 812 l 637 831 q 651 865 646 854 l 651 865 q 673 895 673 886 l 673 895 q 695 920 673 907 l 695 920 l 719 943 q 771 979 768 976 l 771 979 l 770 980 q 744 978 764 980 l 744 978 q 708 968 715 968 l 708 968 l 705 968 q 688 970 696 968 l 688 970 q 650 969 656 969 l 650 969 q 576 970 634 969 l 576 970 q 564 969 568 969 l 564 969 q 553 977 553 970 l 553 977 q 529 981 553 981 z "},"8":{"ha":762,"x_min":39,"x_max":739,"o":"m 425 972 l 422 972 q 372 968 372 970 l 372 968 q 328 962 367 964 l 328 962 l 319 963 q 313 964 315 963 l 313 964 q 310 964 311 964 l 310 964 q 281 950 297 949 l 281 950 q 265 956 273 950 l 265 956 l 263 956 q 224 939 260 956 l 224 939 q 188 920 204 932 l 188 920 q 163 899 163 905 l 163 899 l 163 897 q 165 890 163 894 l 165 890 q 163 890 163 890 l 163 890 q 130 884 136 886 l 130 884 l 119 869 q 88 842 112 859 l 88 842 q 69 818 75 819 l 69 818 q 55 789 55 800 l 55 789 q 45 753 50 789 l 45 753 q 39 698 41 719 l 39 698 l 39 694 q 45 683 39 692 l 45 683 q 57 669 57 671 q 55 663 57 667 l 55 663 q 45 649 45 651 l 45 649 l 45 647 q 47 646 45 646 l 47 646 q 55 627 50 629 l 55 627 q 66 614 66 620 l 66 614 q 79 590 79 594 l 79 590 q 88 572 88 575 l 88 572 q 93 568 93 569 l 93 568 q 113 548 113 549 l 113 548 q 151 523 134 529 l 151 523 q 164 516 164 520 l 164 516 q 183 500 164 503 l 183 500 q 214 482 186 500 l 214 482 l 214 481 q 211 479 211 481 l 211 479 q 180 462 195 473 l 180 462 q 163 446 163 456 l 163 446 l 163 444 q 165 438 163 439 l 165 438 l 163 436 q 130 431 136 433 l 130 431 q 111 408 125 422 l 111 408 q 85 385 85 387 l 85 385 q 68 364 81 373 l 68 364 q 55 336 56 348 l 55 336 q 45 301 50 332 l 45 301 q 39 245 41 265 l 39 245 l 39 241 q 44 232 39 236 l 44 232 q 43 214 43 220 l 43 214 l 43 208 q 45 194 43 199 l 45 194 q 49 186 47 191 l 49 186 q 64 168 49 176 l 64 168 q 74 149 67 159 l 74 149 l 82 132 q 98 149 97 149 l 98 149 l 89 119 l 98 110 q 120 89 111 99 l 120 89 q 163 66 147 67 l 163 66 q 170 52 165 54 l 170 52 q 208 34 184 47 l 208 34 q 228 20 220 20 l 228 20 q 260 20 239 20 l 260 20 q 261 17 260 18 l 261 17 q 294 2 278 3 l 294 2 l 297 1 q 307 3 307 3 l 307 3 l 311 2 q 353 -11 338 -10 l 353 -11 l 356 -11 q 391 -8 366 -12 l 391 -8 l 412 -9 q 473 -5 453 -10 l 473 -5 q 578 28 511 -5 l 578 28 q 547 25 559 25 l 547 25 l 543 26 l 543 26 q 584 43 543 30 l 584 43 q 630 62 630 55 l 630 62 q 634 81 631 64 l 634 81 q 653 90 634 88 l 653 90 q 661 87 659 90 l 661 87 q 664 88 662 87 l 664 88 l 663 92 l 664 95 q 673 107 665 102 l 673 107 q 691 124 682 106 l 691 124 q 715 174 715 157 l 715 174 q 722 205 722 195 l 722 205 q 739 245 736 234 l 739 245 l 739 247 q 738 250 739 249 l 738 250 q 730 269 730 260 l 730 269 l 730 277 q 727 294 730 281 l 727 294 q 715 305 715 304 l 715 305 q 703 349 711 305 l 703 349 q 696 347 701 349 l 696 347 q 684 368 691 347 l 684 368 q 667 378 667 377 l 667 378 l 667 381 q 657 418 667 404 l 657 418 q 630 448 630 446 l 630 448 q 612 462 624 458 l 612 462 q 570 477 588 463 l 570 477 l 576 484 l 576 486 q 566 484 568 484 l 566 484 q 558 488 563 485 l 558 488 q 567 491 562 492 l 567 491 q 630 514 627 505 l 630 514 q 634 534 631 517 l 634 534 q 653 543 634 541 l 653 543 q 661 541 659 543 l 661 541 l 664 541 l 663 545 l 664 548 q 676 562 667 558 l 676 562 q 691 578 683 561 l 691 578 q 715 627 715 609 l 715 627 q 723 663 722 644 l 723 663 q 730 711 730 698 l 730 711 l 730 730 q 718 755 730 747 l 718 755 q 703 802 709 766 l 703 802 q 695 800 701 802 l 695 800 q 684 821 692 800 l 684 821 q 652 831 676 824 l 652 831 q 662 865 652 833 l 662 865 l 662 866 q 658 878 662 874 l 658 878 q 635 894 642 886 l 635 894 q 606 916 624 915 l 606 916 q 568 932 576 922 l 568 932 q 560 940 560 939 l 560 940 q 517 960 532 960 l 517 960 l 516 960 q 503 960 515 960 l 503 960 l 480 960 q 454 964 473 961 l 454 964 q 425 972 431 972 l 425 972 z m 296 833 l 303 832 q 326 851 313 831 l 326 851 q 402 872 360 863 l 402 872 l 403 872 l 403 871 q 401 871 402 871 l 401 871 q 399 866 399 870 l 399 866 l 399 865 q 410 861 401 861 l 410 861 q 454 848 421 861 l 454 848 q 469 840 463 840 l 469 840 l 501 814 l 515 799 q 514 790 514 793 l 514 790 q 528 769 515 774 l 528 769 q 541 709 537 717 l 541 709 q 534 706 534 707 q 538 702 534 705 l 538 702 q 549 692 549 696 l 549 692 q 533 671 549 686 l 533 671 l 533 671 q 541 665 533 665 l 541 665 q 535 652 537 659 l 535 652 q 528 631 535 635 l 528 631 q 519 602 524 608 l 519 602 q 513 597 513 600 l 513 597 l 494 575 q 444 552 469 555 l 444 552 q 437 555 441 552 l 437 555 q 420 567 423 567 l 420 567 q 399 551 416 567 l 399 551 q 393 548 397 547 l 393 548 q 369 555 382 548 l 369 555 l 347 556 q 331 570 342 559 l 331 570 l 319 570 q 298 583 314 570 l 298 583 q 288 595 290 589 l 288 595 q 276 607 276 605 l 276 607 q 264 610 266 609 l 264 610 q 241 652 259 610 l 241 652 q 236 700 239 652 l 236 700 q 239 724 236 711 l 239 724 l 239 725 q 228 730 239 727 l 228 730 q 250 759 239 749 l 250 759 q 256 788 251 768 l 256 788 q 275 808 260 799 l 275 808 q 283 821 281 808 l 283 821 q 292 826 283 826 l 292 826 q 296 833 296 826 l 296 833 l 296 833 z m 303 380 l 306 380 q 314 382 308 380 l 314 382 q 330 398 328 398 l 330 398 q 371 410 360 406 l 371 410 l 374 410 l 422 405 q 445 398 445 399 l 445 398 l 445 397 q 443 386 445 396 l 443 386 q 446 384 443 385 l 446 384 l 465 389 q 473 387 472 387 l 473 387 q 507 362 479 380 l 507 362 l 521 349 l 520 345 l 520 339 q 530 323 520 330 l 530 323 q 536 313 534 322 l 536 313 q 547 267 543 273 l 547 267 q 540 262 540 264 l 540 262 l 540 262 q 555 246 555 252 l 555 246 q 552 241 555 245 l 552 241 q 539 230 539 231 l 539 230 q 547 226 539 226 l 547 226 q 542 216 543 217 l 542 216 q 535 195 542 199 l 535 195 q 526 168 529 172 l 526 168 q 519 163 519 166 l 519 163 q 498 140 513 155 l 498 140 q 447 121 473 125 l 447 121 q 431 126 445 121 l 431 126 q 404 121 412 123 l 404 121 q 397 117 399 117 l 397 117 q 369 125 387 118 l 369 125 l 349 125 q 332 138 341 130 l 332 138 l 319 138 q 290 161 290 153 l 290 161 q 277 172 277 170 l 277 172 q 264 176 266 174 l 264 176 q 243 210 260 176 l 243 210 q 235 257 237 213 l 235 257 q 238 279 235 267 l 238 279 l 238 279 q 228 297 229 293 l 228 297 q 238 308 228 302 l 238 308 q 237 309 238 309 l 237 309 l 238 311 q 251 313 251 313 l 251 313 l 251 314 q 255 335 251 322 l 255 335 q 273 357 255 345 l 273 357 q 284 372 284 359 l 284 372 q 297 376 297 374 l 297 376 l 297 381 l 303 380 z "},"9":{"ha":836,"x_min":29,"x_max":802,"o":"m 393 970 l 393 970 q 389 969 389 970 l 389 969 q 302 962 329 966 l 302 962 q 290 946 294 962 l 290 946 l 248 933 q 236 935 241 935 l 236 935 l 235 935 q 233 932 233 934 l 233 932 l 233 932 q 237 922 233 929 l 237 922 q 218 907 237 916 l 218 907 q 190 890 197 900 l 190 890 q 170 874 170 880 l 170 874 l 174 869 q 165 855 174 865 l 165 855 q 146 861 151 861 l 146 861 q 136 857 142 861 l 136 857 q 85 789 119 831 l 85 789 q 74 768 80 773 l 74 768 q 65 743 68 768 l 65 743 q 54 717 55 724 l 54 717 q 33 627 33 654 l 33 627 q 36 613 33 617 l 36 613 l 36 605 q 35 600 36 602 l 35 600 q 29 588 29 597 l 29 588 l 29 583 q 46 530 29 567 l 46 530 q 52 506 46 511 l 52 506 q 71 471 65 494 l 71 471 q 86 437 86 439 l 86 437 q 98 428 96 431 l 98 428 q 111 408 104 408 l 111 408 q 119 409 112 408 l 119 409 l 120 408 q 138 395 135 395 l 138 395 l 146 396 q 151 394 149 396 l 151 394 l 160 372 q 179 360 160 366 l 179 360 q 291 319 257 319 l 291 319 q 293 320 292 320 l 293 320 q 336 315 330 315 l 336 315 q 359 321 342 315 l 359 321 q 405 326 364 325 l 405 326 q 414 332 414 326 l 414 332 q 423 337 414 337 l 423 337 l 425 337 q 433 334 430 334 l 433 334 l 434 334 q 441 336 437 334 l 441 336 q 486 354 463 346 l 486 354 l 486 355 l 486 356 q 506 362 496 359 l 506 362 q 528 393 528 381 l 528 393 l 528 395 q 547 410 547 402 l 547 410 q 544 412 547 412 l 544 412 q 556 430 544 418 l 556 430 q 564 427 562 427 l 564 427 q 570 452 569 427 l 570 452 q 580 479 580 474 l 580 479 l 580 479 q 577 485 579 485 l 577 485 l 577 486 q 585 498 585 492 l 585 498 l 585 504 q 581 528 585 514 l 581 528 q 574 531 574 530 l 574 531 l 574 536 q 578 542 578 541 l 578 542 q 568 564 578 552 l 568 564 q 541 598 554 592 l 541 598 q 473 619 513 612 l 473 619 l 467 619 q 463 616 464 619 l 463 616 l 463 614 l 479 597 q 489 585 489 590 l 489 585 q 494 580 494 582 l 494 580 q 494 578 494 578 l 494 578 q 494 575 494 576 l 494 575 q 502 562 502 566 l 502 562 q 501 552 502 557 l 501 552 q 503 532 503 541 l 503 532 l 503 529 q 494 509 503 523 l 494 509 q 483 494 486 503 l 483 494 q 452 471 463 475 l 452 471 q 449 472 450 472 l 449 472 l 448 472 q 420 461 423 461 l 420 461 q 386 449 399 449 l 386 449 l 380 449 q 340 452 352 452 l 340 452 q 338 437 340 450 l 338 437 q 320 439 333 438 l 320 439 q 314 438 317 438 l 314 438 l 313 438 q 322 454 313 441 l 322 454 l 322 456 q 292 469 305 462 l 292 469 q 278 484 283 469 l 278 484 q 261 493 265 488 l 261 493 q 243 500 261 496 l 243 500 l 244 507 q 235 515 244 511 l 235 515 q 227 538 228 536 l 227 538 q 207 564 207 555 l 207 564 q 208 583 208 578 l 208 583 l 208 583 q 198 602 208 594 l 198 602 q 189 621 192 608 l 189 621 q 195 625 189 623 l 195 625 q 205 629 203 626 l 205 629 q 202 633 205 633 l 202 633 l 202 634 l 208 649 l 208 650 l 205 658 l 205 659 q 214 680 205 661 l 214 680 q 232 732 214 693 l 232 732 l 233 732 q 235 727 235 732 l 235 727 q 239 728 238 727 l 239 728 l 243 727 l 243 727 q 254 743 250 743 l 254 743 q 276 762 273 760 l 276 762 q 292 766 292 764 l 292 766 q 300 773 300 769 l 300 773 q 309 777 309 773 l 309 777 q 339 785 328 781 l 339 785 q 418 796 393 796 l 418 796 l 423 795 l 423 794 q 408 787 409 787 l 408 787 l 408 786 q 456 791 434 786 l 456 791 q 486 782 472 784 l 486 782 l 488 783 q 492 781 492 782 l 492 781 q 500 774 494 774 l 500 774 q 519 765 511 765 l 519 765 l 523 766 q 541 757 533 766 l 541 757 q 576 724 557 751 l 576 724 q 605 663 596 671 l 605 663 q 620 651 620 659 l 620 651 l 620 650 q 614 647 620 650 l 614 647 q 621 612 614 641 l 621 612 q 618 590 621 597 l 618 590 q 620 576 620 583 l 620 576 l 620 575 l 619 572 q 627 560 627 561 l 627 560 q 625 552 627 557 l 625 552 l 626 549 q 618 476 626 524 l 618 476 q 622 414 620 433 l 622 414 q 621 410 622 410 l 621 410 q 606 376 621 397 l 606 376 q 590 325 604 364 l 590 325 q 577 310 590 317 l 577 310 q 562 273 574 307 l 562 273 q 539 234 539 241 l 539 234 l 539 228 q 545 218 545 220 l 545 218 l 545 217 l 543 214 l 541 214 q 531 221 534 221 l 531 221 l 530 221 q 526 214 530 221 l 526 214 q 511 181 517 189 l 511 181 q 468 144 504 174 l 468 144 q 454 117 458 118 l 454 117 l 452 117 l 443 123 q 435 116 441 123 l 435 116 l 435 114 l 437 112 l 437 111 q 422 106 437 108 l 422 106 q 370 87 389 98 l 370 87 q 354 81 362 87 l 354 81 q 338 78 342 79 l 338 78 q 319 61 323 61 l 319 61 q 309 69 317 61 l 309 69 q 302 68 302 69 l 302 68 q 222 58 272 61 l 222 58 q 191 62 206 58 l 191 62 q 122 82 140 73 l 122 82 l 121 81 q 159 43 153 43 l 159 43 l 182 47 l 185 47 q 181 35 185 45 l 181 35 q 184 33 181 33 l 184 33 q 199 35 197 35 l 199 35 q 203 33 202 35 l 203 33 q 201 28 203 31 l 201 28 l 202 27 q 232 24 205 27 l 232 24 q 264 16 239 24 l 264 16 q 299 20 266 16 l 299 20 l 302 18 l 300 12 q 319 8 300 8 l 319 8 q 330 9 326 9 l 330 9 q 342 8 336 9 l 342 8 l 356 9 q 364 9 359 9 l 364 9 q 380 9 370 9 l 380 9 l 382 8 q 401 0 391 0 l 401 0 q 481 18 429 0 l 481 18 q 502 35 500 35 l 502 35 q 517 29 505 35 l 517 29 q 523 31 521 31 l 523 31 q 589 71 551 43 l 589 71 q 606 77 602 71 l 606 77 q 657 132 609 79 l 657 132 q 678 159 678 148 l 678 159 q 677 168 677 168 l 677 168 q 697 184 677 179 l 697 184 q 714 204 705 184 l 714 204 q 735 250 727 238 l 735 250 q 749 267 747 258 l 749 267 q 768 350 754 319 l 768 350 q 779 387 775 385 l 779 387 q 788 412 788 387 l 788 412 q 787 425 787 418 l 787 425 l 787 437 l 798 528 l 797 530 q 787 534 788 530 l 787 534 q 795 550 789 541 l 795 550 q 802 574 802 557 l 802 574 l 802 578 q 798 608 802 600 l 798 608 q 789 608 797 608 l 789 608 q 786 610 787 608 l 786 610 q 789 614 787 614 l 789 614 q 800 633 800 618 l 800 633 q 796 667 800 642 l 796 667 q 792 683 792 680 l 792 683 q 781 701 781 698 l 781 701 l 781 702 q 784 715 781 705 l 784 715 l 784 715 q 780 726 780 725 l 780 726 q 781 737 780 728 l 781 737 q 773 751 781 743 l 773 751 q 742 779 746 772 l 742 779 q 728 800 733 800 l 728 800 l 726 798 l 727 793 l 726 793 q 710 810 724 794 l 710 810 q 724 812 719 810 l 724 812 q 728 823 724 814 l 728 823 q 701 845 728 829 l 701 845 q 690 839 692 839 l 690 839 l 689 839 q 681 848 689 842 l 681 848 q 673 871 681 871 l 673 871 q 666 871 669 871 l 666 871 l 665 871 q 640 889 656 872 l 640 889 q 631 903 640 897 l 631 903 q 590 924 594 920 l 590 924 q 571 934 590 928 l 571 934 q 524 943 536 939 l 524 943 q 507 955 524 950 l 507 955 q 441 968 456 968 l 441 968 q 438 968 440 968 l 438 968 q 418 970 428 970 l 418 970 q 416 969 416 969 l 416 969 l 414 970 q 407 969 413 970 l 407 969 q 393 970 404 969 z "}," ":{"ha":345,"x_min":0,"x_max":0,"o":""},"-":{"ha":525,"x_min":0,"x_max":0,"o":""},"!":{"ha":488,"x_min":152,"x_max":376,"o":"m 197 286 l 197 286 l 199 286 q 220 300 205 286 l 220 300 l 222 300 q 223 297 222 297 l 223 297 q 239 307 234 307 l 239 307 q 254 308 249 308 l 254 308 l 257 308 q 267 303 262 308 l 267 303 l 275 307 q 317 291 285 304 l 317 291 q 329 287 321 287 l 329 287 l 329 288 q 322 311 326 291 l 322 311 l 323 311 l 329 316 l 326 326 l 326 332 q 324 364 326 336 l 324 364 q 325 368 324 368 l 325 368 q 323 407 323 375 l 323 407 q 326 409 324 407 l 326 409 l 326 410 q 323 431 326 412 l 323 431 q 327 458 327 450 l 327 458 q 326 496 326 481 l 326 496 q 332 505 332 496 l 332 505 l 332 509 l 334 551 q 342 690 339 562 l 342 690 l 344 690 q 345 692 345 690 l 345 692 l 351 698 q 344 728 351 715 l 344 728 q 351 740 344 735 l 351 740 q 355 800 353 756 l 355 800 q 351 801 353 801 l 351 801 l 347 801 q 341 800 342 800 l 341 800 q 339 801 339 800 q 356 815 339 802 l 356 815 q 365 924 365 920 l 365 924 q 357 930 357 928 l 357 930 q 366 942 366 930 l 366 942 l 366 943 q 376 985 372 981 l 376 985 l 367 981 q 370 1052 370 1006 l 370 1052 q 368 1053 368 1052 l 368 1053 q 351 1047 351 1052 l 351 1047 q 344 1046 348 1047 l 344 1046 q 289 1050 298 1050 l 289 1050 l 277 1051 l 276 1050 l 277 1048 l 276 1048 q 270 1046 272 1048 l 270 1046 q 267 1038 267 1044 l 267 1038 l 236 1050 l 180 1049 l 170 1047 l 168 1047 q 153 1049 159 1047 l 153 1049 q 152 1048 153 1048 l 152 1048 q 157 1021 153 1046 l 157 1021 q 157 993 157 997 l 157 993 q 160 991 158 991 l 160 991 q 163 934 163 951 l 163 934 l 163 922 q 168 900 163 900 l 168 900 q 170 896 170 898 l 170 896 l 170 895 l 167 895 l 167 895 q 177 725 170 859 l 177 725 q 182 655 189 707 l 182 655 l 184 653 q 191 610 191 629 l 191 610 l 191 607 q 194 586 191 600 l 194 586 q 188 534 188 543 l 188 534 l 188 533 l 189 529 l 191 529 q 197 564 195 564 l 197 564 l 199 564 q 199 495 199 519 l 199 495 l 201 494 l 206 496 q 210 488 210 491 l 210 488 l 210 486 q 201 479 210 486 l 201 479 q 205 404 205 441 l 205 404 l 205 403 q 205 400 205 401 l 205 400 q 203 371 205 385 l 203 371 l 205 326 q 198 290 205 316 l 198 290 q 197 286 197 288 z m 227 136 l 227 136 q 240 134 237 134 l 240 134 q 242 134 241 134 l 242 134 q 245 133 243 134 l 245 133 l 247 134 q 252 136 248 134 l 252 136 l 253 135 q 258 144 254 136 l 258 144 l 258 144 q 255 142 256 143 l 255 142 q 250 141 253 141 l 250 141 q 243 143 246 141 l 243 143 l 241 143 q 242 144 242 144 l 242 144 l 241 144 q 239 144 240 144 l 239 144 l 239 144 l 239 144 q 236 149 237 149 l 236 149 l 235 149 q 233 151 234 149 l 233 151 l 229 158 q 227 166 228 158 l 227 166 l 227 169 q 229 178 228 176 l 229 178 l 232 180 l 232 180 l 234 182 l 235 182 q 237 180 235 180 l 237 180 l 237 180 q 242 182 241 182 q 244 182 243 182 l 244 182 q 251 180 250 180 l 251 180 l 252 180 q 255 178 254 180 l 255 178 q 257 179 256 179 l 257 179 q 261 178 258 179 l 261 178 q 265 176 264 178 l 265 176 l 268 176 l 267 174 q 269 172 267 173 l 269 172 q 271 170 271 170 l 271 170 l 272 170 q 275 165 275 168 l 275 165 l 278 166 q 279 165 279 166 l 279 165 q 279 161 279 162 l 279 161 q 278 156 279 159 l 278 156 q 279 155 278 155 l 279 155 q 279 153 279 155 l 279 153 l 279 148 q 280 146 280 147 l 280 146 l 278 144 q 277 137 277 144 l 277 137 q 274 130 275 132 l 274 130 q 272 127 272 127 l 272 127 q 268 123 272 125 l 268 123 q 269 120 269 121 l 269 120 q 265 115 269 118 l 265 115 q 260 110 260 110 l 260 110 l 259 111 l 258 111 q 258 109 258 109 l 258 109 l 256 109 q 253 108 254 109 l 253 108 q 248 105 250 106 l 248 105 q 244 104 247 104 l 244 104 l 243 105 l 242 104 q 239 102 239 102 q 237 104 238 102 l 237 104 q 237 104 237 104 l 237 104 l 232 104 q 220 106 220 104 l 220 106 l 221 106 l 221 106 l 219 106 q 209 112 215 108 l 209 112 l 205 115 l 205 114 l 203 117 q 200 121 201 120 l 200 121 q 196 132 198 124 l 196 132 l 195 129 l 195 130 q 191 143 192 141 l 191 143 q 190 151 190 150 l 190 151 q 191 163 190 159 l 191 163 q 196 178 191 170 l 196 178 q 190 171 192 177 l 190 171 q 189 168 189 169 l 189 168 q 186 163 187 165 l 186 163 q 180 137 180 150 l 180 137 q 180 129 180 133 l 180 129 l 180 127 l 180 126 q 181 121 180 124 l 181 121 l 181 119 q 184 111 181 117 l 184 111 q 187 106 187 106 l 187 106 q 191 98 189 106 l 191 98 l 191 98 l 191 99 l 192 98 q 198 87 198 89 l 198 87 q 197 85 198 85 l 197 85 q 205 79 201 83 l 205 79 q 212 73 212 74 l 212 73 q 221 68 214 70 l 221 68 q 228 66 226 67 l 228 66 l 228 66 l 227 65 l 228 65 q 236 60 229 64 l 236 60 q 239 59 237 59 l 239 59 q 245 58 243 58 l 245 58 l 246 58 l 246 60 q 247 60 246 60 l 247 60 q 250 58 248 58 l 250 58 q 254 58 252 58 l 254 58 l 267 58 q 271 59 269 58 l 271 59 q 269 60 271 60 l 269 60 q 269 60 269 60 l 269 60 q 273 63 271 63 l 273 63 l 283 63 q 287 64 287 63 q 285 66 287 64 l 285 66 l 286 66 q 288 68 287 66 l 288 68 q 293 65 290 67 l 293 65 q 297 67 294 65 l 297 67 q 300 69 299 69 l 300 69 l 302 69 q 309 73 306 71 l 309 73 l 309 74 l 308 75 q 311 77 309 76 l 311 77 l 321 87 q 325 96 325 92 l 325 96 q 323 98 323 97 q 324 98 323 98 l 324 98 q 328 98 327 98 l 328 98 l 328 98 l 329 98 q 334 106 334 102 l 334 106 q 338 120 338 118 l 338 120 q 337 123 338 121 l 337 123 l 338 123 l 339 122 q 340 123 340 122 l 340 123 q 343 136 343 134 l 343 136 l 343 139 q 345 145 345 144 l 345 145 l 345 147 l 345 149 q 345 151 345 150 l 345 151 l 345 164 l 345 165 l 345 168 q 347 170 345 168 l 347 170 l 347 170 q 345 176 345 174 l 345 176 q 345 178 345 176 l 345 178 q 343 183 345 180 l 343 183 q 341 186 341 184 l 341 186 l 338 186 l 338 186 q 339 192 339 191 l 339 192 q 328 207 339 196 l 328 207 q 322 211 325 208 l 322 211 q 318 212 321 211 l 318 212 q 315 214 315 214 l 315 214 l 313 213 q 311 214 311 213 l 311 214 q 310 217 311 216 l 310 217 q 299 222 302 222 l 299 222 l 297 222 q 294 222 296 222 l 294 222 l 287 225 q 285 224 285 224 l 285 224 l 281 224 q 275 227 277 227 l 275 227 l 274 227 q 268 226 272 227 q 253 224 264 225 l 253 224 q 243 220 243 220 l 243 220 l 242 220 q 238 220 239 220 l 238 220 q 229 214 233 218 l 229 214 l 219 205 q 216 199 216 203 l 216 199 q 214 192 215 197 l 214 192 q 210 189 212 191 l 210 189 q 208 185 208 187 l 208 185 q 205 178 207 182 l 205 178 q 203 171 203 175 l 203 171 l 203 170 q 203 169 203 170 l 203 169 l 203 165 l 203 165 l 204 163 l 204 160 q 208 150 204 157 l 208 150 l 208 151 l 209 151 l 211 144 q 214 140 213 140 l 214 140 q 216 139 216 139 l 216 139 q 227 136 224 136 z "},"'":{"ha":275,"x_min":92,"x_max":193,"o":"m 98 1010 l 98 1010 q 92 1010 98 1009 l 92 1010 q 96 989 92 994 l 96 989 q 99 955 98 969 l 99 955 q 99 930 103 932 l 99 930 q 99 930 99 930 l 99 930 l 104 926 q 111 886 109 905 l 111 886 q 116 866 115 871 l 116 866 q 117 851 117 857 l 117 851 q 119 838 119 846 l 119 838 q 118 818 119 823 l 118 818 l 125 817 q 128 818 126 817 l 128 818 q 139 819 135 814 l 139 819 q 149 821 147 818 l 149 821 l 146 823 q 149 824 149 823 l 149 824 q 151 827 151 825 l 151 827 q 150 835 151 829 l 150 835 q 150 836 150 836 l 150 836 q 153 838 151 838 l 153 838 q 154 853 153 844 l 154 853 q 157 861 156 858 l 157 861 q 160 879 159 863 l 160 879 q 166 905 161 889 l 166 905 l 169 915 q 173 928 173 922 l 173 928 l 173 942 q 180 979 174 945 l 180 979 q 188 1005 182 992 l 188 1005 q 191 1015 193 1013 l 191 1015 q 191 1015 191 1015 l 191 1015 q 182 1013 184 1014 l 182 1013 q 179 1008 179 1008 l 179 1008 q 176 1008 178 1007 l 176 1008 q 166 1015 172 1010 l 166 1015 q 164 1017 165 1017 l 164 1017 q 161 1010 163 1017 l 161 1010 q 159 1006 159 1008 l 159 1006 q 158 1004 158 1004 l 158 1004 q 157 1010 157 1005 l 157 1010 l 155 1006 q 152 1017 152 1007 l 152 1017 q 135 1013 143 1013 l 135 1013 q 129 1011 130 1013 l 129 1011 l 127 1009 q 125 1010 125 1010 l 125 1010 q 118 1006 122 1011 l 118 1006 q 98 1010 100 1013 z "},"(":{"ha":441,"x_min":72,"x_max":412,"o":"m 368 1089 l 368 1090 q 337 1097 368 1095 l 337 1097 q 297 1062 324 1082 l 297 1062 q 282 1040 293 1046 l 282 1040 q 256 1025 277 1040 l 256 1025 l 242 1025 q 228 984 237 1025 l 228 984 q 200 949 206 951 l 200 949 q 180 922 191 949 l 180 922 q 160 886 179 905 l 160 886 q 142 842 152 882 l 142 842 q 127 806 127 811 l 127 806 q 127 793 127 805 l 127 793 q 109 772 127 779 l 109 772 q 96 734 96 764 l 96 734 q 85 653 96 698 l 85 653 q 72 585 72 631 l 72 585 l 72 501 q 80 488 72 498 l 80 488 q 81 482 81 483 l 81 482 q 76 427 76 433 l 76 427 q 96 316 76 401 l 96 316 q 116 305 116 308 l 116 305 q 106 287 106 294 l 106 287 l 106 279 q 154 146 106 259 l 154 146 q 170 140 159 143 l 170 140 q 180 98 174 135 l 180 98 q 210 56 202 57 l 210 56 q 219 45 219 49 l 219 45 q 217 34 217 38 l 217 34 q 272 -41 243 -11 l 272 -41 q 275 -41 273 -41 l 275 -41 q 281 -39 275 -39 l 281 -39 q 303 -76 287 -45 l 303 -76 q 346 -122 330 -109 l 346 -122 l 410 -122 q 412 -120 412 -122 l 412 -120 l 412 -114 q 386 -87 412 -96 l 386 -87 q 378 -78 378 -80 l 378 -78 q 379 -67 379 -71 l 379 -67 l 379 -66 q 345 -10 379 -64 l 345 -10 q 316 61 327 14 l 316 61 q 303 87 316 74 l 303 87 q 284 151 289 87 l 284 151 q 275 168 281 161 l 275 168 q 255 226 267 168 l 255 226 q 242 287 251 239 l 242 287 q 220 318 241 297 l 220 318 q 219 325 220 321 l 219 325 q 229 341 219 330 l 229 341 l 229 343 q 207 451 229 361 l 207 451 l 207 452 q 213 446 208 452 l 213 446 l 214 448 q 207 526 207 506 l 207 526 q 209 566 207 533 l 209 566 q 204 592 209 570 l 204 592 q 207 629 207 613 l 207 629 l 207 633 q 191 661 207 648 l 191 661 l 191 665 q 194 669 191 667 l 194 669 q 208 667 203 667 l 208 667 q 215 705 211 667 l 215 705 q 242 814 227 760 l 242 814 l 242 842 q 246 854 243 854 l 246 854 l 256 854 q 277 896 259 854 l 277 896 q 337 984 297 933 l 337 984 l 337 985 q 332 1002 332 1000 l 332 1002 l 332 1004 q 335 1006 332 1006 l 335 1006 q 356 1000 339 1006 l 356 1000 q 398 1040 398 1038 l 398 1040 q 411 1075 411 1073 l 411 1075 q 383 1080 403 1080 l 383 1080 l 365 1080 q 363 1082 363 1080 l 363 1082 l 363 1084 l 368 1089 z "},")":{"ha":446,"x_min":24,"x_max":363,"o":"m 68 -114 l 68 -115 q 98 -122 68 -120 l 98 -122 q 138 -87 111 -107 l 138 -87 q 153 -65 142 -71 l 153 -65 q 180 -50 159 -65 l 180 -50 l 193 -50 q 208 -8 198 -50 l 208 -8 q 235 27 229 24 l 235 27 q 255 54 245 27 l 255 54 q 275 90 256 71 l 275 90 q 294 134 283 94 l 294 134 q 309 170 309 164 l 309 170 q 308 182 309 171 l 308 182 q 326 203 308 196 l 326 203 q 339 241 339 211 l 339 241 q 350 323 339 278 l 350 323 q 363 391 363 345 l 363 391 l 363 475 q 355 487 363 477 l 355 487 q 355 493 355 492 l 355 493 q 359 549 359 543 l 359 549 q 340 660 359 575 l 340 660 q 319 670 319 668 l 319 670 q 329 689 329 681 l 329 689 l 329 696 q 281 829 329 717 l 281 829 q 266 836 277 833 l 266 836 q 255 878 261 841 l 255 878 q 225 920 233 918 l 225 920 q 216 931 216 927 l 216 931 q 218 941 218 938 l 218 941 q 163 1016 193 986 l 163 1016 q 161 1017 162 1017 l 161 1017 q 155 1014 160 1014 l 155 1014 q 132 1051 149 1020 l 132 1051 q 90 1097 106 1084 l 90 1097 l 26 1097 q 24 1095 24 1097 l 24 1095 l 24 1089 q 50 1062 24 1071 l 50 1062 q 57 1053 57 1055 l 57 1053 q 56 1042 56 1046 l 56 1042 l 56 1042 q 90 985 56 1039 l 90 985 q 119 914 109 961 l 119 914 q 132 888 119 901 l 132 888 q 151 825 146 888 l 151 825 q 161 808 154 814 l 161 808 q 180 749 169 808 l 180 749 q 193 689 184 736 l 193 689 q 216 658 194 679 l 216 658 q 216 651 216 654 l 216 651 q 207 634 216 646 l 207 634 l 207 632 q 229 524 207 614 l 229 524 l 229 524 q 222 530 228 524 l 222 530 l 222 528 q 229 449 229 470 l 229 449 q 227 409 229 442 l 227 409 q 231 383 227 406 l 231 383 q 229 347 229 362 l 229 347 l 229 342 q 244 315 229 328 l 244 315 l 244 310 q 241 307 244 309 l 241 307 q 227 308 233 308 l 227 308 q 220 271 225 308 l 220 271 q 193 161 209 215 l 193 161 l 193 134 q 189 121 193 121 l 189 121 l 180 121 q 159 80 176 121 l 159 80 q 98 -8 138 42 l 98 -8 l 98 -10 q 103 -27 103 -24 l 103 -27 l 103 -28 q 100 -31 103 -31 l 100 -31 q 79 -25 96 -31 l 79 -25 q 37 -65 37 -63 l 37 -65 q 24 -99 24 -97 l 24 -99 q 52 -105 33 -105 l 52 -105 l 71 -105 q 73 -107 73 -105 l 73 -107 l 73 -108 l 68 -114 z "},",":{"ha":424,"x_min":131,"x_max":279,"o":"m 178 92 l 178 92 q 159 87 173 92 l 159 87 q 144 72 149 81 l 144 72 q 136 51 140 65 l 136 51 q 135 48 136 48 l 135 48 q 137 41 136 46 l 137 41 q 140 35 140 35 l 140 35 q 142 24 141 26 l 142 24 q 155 18 144 18 l 155 18 l 155 18 l 155 17 q 164 7 161 11 l 164 7 q 175 0 172 0 l 175 0 l 179 1 q 182 -1 181 1 l 182 -1 q 189 -15 189 -11 l 189 -15 q 187 -23 189 -18 l 187 -23 q 180 -38 181 -35 l 180 -38 q 170 -48 179 -40 l 170 -48 q 157 -56 161 -56 l 157 -56 q 142 -62 149 -62 l 142 -62 l 131 -62 l 131 -65 q 136 -71 135 -68 l 136 -71 q 141 -79 140 -75 l 141 -79 q 149 -83 142 -83 l 149 -83 l 151 -83 q 167 -82 152 -83 l 167 -82 q 190 -83 186 -83 l 190 -83 q 199 -81 195 -83 l 199 -81 q 218 -70 208 -78 l 218 -70 l 232 -64 q 275 -22 261 -50 l 275 -22 q 278 -18 275 -20 l 278 -18 q 279 -14 279 -17 l 279 -14 l 279 -14 q 277 -11 279 -13 l 277 -11 q 275 1 275 -8 l 275 1 q 275 13 275 3 l 275 13 q 273 19 275 14 l 273 19 q 259 53 267 37 l 259 53 q 250 64 259 54 l 250 64 q 231 79 239 73 l 231 79 q 225 79 227 79 l 225 79 l 222 79 q 221 79 222 79 l 221 79 l 222 79 l 222 80 l 220 80 q 205 79 216 80 l 205 79 q 200 71 202 71 l 200 71 q 197 74 199 71 l 197 74 q 197 78 197 76 l 197 78 q 197 87 197 83 l 197 87 q 178 92 182 92 z "},".":{"ha":424,"x_min":161,"x_max":277,"o":"m 230 111 l 222 111 q 216 110 219 111 l 216 110 q 203 105 212 109 l 203 105 q 195 100 199 103 l 195 100 q 185 91 193 98 l 185 91 q 169 74 179 84 l 169 74 q 161 56 161 67 l 161 56 q 161 47 161 52 l 161 47 q 168 49 165 49 l 168 49 l 169 49 q 173 45 173 48 l 173 45 l 172 42 l 172 41 l 172 41 q 167 42 170 41 l 167 42 q 166 28 166 42 l 166 28 l 166 24 q 168 18 167 18 l 168 18 l 169 18 l 171 20 l 172 20 q 176 12 174 15 l 176 12 q 186 2 179 8 l 186 2 q 193 -2 189 -2 l 193 -2 q 199 -1 195 -2 l 199 -1 q 197 -4 197 -3 l 197 -4 l 197 -5 q 205 -6 197 -5 l 205 -6 q 210 -3 210 -6 l 210 -3 q 209 -1 210 -2 l 209 -1 q 229 -1 221 -1 l 229 -1 q 233 -1 231 -1 l 233 -1 q 242 2 237 0 l 242 2 q 254 9 248 5 l 254 9 q 263 18 257 11 l 263 18 q 272 32 271 26 l 272 32 l 272 47 l 277 53 l 277 68 l 269 82 q 262 94 267 83 l 262 94 l 245 100 l 245 105 l 235 105 l 230 111 z "},":":{"ha":424,"x_min":138,"x_max":263,"o":"m 209 759 l 204 764 q 201 760 203 761 l 201 760 q 195 755 195 758 l 195 755 l 186 755 l 178 751 l 172 745 l 168 745 l 168 736 l 159 736 l 151 728 q 146 720 150 728 l 146 720 q 144 707 145 720 l 144 707 l 144 706 q 150 700 144 705 l 150 700 q 149 695 149 698 l 149 695 l 149 694 q 151 687 151 688 l 151 687 l 151 686 q 150 685 151 686 l 150 685 q 146 682 149 682 l 146 682 l 145 682 q 151 665 146 677 l 151 665 q 161 651 154 658 l 161 651 q 177 641 170 645 l 177 641 q 183 642 180 642 l 183 642 q 193 641 185 642 l 193 641 l 194 641 q 202 642 196 641 l 202 642 l 204 642 q 208 640 205 640 l 208 640 q 218 641 212 640 l 218 641 l 227 650 l 227 659 l 245 659 q 256 669 251 662 l 256 669 q 261 690 261 680 l 261 690 q 260 694 261 692 l 260 694 q 258 699 258 696 l 258 699 l 258 701 q 260 704 258 703 l 260 704 l 263 705 l 263 713 q 254 730 258 724 l 254 730 q 248 738 253 733 l 248 738 q 238 744 243 741 l 238 744 q 231 743 234 743 l 231 743 q 224 749 224 743 l 224 749 q 227 759 224 753 l 227 759 l 222 759 q 213 755 216 755 l 213 755 q 209 759 210 755 l 209 759 z m 203 275 l 201 275 q 191 273 191 275 l 191 273 q 191 267 191 272 l 191 267 l 187 264 l 183 264 l 183 267 l 184 268 l 184 269 q 182 270 184 270 l 182 270 l 180 270 q 163 259 176 270 l 163 259 q 161 257 161 258 l 161 257 q 164 249 164 251 l 164 249 q 160 245 164 245 l 160 245 q 159 244 159 245 l 159 244 q 156 232 157 240 l 156 232 l 155 232 q 154 235 155 235 l 154 235 q 149 232 152 235 l 149 232 q 144 228 144 229 l 144 228 l 144 227 q 147 224 144 226 l 147 224 q 141 219 143 219 l 141 219 q 139 220 140 219 l 139 220 q 138 218 138 220 l 138 218 q 143 212 138 216 l 143 212 l 143 205 q 154 182 143 197 l 154 182 q 159 176 154 181 l 159 176 l 163 176 l 163 177 l 163 178 q 163 179 163 179 l 163 179 l 165 179 q 168 178 167 179 l 168 178 q 172 173 172 175 l 172 173 q 170 171 172 172 l 170 171 q 168 172 169 172 l 168 172 l 168 171 q 173 168 171 169 l 173 168 q 191 164 182 164 l 191 164 l 192 164 q 208 168 197 164 l 208 168 q 220 172 215 170 l 220 172 q 231 178 226 174 l 231 178 q 240 185 234 179 l 240 185 q 247 196 245 192 l 247 196 l 247 208 q 250 211 249 209 l 250 211 q 253 227 253 218 l 253 227 l 253 227 q 252 232 253 230 l 252 232 q 252 236 252 236 l 252 236 q 247 239 249 239 l 247 239 l 247 247 q 244 256 247 251 l 244 256 q 237 266 241 261 l 237 266 q 227 271 231 271 l 227 271 l 222 271 l 223 272 q 218 275 223 274 l 218 275 q 206 274 217 275 l 206 274 l 205 274 q 203 275 203 274 l 203 275 z "},"?":{"ha":816,"x_min":76,"x_max":726,"o":"m 330 1057 l 330 1057 q 314 1057 323 1059 l 314 1057 l 298 1053 q 279 1046 280 1048 l 279 1046 q 271 1041 280 1043 l 271 1041 l 233 1031 q 193 1022 218 1028 l 193 1022 q 155 1002 187 1021 l 155 1002 q 127 981 141 998 l 127 981 q 109 957 109 965 l 109 957 q 102 944 109 945 l 102 944 q 93 930 96 941 l 93 930 q 87 906 93 926 l 87 906 l 88 905 q 90 900 89 903 l 90 900 q 79 893 85 898 l 79 893 q 78 893 79 893 l 78 893 q 76 891 77 893 l 76 891 q 79 893 77 892 l 79 893 q 79 871 81 891 l 79 871 l 79 870 q 95 842 91 843 l 95 842 l 96 842 l 96 845 q 111 861 104 855 l 111 861 q 121 877 115 876 l 121 877 q 184 910 157 904 l 184 910 l 189 911 q 212 916 197 913 l 212 916 l 212 914 l 212 914 l 239 920 q 244 918 240 918 l 244 918 q 258 924 258 923 l 258 924 l 257 926 l 267 930 q 329 931 306 939 l 329 931 q 372 916 347 931 l 372 916 q 392 899 379 912 l 392 899 q 412 890 407 892 l 412 890 q 412 892 412 892 l 412 892 q 409 903 410 900 l 409 903 l 409 904 q 427 891 413 905 l 427 891 q 427 891 427 891 l 427 891 q 432 881 429 891 l 432 881 q 443 869 441 873 l 443 869 l 440 861 l 441 862 q 469 844 454 865 l 469 844 q 475 819 474 833 l 475 819 q 463 780 473 787 l 463 780 q 458 776 459 779 l 458 776 q 460 769 458 775 l 460 769 l 448 749 q 439 728 448 741 l 439 728 q 426 701 440 712 l 426 701 q 399 675 404 677 l 399 675 q 388 663 399 671 l 388 663 l 382 654 l 379 654 l 353 638 q 342 629 343 629 l 342 629 l 336 628 l 302 615 q 285 614 290 614 l 285 614 q 271 606 280 612 l 271 606 q 269 606 271 606 l 269 606 l 256 606 l 254 605 l 255 604 q 248 601 251 602 l 248 601 l 231 597 q 210 597 222 595 l 210 597 q 192 598 197 597 l 192 598 l 191 598 l 176 581 l 176 580 q 178 579 176 578 l 178 579 l 178 578 q 164 566 170 569 l 164 566 q 161 536 163 562 l 161 536 q 157 517 159 536 l 157 517 l 153 512 q 155 507 154 512 l 155 507 q 155 488 155 498 l 155 488 l 156 483 q 159 472 157 473 l 159 472 q 159 472 159 472 l 159 472 q 160 472 160 472 l 160 472 q 161 471 161 472 l 161 471 l 161 458 q 168 418 165 437 l 168 418 q 176 418 172 418 l 176 418 q 176 412 176 415 l 176 412 l 176 406 q 180 391 177 392 l 180 391 q 180 391 180 391 l 180 391 q 181 391 181 391 l 181 391 q 182 389 182 391 l 182 389 q 182 372 182 375 l 182 372 q 195 338 186 347 l 195 338 q 211 321 210 323 l 211 321 q 228 302 214 313 l 228 302 q 249 296 237 294 l 249 296 q 250 296 250 296 l 250 296 q 250 296 250 296 l 250 296 q 245 293 250 295 l 245 293 l 246 292 q 288 281 266 279 l 288 281 q 302 275 289 281 l 302 275 q 342 276 315 273 l 342 276 q 342 276 342 276 l 342 276 q 346 275 342 275 l 346 275 l 347 276 q 381 292 354 277 l 381 292 q 380 299 380 296 l 380 299 q 380 301 380 300 l 380 301 l 385 302 q 387 296 386 296 l 387 296 q 388 296 388 296 l 388 296 q 405 319 399 303 l 405 319 q 410 321 410 320 l 410 321 q 410 321 410 321 l 410 321 q 408 323 408 323 l 408 323 q 418 353 419 345 l 418 353 l 418 357 q 409 389 414 389 l 409 389 q 408 389 408 389 l 408 389 q 394 408 404 391 l 394 408 q 391 410 392 410 l 391 410 q 389 408 389 408 l 389 408 q 349 414 367 418 l 349 414 l 347 414 q 327 401 326 407 l 327 401 q 325 398 326 399 l 325 398 l 321 398 l 319 397 q 307 366 307 378 l 307 366 l 307 363 q 313 348 310 357 l 313 348 q 334 340 313 342 l 334 340 l 338 340 l 339 342 q 329 351 330 352 l 329 351 q 328 351 329 351 l 328 351 q 323 366 326 351 l 323 366 q 342 387 335 385 l 342 387 q 352 394 342 389 l 352 394 q 363 391 355 395 l 363 391 q 363 385 362 388 l 363 385 q 384 372 377 384 l 384 372 q 391 354 391 361 l 391 354 q 372 321 391 337 l 372 321 q 355 313 357 314 l 355 313 q 351 314 353 314 l 351 314 l 335 307 l 334 305 q 308 311 329 309 l 308 311 l 291 315 l 290 313 q 290 313 290 313 l 290 313 q 284 321 289 312 l 284 321 q 257 345 274 319 l 257 345 l 257 357 l 252 356 q 250 371 250 363 l 250 371 l 250 372 q 251 380 250 375 l 251 380 q 248 383 250 380 l 248 383 l 248 397 l 247 412 q 251 419 247 416 l 251 419 q 258 461 258 452 l 258 461 l 258 462 l 262 461 l 263 461 q 275 473 268 470 l 275 473 q 279 479 275 476 l 279 479 q 286 479 284 479 l 286 479 l 292 481 q 293 479 292 479 l 293 479 q 295 479 294 478 l 295 479 q 301 483 300 483 l 301 483 q 328 480 308 483 l 328 480 l 328 480 q 331 485 329 481 l 331 485 q 340 488 334 486 l 340 488 q 356 488 349 486 l 356 488 l 360 489 q 399 506 395 505 l 399 506 q 517 554 505 547 l 517 554 q 525 559 520 558 l 525 559 q 532 560 529 559 l 532 560 q 562 589 535 561 l 562 589 q 594 616 585 612 l 594 616 l 597 616 q 598 616 598 616 l 598 616 q 598 615 598 616 l 598 615 l 598 614 q 597 605 597 606 l 597 605 q 627 643 623 631 l 627 643 q 642 664 633 659 l 642 664 q 665 679 654 669 l 665 679 q 690 725 671 688 l 690 725 q 705 764 705 749 l 705 764 q 712 773 706 772 l 712 773 q 718 783 716 776 l 718 783 q 721 800 719 785 l 721 800 q 720 810 720 806 l 720 810 q 726 818 720 811 l 726 818 q 724 833 724 830 l 724 833 q 725 838 726 837 l 725 838 l 725 842 q 718 850 718 847 l 718 850 l 718 851 q 724 869 724 867 l 724 869 q 718 870 718 870 l 718 870 l 718 882 l 718 882 q 723 881 720 880 l 723 881 l 723 882 q 713 899 713 891 l 713 899 q 717 913 717 912 l 717 913 q 700 934 715 921 l 700 934 q 696 942 696 940 l 696 942 l 696 944 q 698 960 698 958 l 698 960 q 670 987 697 976 l 670 987 q 648 1007 663 993 l 648 1007 q 601 1024 637 1013 l 601 1024 l 600 1025 q 605 1029 605 1028 l 605 1029 l 605 1029 l 573 1047 q 565 1050 569 1051 l 565 1050 l 551 1046 q 481 1065 532 1056 l 481 1065 q 444 1067 450 1065 l 444 1067 q 447 1072 444 1068 l 447 1072 l 447 1073 q 447 1074 447 1073 l 447 1074 q 431 1074 446 1076 l 431 1074 q 418 1069 420 1069 l 418 1069 l 417 1072 q 404 1067 406 1067 l 404 1067 q 340 1059 366 1057 l 340 1059 l 338 1059 q 330 1057 330 1057 z m 300 79 l 300 79 q 303 61 300 74 l 303 61 q 307 47 303 58 l 307 47 q 309 45 307 47 l 309 45 q 314 41 309 44 l 314 41 l 321 38 l 323 37 l 321 37 q 333 33 330 33 l 333 33 l 337 33 l 340 31 l 341 31 l 345 30 q 347 31 345 31 l 347 31 l 347 31 q 357 35 353 31 l 357 35 q 366 37 362 35 l 366 37 q 370 40 369 37 l 370 40 q 374 45 372 43 l 374 45 q 384 47 380 46 l 384 47 q 391 52 388 47 l 391 52 q 404 63 395 55 l 404 63 q 410 75 408 70 l 410 75 q 410 80 410 77 l 410 80 l 410 81 q 414 95 410 82 l 414 95 q 417 114 416 108 l 417 114 q 418 121 418 119 l 418 121 l 418 123 q 416 131 418 125 l 416 131 l 414 135 q 416 138 416 135 l 416 138 l 414 148 q 413 151 413 149 l 413 151 l 413 153 q 406 168 413 158 l 406 168 q 401 170 405 170 l 401 170 q 401 170 401 170 l 401 170 l 404 173 q 399 178 404 174 l 399 178 q 398 182 398 180 l 398 182 q 394 189 395 186 l 394 189 q 374 205 379 205 l 374 205 q 368 204 373 205 l 368 204 l 367 204 l 368 207 q 363 209 363 207 l 363 209 q 357 212 359 212 l 357 212 q 353 212 354 212 l 353 212 q 347 214 351 212 l 347 214 l 345 214 q 343 212 344 212 l 343 212 l 340 212 l 338 212 l 321 212 q 319 212 321 212 l 319 212 l 317 212 l 315 212 q 307 209 314 212 l 307 209 l 303 209 q 288 205 300 209 l 288 205 q 285 205 285 205 l 285 205 l 288 203 l 288 202 q 282 203 283 203 l 282 203 q 265 197 279 203 l 265 197 q 254 191 260 197 l 254 191 l 254 190 l 254 189 q 254 186 254 189 l 254 186 q 254 185 254 185 q 252 186 253 185 l 252 186 q 241 182 247 186 l 241 182 q 227 168 235 177 l 227 168 q 225 164 226 167 l 225 164 l 224 165 l 222 165 q 218 157 220 161 l 218 157 l 218 155 q 215 151 218 153 l 215 151 q 212 145 212 146 l 212 145 q 216 139 215 142 l 216 139 q 213 136 213 138 l 213 136 l 213 135 q 210 138 212 138 l 210 138 q 210 133 210 138 l 210 133 l 210 120 q 206 116 210 117 l 206 116 q 205 115 206 115 l 205 115 q 205 117 205 117 l 205 117 q 203 113 203 115 l 203 113 l 203 96 q 203 90 203 92 l 203 90 q 206 87 203 89 l 206 87 q 205 86 206 86 l 205 86 l 203 86 l 203 84 q 205 77 203 81 l 205 77 q 206 73 205 74 l 206 73 q 212 62 210 63 l 212 62 l 212 61 l 213 62 l 214 62 q 216 54 215 60 l 216 54 q 222 43 218 45 l 222 43 q 230 35 224 42 l 230 35 q 238 24 235 28 l 238 24 q 240 25 238 25 l 240 25 q 254 17 243 25 l 254 17 l 256 16 l 254 16 l 254 16 q 264 10 264 13 l 264 10 q 271 7 265 10 l 271 7 q 281 3 279 3 l 281 3 l 284 3 q 290 1 289 1 l 290 1 l 291 1 l 294 1 q 304 1 298 1 l 304 1 q 338 9 321 1 l 338 9 q 342 12 341 10 l 342 12 q 347 14 345 13 l 347 14 q 357 22 355 17 l 357 22 q 337 16 345 16 l 337 16 q 323 14 332 14 l 323 14 q 312 16 321 14 l 312 16 q 296 20 309 17 l 296 20 l 294 20 l 298 22 q 283 26 289 24 l 283 26 q 279 30 282 28 l 279 30 l 275 33 l 275 35 l 272 38 q 265 52 267 45 l 265 52 l 265 54 l 264 54 l 264 52 q 262 68 262 52 l 262 68 l 262 73 q 262 74 262 73 l 262 74 q 260 77 260 75 l 260 77 q 262 80 260 77 l 262 80 l 263 81 l 262 83 q 263 88 262 87 l 263 88 q 267 95 264 90 l 267 95 q 269 98 268 96 l 269 98 l 269 100 q 271 101 269 101 l 271 101 l 271 102 l 270 104 q 276 110 270 104 l 276 110 q 282 116 279 116 l 282 116 q 286 114 284 116 l 286 114 q 291 119 289 119 l 291 119 q 294 121 292 119 l 294 121 q 304 125 298 123 l 304 125 q 313 126 313 125 l 313 126 l 316 129 q 318 127 317 129 l 318 127 l 325 127 q 328 128 326 127 l 328 128 q 328 126 328 126 l 328 126 q 335 128 332 128 l 335 128 q 341 127 336 128 l 341 127 q 342 126 342 127 l 342 126 l 340 123 q 345 119 343 123 l 345 119 l 345 117 q 350 115 345 117 l 350 115 q 351 113 351 113 l 351 113 l 353 114 l 354 110 q 357 105 356 109 l 357 105 q 358 99 358 101 l 358 99 q 357 98 358 98 l 357 98 q 359 94 359 96 l 359 94 l 359 92 q 361 83 359 90 l 361 83 q 362 80 362 82 l 362 80 q 360 74 362 79 l 360 74 l 360 73 q 361 72 360 72 l 361 72 l 361 71 l 360 68 l 359 68 l 357 64 q 345 61 353 62 l 345 61 l 342 61 q 332 63 332 62 l 332 63 l 323 69 q 319 72 319 71 l 319 72 l 319 73 q 314 77 319 73 l 314 77 l 313 77 l 313 77 q 314 79 314 78 l 314 79 l 314 80 q 312 79 313 80 l 312 79 l 312 82 q 309 91 309 86 l 309 91 q 311 98 309 95 l 311 98 q 314 100 312 98 l 314 100 l 314 101 q 301 95 303 96 l 301 95 l 303 94 q 300 87 300 88 l 300 87 l 298 84 q 300 80 300 81 l 300 80 q 300 79 300 79 z m 215 394 l 216 399 q 218 399 217 399 l 218 399 l 219 399 q 216 396 219 397 l 216 396 l 215 394 z "},"A":{"ha":1041,"x_min":0,"x_max":1044,"o":"m 539 1021 l 530 1021 q 518 1009 524 1021 l 518 1009 q 495 949 501 962 l 495 949 q 479 930 479 932 l 479 930 l 486 894 q 481 892 481 893 l 481 892 q 459 884 459 890 l 459 884 q 454 854 457 861 l 454 854 q 457 848 454 852 l 457 848 l 457 846 q 454 838 457 844 l 454 838 l 453 838 l 449 838 q 425 786 442 838 l 425 786 q 406 728 416 744 l 406 728 q 357 643 365 659 l 357 643 q 330 576 344 622 l 330 576 q 339 566 330 575 l 339 566 q 292 508 306 532 l 292 508 q 250 414 250 427 l 250 414 q 251 412 250 414 l 251 412 q 256 414 253 412 l 256 414 l 256 414 q 254 406 256 410 l 254 406 q 239 396 253 405 l 239 396 q 224 359 228 368 l 224 359 q 192 310 192 315 l 192 310 l 195 305 l 195 304 q 193 295 195 302 l 193 295 l 193 293 q 194 286 193 290 l 194 286 q 177 269 194 279 l 177 269 q 174 270 176 270 l 174 270 l 130 167 q 113 147 130 159 l 113 147 q 85 96 98 129 l 85 96 q 71 85 75 90 l 71 85 l 48 35 q 0 -3 42 29 l 0 -3 q 1 -5 0 -5 l 1 -5 l 52 -5 q 71 2 64 2 l 71 2 q 94 1 91 1 l 94 1 q 121 19 113 1 l 121 19 q 142 12 139 15 l 142 12 q 142 3 142 9 l 142 3 q 171 1 142 1 l 171 1 l 186 1 q 196 4 196 1 l 196 4 q 209 8 196 8 l 209 8 l 217 8 l 219 7 q 217 3 217 5 l 217 3 l 218 1 q 229 1 225 1 l 229 1 q 279 1 259 1 l 279 1 l 308 1 l 309 2 q 301 31 304 28 l 301 31 q 291 40 291 39 l 291 40 q 285 51 285 40 l 285 51 l 285 59 q 306 123 294 123 l 306 123 q 322 182 311 123 l 322 182 q 340 211 322 197 l 340 211 q 355 233 350 227 l 355 233 q 367 239 355 239 l 367 239 l 386 239 q 413 232 409 232 l 413 232 q 423 235 421 233 l 423 235 q 482 239 433 239 l 482 239 q 499 238 492 239 l 499 238 l 499 237 q 496 222 496 223 l 496 222 q 498 220 496 220 l 498 220 l 500 220 q 534 228 530 226 l 534 228 q 546 238 542 238 l 546 238 l 551 238 q 594 232 557 238 l 594 232 l 624 238 l 630 238 q 648 226 644 226 l 648 226 q 670 180 652 224 l 670 180 q 702 123 681 154 l 702 123 q 718 61 718 76 l 718 61 l 718 59 q 704 3 718 45 l 704 3 q 705 1 704 1 l 705 1 l 794 1 l 798 2 q 804 8 798 7 l 804 8 l 809 8 q 827 7 821 8 l 827 7 q 838 8 837 8 l 838 8 q 894 7 874 7 l 894 7 q 916 14 902 7 l 916 14 q 926 10 920 13 l 926 10 q 949 -6 939 -6 l 949 -6 l 952 -6 q 978 -5 954 -6 l 978 -5 l 983 -5 l 1041 -11 l 1042 -11 l 1044 -10 l 1042 -6 l 1010 24 q 984 60 989 60 l 984 60 q 943 123 975 71 l 943 123 q 922 165 932 151 l 922 165 q 892 224 892 205 l 892 224 l 892 228 q 897 235 892 233 l 897 235 q 903 232 899 235 l 903 232 q 869 297 895 252 l 869 297 q 826 353 826 347 l 826 353 l 825 353 q 821 348 823 353 l 821 348 l 820 348 q 816 379 817 348 l 816 379 q 779 471 816 406 l 779 471 q 755 517 757 507 l 755 517 q 748 546 748 530 l 748 546 q 737 604 741 595 l 737 604 q 720 616 737 610 l 720 616 q 710 623 715 623 l 710 623 q 694 657 703 623 l 694 657 q 680 694 683 681 l 680 694 q 676 692 676 693 l 676 692 q 667 688 667 690 l 667 688 l 665 688 q 652 732 661 688 l 652 732 q 654 735 654 735 l 654 735 l 661 735 q 668 742 667 735 l 668 742 q 655 765 665 749 l 655 765 q 629 833 636 812 l 629 833 q 611 902 618 890 l 611 902 q 589 931 589 926 l 589 931 q 568 974 571 954 l 568 974 q 539 1021 545 1015 l 539 1021 z m 496 601 l 496 601 l 497 601 q 526 547 514 577 l 526 547 q 547 473 543 484 l 547 473 q 559 456 559 463 l 559 456 q 582 359 566 412 l 582 359 l 581 359 q 559 348 562 354 l 559 348 l 554 348 q 535 360 547 349 l 535 360 l 486 355 l 484 355 q 443 361 471 361 l 443 361 l 425 361 q 401 360 410 361 l 401 360 q 403 365 402 365 l 403 365 q 427 441 403 378 l 427 441 q 442 490 437 481 l 442 490 q 451 495 448 490 l 451 495 q 470 551 465 540 l 470 551 q 496 601 477 554 z "},"B":{"ha":784,"x_min":0,"x_max":782,"o":"m 192 981 l 186 981 q 171 967 180 981 l 171 967 l 159 967 q 121 976 127 967 l 121 976 q 104 958 112 958 l 104 958 l 100 958 q 92 968 95 958 l 92 968 q 78 968 85 968 l 78 968 q 18 972 21 972 l 18 972 l 17 972 q 26 960 18 968 l 26 960 q 49 940 42 945 l 49 940 q 74 885 74 903 l 74 885 q 73 867 74 876 l 73 867 q 73 856 73 861 l 73 856 l 73 850 q 72 795 73 838 l 72 795 q 73 789 72 792 l 73 789 q 82 784 82 785 l 82 784 q 83 720 82 771 l 83 720 q 81 705 83 715 l 81 705 q 82 691 82 697 l 82 691 q 79 682 82 686 l 79 682 q 73 679 73 680 l 73 679 l 73 677 q 82 657 77 661 l 82 657 q 81 631 81 640 l 81 631 l 81 602 q 78 475 81 533 l 78 475 l 81 473 q 98 471 97 472 l 98 471 q 89 453 98 467 l 89 453 l 79 444 l 79 436 l 78 431 q 79 431 79 431 l 79 431 q 78 425 78 427 l 78 425 l 78 422 l 79 421 l 78 421 q 71 199 75 237 l 71 199 l 71 186 q 64 181 71 181 l 64 181 q 58 137 58 181 l 58 137 l 59 136 q 68 134 66 135 l 68 134 q 67 130 67 130 l 67 130 q 56 106 56 115 l 56 106 l 56 102 l 57 98 q 50 80 57 90 l 50 80 q 31 54 42 65 l 31 54 q 0 11 7 38 l 0 11 l 1 9 l 47 11 q 76 16 76 11 l 76 16 q 95 23 76 23 l 95 23 l 99 23 q 134 12 130 12 l 134 12 q 146 24 144 24 l 146 24 q 157 22 155 23 l 157 22 q 170 12 166 12 l 170 12 l 216 12 q 289 9 245 12 l 289 9 l 290 9 q 339 11 326 9 l 339 11 q 342 10 340 11 l 342 10 q 348 11 345 11 l 348 11 l 367 11 q 379 9 374 11 l 379 9 q 404 0 400 0 l 404 0 l 408 0 l 410 1 q 425 9 410 9 l 425 9 q 456 7 446 8 l 456 7 q 513 16 492 16 l 513 16 q 536 14 521 16 l 536 14 q 547 16 543 14 l 547 16 q 571 23 562 23 l 571 23 q 600 22 582 23 l 600 22 l 601 22 q 621 34 615 28 l 621 34 q 631 48 629 34 l 631 48 q 621 60 631 51 l 621 60 q 633 62 629 62 l 633 62 q 636 62 635 62 l 636 62 q 646 50 644 50 l 646 50 l 649 50 q 668 59 661 59 l 668 59 q 701 97 689 85 l 701 97 q 739 140 733 135 l 739 140 q 748 162 748 144 l 748 162 l 747 185 q 766 229 747 201 l 766 229 q 782 292 782 250 l 782 292 q 726 472 782 373 l 726 472 q 665 552 708 508 l 665 552 q 687 581 671 559 l 687 581 l 687 582 l 682 608 q 702 625 685 617 l 702 625 q 701 627 702 625 l 701 627 l 705 679 q 705 680 705 679 l 705 680 q 705 682 705 681 l 705 682 q 705 711 705 703 l 705 711 q 697 763 705 755 l 697 763 q 680 791 680 787 l 680 791 q 682 800 680 793 l 682 800 q 663 832 682 814 l 663 832 q 629 882 635 875 l 629 882 q 607 903 610 903 l 607 903 q 583 931 591 928 l 583 931 q 549 937 573 932 l 549 937 q 519 957 532 937 l 519 957 l 518 957 q 490 959 513 957 l 490 959 l 484 957 q 452 960 452 958 l 452 960 q 431 966 436 963 l 431 966 q 410 975 414 966 l 410 975 q 375 977 404 975 l 375 977 l 369 977 q 343 970 348 970 l 343 970 l 342 970 q 266 979 273 979 l 266 979 l 258 979 l 220 977 l 210 978 q 202 977 209 977 l 202 977 q 199 977 202 977 l 199 977 q 192 981 197 981 l 192 981 z m 363 841 l 363 841 l 368 842 q 372 848 371 848 l 372 848 q 408 845 388 848 l 408 845 q 431 838 429 838 l 431 838 q 441 827 441 827 l 441 827 q 469 820 458 825 l 469 820 q 496 801 490 812 l 496 801 q 511 784 503 795 l 511 784 l 519 770 q 527 755 526 755 l 527 755 l 541 719 q 547 701 547 708 l 547 701 q 552 645 550 701 l 552 645 q 548 618 552 624 l 548 618 q 538 599 545 606 l 538 599 l 538 597 q 537 588 538 591 l 537 588 l 532 588 q 530 585 530 588 l 530 585 q 508 566 524 566 l 508 566 q 499 551 503 551 l 499 551 l 490 553 q 485 546 489 553 l 485 546 q 463 539 484 542 l 463 539 l 459 539 q 448 541 449 541 l 448 541 q 433 536 440 536 l 433 536 q 407 551 419 536 l 407 551 q 397 566 400 564 l 397 566 q 399 574 398 574 l 399 574 q 418 601 407 591 l 418 601 l 418 610 l 417 612 q 399 609 410 612 l 399 609 q 388 610 395 609 l 388 610 q 360 601 382 605 l 360 601 q 343 576 354 601 l 343 576 q 334 549 343 557 l 334 549 l 334 548 q 338 525 334 545 l 338 525 l 336 511 l 336 511 q 340 501 339 507 l 340 501 q 356 485 356 490 l 356 485 q 374 473 367 474 l 374 473 q 389 462 376 473 l 389 462 q 404 450 397 450 l 404 450 q 445 444 437 449 l 445 444 q 465 452 463 452 l 465 452 q 479 452 469 452 l 479 452 q 499 463 490 463 l 499 463 q 515 467 509 467 l 515 467 l 519 467 q 541 462 535 464 l 541 462 q 554 463 549 463 l 554 463 l 555 463 q 561 461 558 463 l 561 461 q 581 434 581 453 l 581 434 q 580 429 581 432 l 580 429 q 581 428 580 428 l 581 428 q 591 394 588 420 l 591 394 l 591 391 q 591 379 591 389 l 591 379 l 591 374 l 592 366 q 591 357 591 359 l 591 357 q 594 342 594 349 l 594 342 l 594 338 q 593 328 594 334 l 593 328 q 598 315 595 328 l 598 315 l 598 309 q 579 286 598 297 l 579 286 l 580 283 q 575 267 580 273 l 575 267 q 565 249 569 251 l 565 249 q 567 239 567 241 l 567 239 q 564 227 567 231 l 564 227 q 546 197 564 209 l 546 197 q 517 166 536 182 l 517 166 q 487 151 494 155 l 487 151 q 465 142 476 142 l 465 142 q 440 137 450 137 l 440 137 l 437 137 q 435 136 436 137 l 435 136 l 433 137 q 392 138 406 138 l 392 138 l 372 138 q 346 140 359 138 l 346 140 q 292 150 332 150 l 292 150 q 290 149 291 150 l 290 149 q 289 150 290 150 l 289 150 l 285 150 q 283 192 283 169 l 283 192 l 283 248 q 279 267 279 262 l 279 267 l 279 281 l 283 281 q 290 315 290 281 l 290 315 q 289 328 289 321 l 289 328 l 289 357 q 290 363 289 359 l 290 363 q 290 365 290 363 l 290 365 q 272 373 275 370 l 272 373 q 274 380 272 374 l 274 380 l 274 398 q 280 413 280 401 l 280 413 q 279 481 279 456 l 279 481 l 279 531 l 279 533 l 273 529 l 273 529 q 269 538 270 529 l 269 538 q 271 564 269 544 l 271 564 q 273 566 272 566 l 273 566 q 281 574 281 568 l 281 574 q 290 592 290 585 l 290 592 q 289 623 289 611 l 289 623 l 289 634 q 288 643 289 640 l 288 643 q 279 688 279 682 l 279 688 q 282 728 279 703 l 282 728 q 289 776 289 772 l 289 776 q 298 805 298 776 l 298 805 l 298 824 q 297 843 298 830 l 297 843 l 334 843 q 363 841 338 843 z "},"C":{"ha":781,"x_min":3,"x_max":780,"o":"m 515 963 l 503 964 q 475 965 492 964 l 475 965 q 466 960 471 962 l 466 960 q 452 961 462 960 l 452 961 q 444 954 449 960 l 444 954 q 421 949 437 947 l 421 949 l 416 949 l 411 950 l 406 956 l 403 957 q 391 951 395 951 l 391 951 l 386 951 q 362 954 377 952 l 362 954 q 359 952 359 954 l 359 952 l 360 950 l 360 947 q 353 945 353 946 l 353 945 q 332 941 332 943 l 332 941 l 332 939 l 332 936 l 332 936 q 329 937 330 936 l 329 937 l 326 936 q 327 925 327 928 l 327 925 l 327 924 q 323 922 327 922 l 323 922 l 310 925 l 311 928 q 309 930 309 930 l 309 930 l 308 930 q 276 920 298 931 l 276 920 q 201 867 235 896 l 201 867 l 182 867 q 89 768 106 787 l 89 768 l 68 734 q 31 679 32 696 l 31 679 q 32 644 32 656 l 32 644 q 28 623 32 631 l 28 623 q 10 583 10 602 l 10 583 q 11 577 10 581 l 11 577 q 18 574 18 576 l 18 574 l 18 572 l 18 570 l 16 570 q 7 573 8 573 l 7 573 l 6 573 q 3 566 4 573 l 3 566 q 5 532 3 557 l 5 532 l 5 530 l 9 533 l 11 533 q 12 515 12 519 l 12 515 q 5 507 12 512 l 5 507 l 5 504 q 12 481 12 485 l 12 481 l 12 475 q 4 459 4 463 l 4 459 l 5 448 q 4 426 5 447 l 4 426 l 4 423 q 5 420 4 422 l 5 420 q 12 411 12 414 l 12 411 q 11 395 12 408 l 11 395 q 16 368 11 389 l 16 368 q 24 352 19 355 l 24 352 q 34 324 34 351 l 34 324 q 71 237 34 318 l 71 237 q 94 201 76 219 l 94 201 q 121 186 119 189 l 121 186 q 143 140 133 159 l 143 140 q 194 85 184 86 l 194 85 l 195 85 l 195 89 q 168 132 185 105 l 168 132 l 170 134 q 247 56 177 133 l 247 56 l 252 56 q 265 52 265 55 l 265 52 q 420 7 286 42 l 420 7 q 457 -5 453 -5 l 457 -5 l 465 -5 q 471 -5 468 -5 l 471 -5 q 490 0 484 0 l 490 0 l 490 -1 q 515 -3 492 -1 l 515 -3 l 517 -3 q 525 -3 522 -4 l 525 -3 q 536 4 528 5 l 536 4 l 538 4 q 549 -5 543 3 l 549 -5 q 555 7 551 -5 l 555 7 q 654 14 610 12 l 654 14 q 741 52 730 46 l 741 52 q 772 65 770 61 l 772 65 l 772 121 q 773 125 772 123 l 773 125 q 779 135 779 134 l 779 135 q 772 153 772 151 l 772 153 q 773 159 773 157 l 773 159 q 779 181 779 179 l 779 181 q 780 212 779 194 l 780 212 q 779 233 779 226 l 779 233 l 779 234 l 778 234 q 747 204 747 205 l 747 204 q 732 186 732 195 l 732 186 q 732 178 732 182 l 732 178 l 732 174 l 733 173 l 732 172 l 720 174 q 711 181 713 180 l 711 181 l 709 181 q 691 175 705 181 l 691 175 q 683 170 690 169 l 683 170 l 682 170 q 669 172 674 170 l 669 172 q 663 170 665 170 l 663 170 q 651 157 656 159 l 651 157 q 572 132 575 132 l 572 132 l 553 133 l 550 132 q 548 134 550 133 l 548 134 l 541 134 q 532 136 537 134 l 532 136 l 532 140 q 531 141 532 141 l 531 141 l 526 141 q 513 136 518 136 l 513 136 l 509 137 q 453 159 476 156 l 453 159 q 449 159 452 160 l 449 159 q 449 157 449 158 l 449 157 q 433 153 447 153 l 433 153 q 405 156 422 155 l 405 156 l 385 174 q 351 194 377 180 l 351 194 q 347 193 348 193 q 343 198 347 193 l 343 198 q 328 220 343 205 l 328 220 q 312 242 319 237 l 312 242 q 274 288 282 273 l 274 288 q 261 327 261 302 l 261 327 l 261 328 q 248 364 252 349 l 248 364 q 226 447 226 436 l 226 447 q 229 452 226 452 l 229 452 q 235 460 235 454 l 235 460 l 235 470 q 233 471 235 471 l 233 471 l 232 471 l 229 470 q 227 473 228 470 l 227 473 q 229 494 227 479 l 229 494 q 222 505 229 500 l 222 505 q 215 522 215 506 l 215 522 l 215 541 l 216 546 q 222 549 222 547 l 222 549 l 222 581 l 225 581 l 226 581 q 229 584 227 581 l 229 584 q 228 590 228 587 l 228 590 l 228 594 q 229 597 228 596 l 229 597 q 248 616 233 600 l 248 616 q 261 680 250 621 l 261 680 q 277 713 261 686 l 277 713 q 300 741 296 739 l 300 741 q 300 730 300 732 l 300 730 q 298 718 300 722 l 298 718 q 287 697 292 719 l 287 697 q 288 696 288 697 l 288 696 l 292 699 q 331 751 319 728 l 331 751 q 404 818 356 798 l 404 818 q 415 824 409 825 l 415 824 l 419 824 q 438 815 432 816 l 438 815 q 445 816 439 815 l 445 816 l 445 818 l 444 820 l 444 821 l 445 823 q 469 832 469 828 l 469 832 q 473 840 470 840 l 473 840 q 474 840 473 840 l 474 840 l 477 840 q 494 840 486 840 l 494 840 q 505 836 505 839 l 505 836 l 504 831 q 523 824 504 828 l 523 824 q 530 829 530 824 l 530 829 l 569 827 q 570 828 570 827 l 570 828 q 569 832 570 830 l 569 832 l 569 833 l 574 833 q 587 832 580 832 l 587 832 q 593 829 589 832 l 593 829 q 607 823 593 824 l 607 823 q 623 813 611 817 l 623 813 q 689 790 671 800 l 689 790 q 758 735 707 787 l 758 735 l 760 736 q 759 761 760 743 l 759 761 l 760 762 q 764 760 761 762 l 764 760 q 767 764 766 760 l 767 764 q 766 789 767 777 l 766 789 q 767 804 767 797 l 767 804 l 766 807 q 759 817 759 812 l 759 817 q 760 888 760 861 l 760 888 l 760 905 q 745 918 758 909 l 745 918 q 694 936 727 927 l 694 936 q 663 926 677 924 l 663 926 l 663 926 q 657 943 659 926 l 657 943 q 624 950 657 945 l 624 950 q 605 950 613 949 l 605 950 l 586 951 q 531 954 566 953 l 531 954 q 525 959 525 956 q 515 963 525 962 l 515 963 z "},"D":{"ha":858,"x_min":0,"x_max":860,"o":"m 11 972 l 1 972 l 0 971 q 39 932 3 954 l 39 932 q 52 905 47 926 l 52 905 q 54 888 52 888 l 54 888 q 59 873 59 888 l 59 873 q 58 779 58 793 l 58 779 l 58 778 q 64 766 64 770 l 64 766 l 64 743 l 63 739 q 66 726 64 729 l 66 726 q 77 699 77 714 l 77 699 q 76 666 76 678 l 76 666 q 68 633 68 640 l 68 633 q 71 593 71 595 l 71 593 l 70 589 q 71 589 70 589 l 71 589 q 79 562 71 572 l 79 562 q 87 545 87 555 l 87 545 l 87 538 q 81 522 81 528 l 81 522 l 81 517 q 82 503 81 511 l 82 503 q 76 487 76 489 l 76 487 l 76 485 q 82 465 82 470 l 82 465 l 82 402 q 81 394 82 399 l 81 394 q 68 377 68 380 l 68 377 q 70 356 70 363 l 70 356 q 71 252 70 326 l 71 252 q 64 243 64 245 l 64 243 l 64 240 l 65 237 q 77 216 77 227 l 77 216 q 76 181 77 202 l 76 181 q 77 140 77 149 l 77 140 q 76 129 77 136 l 76 129 q 63 104 66 111 l 63 104 q 50 54 59 71 l 50 54 q 12 7 50 46 l 12 7 l 12 6 l 31 6 q 40 5 36 6 l 40 5 q 57 0 54 0 l 57 0 l 58 0 q 100 6 90 6 l 100 6 l 144 6 q 150 5 147 6 l 150 5 q 159 0 156 0 l 159 0 l 160 0 q 163 5 163 1 l 163 5 q 185 18 180 18 l 185 18 q 212 18 201 18 l 212 18 l 215 18 q 222 17 219 18 l 222 17 q 271 9 245 9 l 271 9 q 331 0 284 9 l 331 0 l 332 0 q 389 12 377 12 l 389 12 q 448 19 439 12 l 448 19 q 479 41 463 41 l 479 41 q 484 39 481 41 l 484 39 q 491 29 484 29 l 491 29 l 492 29 q 495 31 494 31 l 495 31 q 517 47 506 47 l 517 47 l 522 47 q 534 41 529 41 l 534 41 l 538 41 q 587 62 574 54 l 587 62 q 645 94 602 75 l 645 94 q 671 105 671 100 l 671 105 q 698 141 682 127 l 698 141 q 722 153 698 146 l 722 153 q 746 167 741 157 l 746 167 q 806 246 798 229 l 806 246 q 817 289 814 281 l 817 289 q 829 331 825 326 l 829 331 q 849 361 849 353 l 849 361 q 848 370 849 366 l 848 370 q 842 384 842 379 l 842 384 l 842 391 l 843 400 l 845 400 q 852 393 852 395 l 852 393 l 854 393 l 854 412 l 860 431 l 860 474 q 859 495 860 481 l 859 495 q 854 507 854 500 l 854 507 q 854 524 854 513 l 854 524 q 854 541 854 534 l 854 541 l 854 543 q 860 555 860 553 l 860 555 l 860 555 q 856 576 860 567 l 856 576 q 842 606 842 600 l 842 606 q 818 694 833 666 l 818 694 q 801 722 801 718 l 801 722 q 803 733 803 730 l 803 733 l 803 734 q 785 747 803 740 l 785 747 q 771 762 781 756 l 771 762 l 770 762 l 768 760 q 749 787 762 765 l 749 787 q 706 835 734 819 l 706 835 q 666 870 666 861 l 666 870 q 667 882 666 873 l 667 882 q 666 884 667 884 l 666 884 l 665 884 q 661 883 663 884 l 661 883 l 652 885 l 651 885 q 635 867 645 880 l 635 867 q 623 854 631 854 l 623 854 q 621 854 622 854 l 621 854 l 621 866 q 614 870 621 867 l 614 870 l 614 872 q 626 895 619 892 l 626 895 l 626 897 l 624 899 q 551 931 620 903 l 551 931 q 491 955 503 955 l 491 955 q 471 954 473 954 l 471 954 q 454 956 462 954 l 454 956 q 409 967 433 967 l 409 967 q 357 966 401 967 l 357 966 q 326 966 350 966 l 326 966 q 300 960 323 966 l 300 960 q 294 961 300 960 l 294 961 q 286 972 294 972 l 286 972 l 150 972 q 138 966 142 972 l 138 966 q 112 959 135 959 l 112 959 q 102 962 105 959 l 102 962 q 100 972 101 970 l 100 972 q 85 971 92 972 l 85 971 q 11 972 43 972 l 11 972 z m 298 843 l 298 843 q 321 844 309 843 l 321 844 q 418 832 370 844 l 418 832 q 505 787 458 827 l 505 787 q 529 779 510 781 l 529 779 q 561 747 538 778 l 561 747 l 585 702 l 614 702 q 613 699 614 700 l 613 699 q 614 672 614 682 l 614 672 l 614 661 q 608 645 608 647 l 608 645 q 612 640 608 640 l 612 640 q 618 617 614 640 l 618 617 q 640 527 640 541 l 640 527 q 637 503 639 515 l 637 503 q 625 446 625 454 l 625 446 l 627 411 q 624 400 625 402 l 624 400 l 623 401 q 620 397 621 401 l 620 397 q 621 377 620 389 l 621 377 q 614 363 621 373 l 614 363 q 603 342 606 357 l 603 342 q 593 299 598 299 l 593 299 q 551 237 552 247 l 551 237 q 538 218 548 224 l 538 218 q 513 210 520 215 l 513 210 q 455 178 494 191 l 455 178 q 420 163 433 168 l 420 163 q 401 165 406 165 l 401 165 l 400 165 q 355 152 360 152 l 355 152 q 332 153 342 153 l 332 153 q 321 146 324 153 l 321 146 l 315 146 q 307 153 311 153 l 307 153 l 298 153 l 293 152 l 293 155 q 294 165 293 159 l 294 165 q 287 186 294 169 l 287 186 q 288 195 287 188 l 288 195 l 288 195 l 280 218 q 287 237 280 229 l 287 237 l 287 239 q 288 250 287 243 l 288 250 q 281 268 281 266 l 281 268 l 281 273 q 288 290 288 287 l 288 290 q 287 339 287 323 l 287 339 l 287 393 l 281 398 l 281 399 q 287 425 281 406 l 287 425 l 287 445 q 286 475 287 456 l 286 475 q 280 488 280 484 l 280 488 q 281 511 281 502 l 281 511 l 281 526 l 280 529 q 281 532 281 529 l 281 532 l 281 536 q 275 549 281 538 l 275 549 q 277 560 275 553 l 277 560 q 293 594 293 591 l 293 594 l 293 596 q 291 598 293 597 l 291 598 q 280 606 280 598 l 280 606 l 280 610 q 281 626 280 621 l 281 626 q 280 643 280 633 l 280 643 l 280 652 q 281 656 280 654 l 281 656 q 287 665 287 663 l 287 665 l 287 667 q 275 684 275 677 l 275 684 l 275 684 q 277 690 275 687 l 277 690 q 287 702 287 696 l 287 702 l 287 824 q 294 837 287 831 l 294 837 q 298 843 296 843 z "},"E":{"ha":701,"x_min":-6,"x_max":712,"o":"m 105 979 l 105 979 l 94 979 q 85 974 86 974 l 85 974 q 29 975 62 974 l 29 975 q -6 971 -6 974 l -6 971 l 30 930 q 45 901 41 901 l 45 901 l 62 817 q 56 770 62 785 l 56 770 q 62 733 62 739 l 62 733 q 59 705 59 709 l 59 705 q 63 699 63 701 l 63 699 l 63 697 q 61 631 63 657 l 61 631 q 69 626 69 631 l 69 626 l 69 598 q 71 594 69 595 l 71 594 q 56 555 71 580 l 56 555 q 58 542 58 544 l 58 542 l 58 517 q 59 470 58 499 l 59 470 q 56 445 57 460 l 56 445 q 58 429 57 434 l 58 429 q 56 402 56 408 l 56 402 q 58 386 56 393 l 58 386 q 68 341 68 365 l 68 341 q 67 324 68 338 l 67 324 l 56 321 q 58 258 58 286 l 58 258 l 58 237 q 52 182 58 214 l 52 182 l 52 181 q 58 110 58 162 l 58 110 l 45 49 q 31 20 39 42 l 31 20 q -5 -35 24 8 l -5 -35 q -5 -35 -5 -35 l -5 -35 q 64 -23 10 -35 l 64 -23 q 70 -24 68 -24 l 70 -24 q 81 -21 74 -24 l 81 -21 q 86 -24 83 -24 l 86 -24 l 87 -24 q 104 -18 99 -24 l 104 -18 q 137 -12 130 -16 l 137 -12 q 157 -6 157 -9 l 157 -6 q 161 -8 158 -6 l 161 -8 q 220 -1 178 -7 l 220 -1 q 222 -4 222 -3 l 222 -4 q 283 0 281 0 l 283 0 l 302 9 q 334 7 304 9 l 334 7 l 404 7 l 406 8 l 406 7 l 410 8 l 449 8 q 451 6 451 7 l 451 6 q 490 5 478 5 l 490 5 l 509 5 q 521 5 514 5 l 521 5 q 522 5 521 5 l 522 5 q 524 5 523 5 l 524 5 l 545 5 q 593 3 570 5 l 593 3 q 593 4 593 4 l 593 4 q 600 -1 593 3 l 600 -1 q 604 0 602 -1 l 604 0 q 606 -1 604 -1 l 606 -1 l 610 -1 q 624 -1 614 -1 l 624 -1 q 625 -1 624 -1 l 625 -1 l 625 -1 q 659 -2 648 -2 l 659 -2 l 672 -2 l 673 -1 q 673 25 673 -1 l 673 25 q 674 61 673 40 l 674 61 q 681 72 681 70 l 681 72 l 681 98 l 680 106 q 681 111 681 106 l 681 111 l 681 113 l 680 117 q 681 117 681 117 l 681 117 q 675 127 681 122 l 675 127 q 675 147 675 129 l 675 147 l 675 149 q 690 186 682 149 l 690 186 q 696 209 696 201 l 696 209 l 696 218 l 694 218 q 675 209 677 209 l 675 209 q 591 165 592 165 l 591 165 l 588 165 q 575 163 582 165 l 575 163 l 564 167 l 558 167 q 546 161 547 161 l 546 161 q 473 159 534 161 l 473 159 q 460 160 472 159 l 460 160 q 443 166 453 160 l 443 166 q 425 157 430 157 l 425 157 l 423 157 q 416 160 419 160 l 416 160 q 404 159 405 159 l 404 159 q 359 153 398 159 l 359 153 l 344 153 l 342 151 q 342 153 342 153 l 342 153 l 332 153 q 309 157 309 153 l 309 157 q 271 153 276 153 l 271 153 l 271 153 q 271 250 271 235 l 271 250 q 271 251 271 251 l 271 251 q 263 269 263 254 l 263 269 l 263 270 q 280 304 263 290 l 280 304 l 280 304 q 273 379 280 327 l 273 379 l 273 380 q 274 389 273 384 l 274 389 q 264 413 271 404 l 264 413 q 269 453 264 425 l 269 453 l 332 455 q 338 448 338 449 l 338 448 q 413 451 402 451 l 413 451 q 425 459 420 454 l 425 459 q 439 457 429 457 l 439 457 l 440 457 q 473 459 467 459 l 473 459 l 475 459 q 486 451 478 459 l 486 451 l 512 451 q 517 453 515 453 l 517 453 l 519 453 q 579 430 523 453 l 579 430 l 580 430 l 580 431 q 577 443 580 433 l 577 443 q 559 480 559 478 l 559 480 q 604 507 559 486 l 604 507 q 612 503 609 505 l 612 503 q 624 509 618 503 l 624 509 q 673 537 671 531 l 673 537 q 658 546 673 538 l 658 546 q 612 572 616 571 l 612 572 q 606 570 611 572 l 606 570 q 560 595 598 573 l 560 595 q 578 642 566 614 l 578 642 q 578 642 578 642 l 578 642 q 515 619 561 642 l 515 619 q 405 622 453 622 l 405 622 q 399 623 404 622 l 399 623 q 359 612 395 623 l 359 612 l 351 612 q 340 614 347 612 l 340 614 l 330 614 q 298 617 321 614 l 298 617 q 293 620 298 620 l 293 620 q 279 617 282 620 l 279 617 l 269 617 q 271 651 271 637 l 271 651 l 271 652 q 259 667 260 663 l 259 667 q 262 685 259 670 l 262 685 q 271 688 271 688 l 271 688 l 271 690 q 271 690 271 690 l 271 690 l 271 750 q 267 758 271 753 l 267 758 l 267 764 q 270 818 267 801 l 270 818 q 302 821 270 820 l 302 821 q 348 819 327 820 l 348 819 l 350 819 q 432 825 354 825 l 432 825 l 437 825 l 441 825 q 450 818 441 818 l 450 818 l 451 819 q 459 818 458 818 l 459 818 q 469 822 465 818 l 469 822 l 469 822 q 476 821 473 822 l 476 821 q 489 814 488 814 l 489 814 q 492 815 490 814 l 492 815 q 529 821 498 821 l 529 821 l 587 821 q 598 817 589 821 l 598 817 l 603 817 q 616 819 612 819 l 616 819 l 626 819 q 711 769 632 817 l 711 769 q 712 770 712 769 l 712 770 l 712 779 q 709 796 712 787 l 709 796 q 701 832 707 803 l 701 832 q 698 839 698 837 l 698 839 l 698 855 q 700 859 698 859 l 700 859 q 705 911 704 859 l 705 911 q 700 920 700 918 l 700 920 l 700 940 q 702 975 700 956 l 702 975 l 701 976 l 691 976 q 680 977 683 976 l 680 977 q 668 976 674 976 l 668 976 l 648 976 q 640 972 644 976 l 640 972 q 639 972 639 972 l 639 972 q 620 972 631 972 l 620 972 q 561 972 571 972 l 561 972 q 509 972 556 972 l 509 972 q 507 970 509 970 l 507 970 l 420 970 q 354 968 412 970 l 354 968 q 331 976 351 968 l 331 976 l 258 976 l 255 974 l 183 974 l 179 972 q 174 974 177 972 l 174 974 l 168 974 l 139 977 q 119 976 129 976 l 119 976 l 113 976 q 105 979 113 979 z "},"F":{"ha":691,"x_min":0,"x_max":698,"o":"m 117 979 l 102 979 q 92 973 95 973 l 92 973 q 90 974 91 974 l 90 974 l 77 974 q 71 973 73 974 l 71 973 q 63 974 66 974 l 63 974 l 36 974 q 0 971 11 974 l 0 971 q 20 947 6 962 l 20 947 q 43 924 39 924 l 43 924 q 52 913 47 924 l 52 913 q 60 899 60 901 l 60 899 l 60 895 l 60 891 q 66 876 60 890 l 66 876 q 71 844 66 863 l 71 844 q 64 766 71 785 l 64 766 l 64 764 q 71 699 71 736 l 71 699 q 69 627 71 666 l 69 627 q 80 623 69 625 l 80 623 q 81 611 81 612 l 81 611 q 78 580 81 596 l 78 580 q 68 543 68 557 l 68 543 q 71 517 69 528 l 71 517 q 68 507 68 513 l 68 507 l 68 494 q 71 477 68 486 l 71 477 q 68 424 68 440 l 68 424 l 68 406 q 66 393 68 401 l 66 393 q 84 360 84 366 l 84 360 l 84 359 q 79 353 81 353 l 79 353 q 77 281 77 292 l 77 281 q 81 274 81 278 l 81 274 l 81 271 q 67 248 81 262 l 67 248 q 77 172 67 241 l 77 172 l 75 157 q 50 71 71 153 l 50 71 q 37 52 41 64 l 37 52 q 1 13 30 39 l 1 13 q 12 9 1 11 l 12 9 q 21 11 17 11 l 21 11 q 52 6 43 6 l 52 6 l 54 6 q 60 7 57 6 l 60 7 q 62 7 61 7 l 62 7 q 75 0 73 0 l 75 0 l 77 0 l 127 8 q 144 7 140 7 l 144 7 l 153 7 q 189 12 163 7 l 189 12 q 222 9 204 10 l 222 9 q 223 10 222 10 l 223 10 l 224 9 q 234 10 231 10 l 234 10 q 279 16 277 16 l 279 16 q 281 15 279 15 l 281 15 q 318 18 286 16 l 318 18 q 349 15 338 17 l 349 15 q 349 16 349 16 l 349 16 q 340 31 347 20 l 340 31 q 292 82 296 75 l 292 82 q 283 142 283 119 l 283 142 q 283 240 283 168 l 283 240 q 282 242 283 241 l 282 242 q 275 261 275 246 l 275 261 l 275 262 q 292 294 275 281 l 292 294 l 292 298 q 286 366 292 316 l 286 366 l 286 377 q 277 405 286 388 l 277 405 q 281 444 277 412 l 281 444 q 344 445 328 445 l 344 445 q 352 438 347 445 l 352 438 l 390 440 q 393 439 391 439 l 393 439 q 404 449 401 445 l 404 449 l 421 446 q 456 450 438 449 l 456 450 q 468 439 459 450 l 468 439 l 494 439 l 497 442 l 502 442 q 563 419 505 442 l 563 419 l 564 419 q 560 432 564 420 l 560 432 q 543 469 557 440 l 543 469 l 543 469 q 547 476 543 472 l 547 476 q 587 496 574 492 l 587 496 l 588 496 q 598 493 597 493 l 598 493 q 613 502 601 493 l 613 502 q 658 530 658 522 l 658 530 l 650 533 l 597 564 q 589 562 596 564 l 589 562 l 543 587 q 562 633 553 615 l 562 633 l 561 635 q 498 612 543 635 l 498 612 l 376 616 q 373 606 374 613 l 373 606 l 366 606 q 353 608 362 606 l 353 608 l 344 608 q 311 610 336 608 l 311 610 q 307 613 311 613 l 307 613 l 302 613 q 290 610 294 613 l 290 610 q 290 611 290 611 l 290 611 l 278 611 q 270 651 275 633 l 270 651 q 274 678 270 661 l 274 678 q 283 682 283 681 l 283 682 l 283 747 q 265 781 265 772 l 265 781 l 265 781 q 274 812 265 789 l 274 812 q 309 817 274 817 l 309 817 l 321 817 q 362 815 334 817 l 362 815 l 365 817 q 401 822 365 819 l 401 822 q 404 821 402 821 l 404 821 l 418 821 l 420 822 q 429 814 422 814 l 429 814 l 441 814 q 452 819 445 814 l 452 819 q 470 810 456 819 l 470 810 q 475 811 472 810 l 475 811 q 530 817 475 817 l 530 817 l 545 817 q 558 817 551 817 l 558 817 q 568 817 560 817 l 568 817 l 570 817 q 582 812 574 817 l 582 812 q 604 815 600 815 l 604 815 l 610 815 q 697 764 612 815 l 697 764 l 698 766 l 698 779 q 690 813 690 811 l 690 813 q 684 834 690 827 l 684 834 l 684 851 q 689 863 689 863 l 689 863 q 690 909 690 903 l 690 909 q 686 916 690 910 l 686 916 l 686 928 q 688 975 686 949 l 688 975 l 688 977 q 684 976 686 977 l 684 976 q 671 977 674 977 l 671 977 q 648 976 667 977 l 648 976 l 645 977 q 642 976 644 976 l 642 976 l 630 976 l 625 972 l 616 972 q 598 971 600 972 l 598 971 q 574 972 586 972 l 574 972 l 500 972 q 490 968 490 972 l 490 968 q 471 970 478 970 l 471 970 l 425 970 q 367 966 393 970 l 367 966 q 342 977 344 977 l 342 977 l 270 977 l 266 973 l 195 973 q 189 971 193 973 l 189 971 q 182 973 186 973 l 182 973 l 180 973 l 151 977 q 125 976 129 976 l 125 976 q 117 979 119 979 l 117 979 z "},"G":{"ha":948,"x_min":0,"x_max":945,"o":"m 386 968 l 385 968 q 384 966 384 968 l 384 966 q 336 947 358 956 l 336 947 q 292 930 294 930 l 292 930 q 239 904 264 930 l 239 904 q 189 854 198 854 l 189 854 q 173 854 184 854 l 173 854 q 151 854 159 854 l 151 854 q 136 839 138 839 l 136 839 q 119 823 123 823 l 119 823 l 106 823 q 104 818 105 823 l 104 818 l 106 799 l 106 794 q 79 749 106 787 l 79 749 q 59 720 59 729 l 59 720 q 62 699 59 715 l 62 699 q 60 690 60 691 l 60 690 q 43 652 48 665 l 43 652 q 31 631 31 637 l 31 631 l 31 627 q 37 623 31 623 l 37 623 q 50 602 50 606 l 50 602 l 50 602 q 13 572 50 588 l 13 572 q 7 540 9 572 l 7 540 q 9 528 9 535 l 9 528 l 9 526 q 5 517 9 524 l 5 517 q 0 483 0 517 l 0 483 q 2 469 1 472 l 2 469 q 9 463 9 467 l 9 463 l 9 462 q 8 446 9 454 l 8 446 q 31 341 21 371 l 31 341 q 54 288 54 304 l 54 288 q 54 275 54 282 l 54 275 l 54 273 q 66 252 54 264 l 66 252 q 106 182 85 217 l 106 182 q 155 133 142 140 l 155 133 q 174 127 170 133 l 174 127 q 172 115 174 123 l 172 115 q 195 98 172 113 l 195 98 l 233 98 l 233 93 l 233 91 q 233 90 233 90 l 233 90 l 238 90 l 242 91 q 252 98 247 98 l 252 98 q 269 96 269 98 l 269 96 q 278 90 273 90 l 278 90 q 277 79 277 83 l 277 79 l 277 74 q 278 71 277 73 l 278 71 q 306 61 290 61 l 306 61 l 306 60 q 303 57 304 60 l 303 57 l 303 56 q 306 47 306 49 l 306 47 l 306 47 q 302 45 306 46 l 302 45 q 297 27 300 37 l 297 27 l 297 26 q 306 23 297 24 l 306 23 q 347 24 334 24 l 347 24 l 353 24 q 355 25 355 24 l 355 25 q 341 31 351 31 l 341 31 l 328 31 q 315 34 315 31 l 315 34 l 315 54 q 334 54 329 54 l 334 54 q 347 53 341 54 l 347 53 q 368 45 358 45 l 368 45 q 390 45 382 45 l 390 45 q 393 35 391 45 l 393 35 q 390 18 390 22 l 390 18 l 390 17 q 475 0 437 0 l 475 0 l 482 0 q 606 8 515 0 l 606 8 q 625 25 609 8 l 625 25 q 650 33 633 31 l 650 33 q 700 39 690 33 l 700 39 q 720 54 714 50 l 720 54 q 783 78 773 71 l 783 78 l 795 99 q 836 123 805 106 l 836 123 q 862 143 845 123 l 862 143 q 905 231 874 167 l 905 231 q 931 283 931 279 l 931 283 q 939 334 936 326 l 939 334 q 945 401 945 334 l 945 401 q 933 448 945 428 l 933 448 q 907 520 919 470 l 907 520 q 879 560 898 547 l 879 560 q 854 591 865 572 l 854 591 q 808 625 819 625 l 808 625 q 779 640 779 627 l 779 640 l 779 643 q 779 644 779 643 l 779 644 q 762 643 773 644 l 762 643 l 761 643 q 750 651 754 643 l 750 651 l 727 651 l 726 650 q 727 644 727 646 l 727 644 l 727 643 l 726 643 l 718 644 q 720 650 718 646 l 720 650 q 718 652 720 651 l 718 652 q 697 651 705 651 l 697 651 l 695 651 q 682 653 690 651 l 682 653 l 661 651 q 644 652 657 651 l 644 652 q 551 644 590 652 l 551 644 l 547 644 l 546 643 q 548 630 547 635 l 548 630 q 546 629 547 630 l 546 629 q 519 630 526 630 l 519 630 q 515 625 517 630 l 515 625 q 496 608 503 614 l 496 608 q 483 585 486 588 l 483 585 q 465 560 470 578 l 465 560 l 465 517 q 475 511 468 511 l 475 511 q 490 522 490 513 l 490 522 q 528 555 500 544 l 528 555 q 543 553 530 555 l 543 553 q 547 555 547 553 l 547 555 l 547 562 q 548 565 547 564 l 548 565 q 614 572 548 572 l 614 572 q 658 570 646 572 l 658 570 q 675 554 664 570 l 675 554 l 677 554 q 697 557 682 554 l 697 557 q 712 539 708 557 l 712 539 q 739 504 712 514 l 739 504 q 756 480 750 497 l 756 480 q 771 440 771 451 l 771 440 l 771 363 q 768 357 771 357 l 768 357 q 760 358 766 357 l 760 358 q 748 337 753 358 l 748 337 q 726 300 748 314 l 726 300 q 685 271 685 278 l 685 271 l 686 267 q 663 256 677 256 l 663 256 l 661 256 q 643 248 650 248 l 643 248 q 626 249 632 248 l 626 249 q 619 245 619 248 l 619 245 l 619 243 q 623 235 623 237 l 623 235 l 623 233 q 602 220 616 227 l 602 220 q 583 203 587 203 l 583 203 l 580 203 q 572 210 574 210 l 572 210 l 525 210 l 524 210 q 515 203 522 203 l 515 203 l 463 203 l 462 203 q 456 210 461 210 l 456 210 l 454 210 q 423 210 452 210 l 423 210 l 421 210 q 409 211 414 210 l 409 211 l 409 214 q 380 233 409 216 l 380 233 q 343 256 350 255 l 343 256 q 335 254 342 256 l 335 254 l 334 254 q 328 257 332 254 l 328 257 q 323 277 326 274 l 323 277 q 288 305 314 286 l 288 305 q 248 370 250 347 l 248 370 q 240 387 240 382 l 240 387 l 240 412 l 232 411 l 231 411 q 209 423 220 411 l 209 423 q 201 467 201 432 l 201 467 q 205 602 205 593 l 205 602 l 205 603 q 203 614 205 611 l 203 614 l 205 616 q 215 639 209 639 l 215 639 q 226 648 226 639 l 226 648 q 224 667 226 650 l 224 667 q 225 675 224 670 l 225 675 l 240 681 q 247 696 240 687 l 247 696 q 252 705 248 705 l 252 705 q 265 720 257 715 l 265 720 q 293 749 293 747 l 293 749 q 333 785 323 782 l 333 785 q 423 831 358 808 l 423 831 q 432 840 423 838 l 432 840 q 487 850 487 845 l 487 850 q 528 855 487 855 l 528 855 q 600 853 559 855 l 600 853 l 601 854 q 599 859 601 855 l 599 859 l 599 860 q 659 847 613 860 l 659 847 q 730 831 698 840 l 730 831 q 782 803 737 831 l 782 803 q 838 763 832 763 l 838 763 q 840 764 840 763 l 840 764 l 840 766 q 798 828 840 782 l 798 828 q 727 889 747 878 l 727 889 q 640 937 698 911 l 640 937 q 604 954 606 951 l 604 954 q 593 959 604 959 l 593 959 q 546 958 553 958 l 546 958 q 534 962 538 958 l 534 962 q 505 967 528 967 l 505 967 q 463 966 472 966 l 463 966 q 461 964 461 966 l 461 964 q 464 961 464 962 l 464 961 l 464 960 q 424 956 464 956 l 424 956 l 408 956 q 386 968 393 956 l 386 968 z m 232 937 l 229 937 q 224 935 224 935 l 224 935 q 214 928 221 928 l 214 928 q 206 929 214 928 l 206 929 q 202 926 203 929 l 202 926 l 202 926 q 206 915 206 919 l 206 915 q 201 912 203 913 l 201 912 q 190 913 199 912 l 190 913 q 186 913 189 913 l 186 913 q 157 889 176 911 l 157 889 q 129 869 134 875 l 129 869 l 129 868 q 150 875 149 874 l 150 875 q 157 882 152 879 l 157 882 q 190 900 190 897 l 190 900 q 189 905 190 902 l 189 905 l 203 905 q 206 914 203 905 l 206 914 l 206 915 q 216 922 210 922 l 216 922 l 216 921 q 231 920 229 920 l 231 920 q 233 922 233 920 l 233 922 l 233 935 q 232 937 233 936 l 232 937 z m 314 963 l 314 964 q 291 958 298 959 l 291 958 l 280 959 l 277 956 l 277 951 q 240 928 240 939 l 240 928 l 241 928 q 248 936 241 930 l 248 936 q 255 935 254 935 l 255 935 l 256 935 q 266 944 262 943 l 266 944 q 300 958 288 951 l 300 958 q 304 956 304 956 l 304 956 q 314 963 309 956 l 314 963 z m 105 831 l 105 831 l 98 831 q 78 801 93 818 l 78 801 q 71 802 77 801 l 71 802 q 68 800 68 801 l 68 800 l 68 796 l 69 793 q 63 783 66 792 l 63 783 l 63 783 l 65 783 q 80 798 73 789 l 80 798 q 105 831 85 812 z "},"H":{"ha":900,"x_min":0,"x_max":909,"o":"m 229 979 l 229 979 q 217 977 217 979 l 217 977 q 197 972 213 972 l 197 972 l 189 972 q 158 972 165 972 l 158 972 q 134 967 143 972 l 134 967 q 127 971 127 968 l 127 971 q 90 974 127 974 l 90 974 l 81 974 q 41 971 71 972 l 41 971 q 20 972 31 972 l 20 972 l 1 972 l 0 972 l 1 969 q 22 947 7 956 l 22 947 q 51 920 45 933 l 51 920 q 61 907 58 920 l 61 907 l 57 884 q 61 870 57 875 l 61 870 l 65 871 q 69 858 69 869 l 69 858 l 69 855 q 66 808 69 821 l 66 808 l 66 799 q 68 728 66 772 l 68 728 q 71 724 68 726 l 71 724 q 79 709 79 724 l 79 709 q 79 654 79 675 l 79 654 l 79 618 q 77 582 79 600 l 77 582 q 82 563 77 569 l 82 563 q 98 543 98 548 l 98 543 l 98 541 q 88 533 88 534 l 88 533 l 88 530 l 83 448 l 83 446 q 88 436 88 437 l 88 436 q 89 372 89 387 l 89 372 q 85 347 89 355 l 85 347 q 77 328 77 340 l 77 328 q 80 238 79 267 l 80 238 q 79 201 79 210 l 79 201 l 78 198 q 79 194 79 198 l 79 194 q 90 163 90 186 l 90 163 q 87 130 89 130 l 87 130 q 81 133 86 130 l 81 133 q 78 130 79 133 l 78 130 q 79 115 78 127 l 79 115 q 78 111 79 113 l 78 111 q 71 113 75 111 l 71 113 q 66 104 68 113 l 66 104 q 68 82 68 96 l 68 82 q 60 66 68 75 l 60 66 q 48 40 54 47 l 48 40 q 20 4 28 25 l 20 4 l 20 3 q 71 5 38 3 l 71 5 l 126 9 l 135 9 q 152 3 138 3 l 152 3 l 159 3 l 236 8 q 294 3 284 3 l 294 3 q 341 3 332 3 l 341 3 q 345 18 343 3 l 345 18 q 342 25 345 20 l 342 25 q 312 53 324 37 l 312 53 q 303 75 303 53 l 303 75 q 304 98 303 83 l 304 98 q 298 106 303 106 l 298 106 q 291 151 291 106 l 291 151 l 291 162 l 296 205 q 292 210 296 208 l 292 210 q 294 290 294 268 l 294 290 l 294 294 q 289 300 289 300 l 289 300 l 289 302 q 294 316 294 313 l 294 316 l 294 334 q 294 375 294 357 l 294 375 q 294 412 294 382 l 294 412 l 294 414 l 319 414 q 328 417 328 414 l 328 417 q 345 425 332 425 l 345 425 q 394 420 386 420 l 394 420 l 398 420 l 448 425 l 450 425 q 460 418 456 425 l 460 418 l 461 418 q 532 425 467 418 l 532 425 q 545 424 535 425 l 545 424 q 600 400 569 424 l 600 400 q 627 338 627 382 l 627 338 q 627 328 627 332 l 627 328 q 616 308 616 309 l 616 308 l 616 307 l 617 305 q 625 309 619 305 l 625 309 l 626 309 l 626 307 q 627 283 626 295 l 627 283 q 626 279 626 279 l 626 279 q 619 273 626 273 l 619 273 q 615 240 615 273 l 615 240 l 616 181 q 611 136 611 143 l 611 136 l 611 103 q 598 45 611 64 l 598 45 q 568 4 575 21 l 568 4 q 615 0 602 0 l 615 0 q 668 5 668 2 l 668 5 q 665 14 668 7 l 665 14 q 677 13 669 14 l 677 13 q 692 15 678 13 l 692 15 l 694 14 q 692 5 694 12 l 692 5 q 693 3 692 3 l 693 3 l 697 3 q 769 10 704 3 l 769 10 q 786 6 777 10 l 786 6 l 843 2 q 909 3 874 2 l 909 3 q 909 4 909 4 l 909 4 q 881 33 909 7 l 881 33 q 852 50 854 47 l 852 50 l 852 51 q 855 57 852 54 l 855 57 l 855 60 q 842 96 842 84 l 842 96 l 842 258 q 840 260 842 259 l 840 260 l 838 260 l 833 256 q 831 264 831 256 l 831 264 l 831 278 q 831 283 831 281 l 831 283 q 831 290 831 286 l 831 290 l 831 302 q 834 392 831 329 l 834 392 l 832 407 q 833 450 832 419 l 833 450 q 831 455 833 452 l 831 455 l 825 454 q 822 470 823 454 l 822 470 q 826 605 826 575 l 826 605 q 821 675 826 613 l 821 675 q 822 718 821 689 l 822 718 q 823 721 823 720 l 823 721 q 832 728 832 724 l 832 728 l 832 770 q 831 853 832 784 l 831 853 q 833 866 831 863 l 833 866 q 842 871 840 869 l 842 871 q 841 898 841 889 l 841 898 l 841 899 q 843 907 841 902 l 843 907 q 852 915 852 913 l 852 915 q 850 920 852 917 l 850 920 q 859 934 850 922 l 859 934 q 890 963 873 949 l 890 963 l 890 971 l 890 972 q 847 973 853 973 l 847 973 q 829 970 829 973 l 829 970 l 829 970 l 833 965 l 833 964 q 827 962 833 962 l 827 962 q 800 962 806 962 l 800 962 q 791 969 791 962 l 791 969 q 733 975 791 973 l 733 975 q 701 968 701 972 l 701 968 l 701 967 l 702 963 q 701 962 701 963 l 701 962 q 669 962 692 962 l 669 962 q 664 963 667 962 l 664 963 l 666 970 l 666 971 l 665 972 l 608 970 q 568 972 576 972 l 568 972 l 568 971 q 591 938 568 965 l 591 938 q 606 904 602 927 l 606 904 q 606 861 606 877 l 606 861 l 606 855 q 608 842 606 842 l 608 842 l 609 842 l 615 847 l 616 847 q 617 831 617 834 l 617 831 q 616 798 616 813 l 616 798 q 617 791 616 795 l 617 791 q 628 755 628 783 l 628 755 q 626 706 626 723 l 626 706 l 626 705 l 625 704 l 620 705 q 611 680 616 705 l 611 680 q 616 650 611 673 l 616 650 l 614 637 q 616 605 614 635 l 616 605 l 616 572 l 616 571 l 610 572 l 586 572 q 564 574 581 572 l 564 574 q 518 571 549 574 l 518 571 q 512 574 512 572 l 512 574 l 513 578 q 499 584 513 581 l 499 584 q 484 574 489 584 l 484 574 q 441 568 484 570 l 441 568 l 437 568 l 418 574 l 414 574 q 378 571 389 571 l 378 571 l 366 571 q 327 570 352 571 l 327 570 q 315 572 323 572 l 315 572 q 294 571 310 572 l 294 571 q 289 574 290 572 l 289 574 l 289 579 q 290 593 289 581 l 290 593 l 290 599 q 283 622 283 606 l 283 622 q 285 681 283 631 l 285 681 q 283 722 283 708 l 283 722 q 290 732 283 732 l 290 732 q 296 775 296 732 l 296 775 l 296 783 q 294 802 296 787 l 294 802 q 300 890 296 882 l 300 890 q 307 922 301 922 l 307 922 q 321 939 315 938 l 321 939 q 342 963 326 950 l 342 963 l 342 971 l 342 972 q 334 972 338 972 l 334 972 q 278 972 323 972 l 278 972 q 256 972 275 972 l 256 972 q 253 972 254 972 l 253 972 q 229 979 253 979 z "},"I":{"ha":379,"x_min":0,"x_max":366,"o":"m 37 975 l 37 975 q 20 975 29 975 l 20 975 l 14 975 l 12 974 q 27 952 12 963 l 27 952 q 60 898 60 909 l 60 898 q 58 885 59 887 l 58 885 q 73 854 58 876 l 73 854 l 72 851 q 63 844 63 847 l 63 844 q 73 770 71 793 l 73 770 q 72 760 72 763 l 72 760 l 72 715 q 73 683 72 696 l 73 683 q 72 655 72 677 l 72 655 l 72 635 l 73 628 q 68 615 72 622 l 68 615 l 68 608 q 72 597 68 606 l 72 597 l 72 571 q 68 556 68 559 l 68 556 l 68 547 q 70 530 68 541 l 70 530 q 68 530 68 530 l 68 530 q 71 519 69 528 l 71 519 l 70 518 q 71 509 70 517 l 71 509 q 71 509 71 509 l 71 509 l 75 475 q 74 474 74 475 l 74 474 l 75 468 l 75 467 q 75 458 75 462 l 75 458 l 75 444 q 63 392 75 410 l 63 392 q 65 387 63 391 l 65 387 q 74 378 74 378 l 74 378 q 73 358 74 372 l 73 358 l 74 357 l 73 357 q 74 333 74 341 l 74 333 l 74 332 q 71 321 74 326 l 71 321 q 64 314 64 317 l 64 314 l 64 311 q 77 296 77 303 l 77 296 l 76 293 q 70 277 70 284 l 70 277 l 71 273 q 60 121 66 188 l 60 121 q 60 121 60 121 l 60 121 q 60 118 60 120 l 60 118 l 60 97 q 54 71 60 87 l 54 71 q 29 31 52 55 l 29 31 l 0 9 l 1 8 q 60 2 54 2 l 60 2 l 66 4 l 67 4 q 79 3 72 4 l 79 3 q 106 10 98 10 l 106 10 l 107 10 q 126 2 126 7 l 126 2 l 140 4 l 146 4 q 157 1 149 1 l 157 1 l 163 1 l 168 3 q 168 3 168 3 l 168 3 l 178 3 l 182 2 q 183 3 182 3 l 183 3 l 209 1 l 215 4 q 233 13 222 13 l 233 13 l 243 13 q 252 9 248 13 l 252 9 q 262 3 252 3 l 262 3 q 272 4 268 4 l 272 4 l 275 4 q 365 0 305 4 l 365 0 q 366 1 365 1 l 366 1 q 347 29 363 15 l 347 29 q 317 53 328 41 l 317 53 q 302 109 308 65 l 302 109 q 303 110 303 109 l 303 110 q 300 152 300 116 l 300 152 l 300 208 q 295 229 296 220 l 295 229 q 296 231 295 230 l 296 231 q 294 243 295 232 l 294 243 l 297 253 l 297 261 q 286 275 286 274 l 286 275 q 286 287 286 283 l 286 287 l 286 339 q 289 349 286 341 l 289 349 l 289 414 l 288 420 q 272 450 272 441 l 272 450 l 272 456 q 280 471 272 458 l 280 471 l 280 498 q 281 511 280 503 l 281 511 q 280 512 280 511 l 280 512 l 281 513 q 280 517 280 515 l 280 517 l 280 528 q 277 533 280 530 l 277 533 l 277 549 q 280 553 277 551 l 280 553 l 280 564 l 277 566 l 277 586 q 279 595 277 588 l 279 595 q 279 606 279 605 l 279 606 q 289 614 279 607 l 289 614 q 288 618 289 618 l 288 618 l 291 708 l 290 717 l 294 734 l 294 736 q 289 742 290 742 l 289 742 q 294 770 289 745 l 294 770 q 288 845 288 787 l 288 845 q 291 862 288 850 l 291 862 q 298 891 291 877 l 298 891 q 298 899 298 894 l 298 899 q 304 909 298 903 l 304 909 q 317 924 311 924 l 317 924 q 355 967 319 924 l 355 967 q 320 971 355 970 l 320 971 q 267 970 289 970 l 267 970 q 262 975 263 970 l 262 975 q 213 971 236 971 l 213 971 q 206 975 209 971 l 206 975 l 195 975 q 178 958 189 975 l 178 958 q 149 958 172 958 l 149 958 q 131 962 139 958 l 131 962 q 118 968 120 968 l 118 968 l 94 968 q 81 972 88 968 l 81 972 l 62 972 q 37 975 42 975 z "},"J":{"ha":543,"x_min":0,"x_max":545,"o":"m 408 972 l 355 972 l 355 969 l 355 968 l 353 968 q 335 968 347 968 l 335 968 q 332 964 332 967 l 332 964 l 330 964 q 327 968 330 964 l 327 968 q 310 968 316 968 l 310 968 l 254 968 l 254 967 q 285 939 285 940 l 285 939 q 296 909 296 922 l 296 909 q 295 899 296 906 l 295 899 q 299 895 295 895 l 299 895 l 299 894 q 296 895 297 894 l 296 895 q 295 893 295 895 l 295 893 l 295 892 q 299 876 295 888 l 299 876 l 299 848 q 302 813 299 833 l 302 813 q 302 802 302 806 l 302 802 q 308 795 302 797 l 308 795 l 313 795 q 313 789 313 790 l 313 789 l 313 787 q 306 778 313 785 l 306 778 q 305 677 306 745 l 305 677 l 305 675 q 313 616 313 631 l 313 616 l 313 567 q 316 530 313 560 l 316 530 q 323 514 316 528 l 323 514 q 319 506 319 507 l 319 506 l 319 503 q 320 457 319 469 l 320 457 q 319 400 319 431 l 319 400 l 319 378 l 323 378 l 323 375 l 323 374 q 319 362 323 369 l 319 362 q 312 351 312 359 l 312 351 l 312 351 q 319 346 319 347 l 319 346 l 319 345 q 316 334 316 335 l 316 334 l 316 332 q 315 321 316 328 l 315 321 q 317 309 317 317 l 317 309 q 317 306 317 307 l 317 306 q 306 254 306 256 l 306 254 l 306 239 q 300 219 306 229 l 300 219 q 273 165 287 185 l 273 165 q 244 151 257 155 l 244 151 q 239 136 239 140 l 239 136 l 215 136 q 212 129 214 136 l 212 129 l 201 129 q 192 121 193 121 q 182 121 191 121 l 182 121 q 168 129 170 129 l 168 129 q 162 128 164 128 l 162 128 l 153 128 l 151 129 q 152 131 151 130 l 152 131 q 145 140 152 133 l 145 140 q 118 179 118 156 l 118 179 q 113 208 113 199 l 113 208 l 113 226 q 123 291 113 264 l 123 291 q 157 338 127 305 l 157 338 q 165 352 157 352 l 165 352 q 176 363 170 352 l 176 363 q 193 385 193 382 l 193 385 l 192 385 q 175 383 185 385 l 175 383 q 147 372 149 372 l 147 372 q 94 352 132 372 l 94 352 q 53 302 53 325 l 53 302 l 53 300 l 47 300 q 31 283 39 298 l 31 283 q 18 263 24 268 l 18 263 q 14 220 16 220 l 14 220 q 3 198 3 205 l 3 198 l 4 184 q 3 174 3 179 l 3 174 q 4 166 3 172 l 4 166 q 0 146 0 153 l 0 146 l 0 141 q 4 138 0 140 l 4 138 q 6 122 5 122 l 6 122 q 26 83 20 86 l 26 83 q 36 65 33 79 l 36 65 q 53 52 41 56 l 53 52 q 83 25 68 38 l 83 25 q 119 10 98 16 l 119 10 q 121 11 120 11 l 121 11 l 125 11 q 131 8 129 11 l 131 8 q 168 0 138 0 l 168 0 l 273 0 q 286 6 278 0 l 286 6 q 306 14 288 10 l 306 14 q 330 22 330 18 l 330 22 q 345 34 345 32 l 345 34 q 355 45 345 41 l 355 45 q 384 63 373 54 l 384 63 q 397 81 391 81 l 397 81 q 414 92 405 81 l 414 92 l 439 126 q 441 144 439 138 l 441 144 q 455 161 455 158 l 455 161 q 453 172 454 171 l 453 172 q 467 189 453 177 l 467 189 q 481 238 475 213 l 481 238 q 500 368 488 238 l 500 368 q 500 375 500 374 l 500 375 q 500 378 500 377 l 500 378 q 505 393 505 392 l 505 393 q 505 398 505 395 l 505 398 q 500 409 505 401 l 500 409 q 504 418 500 410 l 504 418 l 504 428 q 508 452 508 441 l 508 452 l 508 454 q 503 473 503 471 l 503 473 q 504 484 504 480 l 504 484 l 504 506 q 505 562 504 531 l 505 562 q 503 601 503 578 l 503 601 q 504 613 503 605 l 504 613 q 500 618 500 615 l 500 618 l 500 624 l 500 627 q 500 628 500 627 l 500 628 l 503 631 q 504 654 503 631 l 504 654 q 503 656 504 655 l 503 656 q 488 659 490 657 l 488 659 l 489 664 q 499 669 489 668 l 499 669 q 504 696 504 669 l 504 696 q 500 711 500 706 l 500 711 q 500 736 500 725 l 500 736 l 500 739 q 496 751 500 743 l 496 751 l 496 765 q 497 768 496 766 l 497 768 q 500 772 500 768 l 500 772 q 500 791 500 789 l 500 791 q 503 810 502 810 l 503 810 q 510 925 503 887 l 510 925 q 534 960 518 951 l 534 960 q 545 965 544 963 l 545 965 q 543 967 545 966 l 543 967 q 523 972 538 967 l 523 972 l 511 972 l 510 971 l 510 968 l 504 968 l 500 968 q 484 961 490 965 l 484 961 q 465 950 474 952 l 465 950 q 461 967 465 953 l 461 967 q 444 972 452 968 l 444 972 q 437 968 440 970 l 437 968 l 430 968 q 425 968 427 968 l 425 968 q 419 968 422 968 l 419 968 l 408 968 q 409 970 408 968 l 409 970 q 408 972 409 972 l 408 972 z "},"K":{"ha":867,"x_min":1,"x_max":872,"o":"m 313 979 l 313 979 q 281 977 305 979 l 281 977 q 153 960 199 960 l 153 960 l 136 960 q 110 966 125 960 l 110 966 q 73 972 73 968 l 73 972 q 33 970 48 970 l 33 970 q 13 972 17 970 l 13 972 l 12 970 q 39 933 37 938 l 39 933 q 63 902 63 909 l 63 902 q 62 869 62 882 l 62 869 l 62 865 q 75 859 62 864 l 75 859 l 75 857 q 61 835 61 847 l 61 835 q 68 795 63 820 l 68 795 l 68 769 q 68 754 68 762 l 68 754 l 67 737 q 68 728 68 735 l 68 728 q 74 704 74 706 l 74 704 q 73 696 74 700 l 73 696 q 67 673 67 678 l 67 673 q 68 636 68 651 l 68 636 l 68 616 q 67 556 68 589 l 67 556 q 68 540 68 551 l 68 540 q 62 521 62 528 l 62 521 l 62 519 q 68 477 68 498 l 68 477 l 68 436 q 75 403 75 425 l 75 403 l 68 353 q 68 298 68 306 l 68 298 q 68 294 68 294 l 68 294 q 61 261 68 293 l 61 261 q 62 248 62 254 l 62 248 l 62 241 q 64 240 62 240 l 64 240 l 86 240 q 90 234 86 237 l 90 234 q 81 224 88 231 l 81 224 q 61 210 61 216 l 61 210 q 62 197 62 200 l 62 197 l 62 196 q 56 121 56 138 l 56 121 q 57 102 56 116 l 57 102 q 54 75 56 83 l 54 75 q 25 12 46 41 l 25 12 q 1 -5 4 -2 l 1 -5 q 2 -7 1 -7 l 2 -7 l 46 -7 q 55 -1 50 -1 l 55 -1 q 85 -2 74 -2 l 85 -2 l 104 -2 q 132 -1 115 -2 l 132 -1 q 134 -2 134 -2 l 134 -2 q 147 -7 143 -7 l 147 -7 q 151 -6 149 -7 l 151 -6 q 159 -1 154 -1 l 159 -1 l 204 -1 l 205 -1 q 212 5 205 5 l 212 5 l 213 5 q 225 -1 223 -1 l 225 -1 l 343 -1 l 343 0 q 316 28 338 8 l 316 28 q 288 65 288 47 l 288 65 q 281 104 281 81 l 281 104 l 283 151 q 282 173 282 164 l 282 173 q 275 214 275 197 l 275 214 q 282 233 275 216 l 282 233 q 279 239 282 236 l 279 239 q 270 264 270 246 l 270 264 l 270 271 q 276 397 276 357 l 276 397 q 292 383 283 397 l 292 383 q 324 326 324 337 l 324 326 q 338 313 324 319 l 338 313 q 354 283 345 313 l 354 283 q 378 246 359 267 l 378 246 q 444 149 384 239 l 444 149 q 513 22 513 56 l 513 22 q 500 -6 513 14 l 500 -6 q 502 -7 502 -6 l 502 -7 q 570 -7 509 -7 l 570 -7 q 592 -7 576 -7 l 592 -7 q 623 -1 619 -1 l 623 -1 q 633 -4 633 -2 l 633 -4 q 659 -13 633 -4 l 659 -13 q 676 -12 660 -13 l 676 -12 q 692 -13 677 -12 l 692 -13 q 702 -7 696 -12 l 702 -7 q 722 -7 705 -7 l 722 -7 q 724 -9 723 -7 l 724 -9 l 724 -10 l 724 -11 q 726 -13 725 -13 l 726 -13 l 752 -13 l 781 -7 l 781 -7 q 827 -13 808 -13 l 827 -13 q 854 -12 830 -13 l 854 -12 q 867 -12 863 -12 l 867 -12 q 872 -7 867 -11 l 872 -7 l 872 -7 l 859 7 l 789 59 q 732 125 751 96 l 732 125 q 682 192 709 162 l 682 192 q 648 234 648 227 l 648 234 q 621 262 648 245 l 621 262 q 590 299 609 271 l 590 299 q 533 393 573 321 l 533 393 q 509 429 519 420 l 509 429 q 483 456 491 449 l 483 456 q 462 471 477 463 l 462 471 q 452 499 456 489 l 452 499 q 422 555 422 552 l 422 555 q 459 592 458 592 l 459 592 q 583 728 532 665 l 583 728 q 656 818 617 777 l 656 818 q 766 913 703 862 l 766 913 q 850 967 804 941 l 850 967 l 850 970 l 850 972 q 831 971 838 971 l 831 971 l 821 971 q 818 977 820 977 l 818 977 l 813 977 q 785 971 795 971 l 785 971 l 783 971 q 755 972 768 971 l 755 972 q 652 966 671 966 l 652 966 q 645 967 649 966 l 645 967 q 634 972 638 972 l 634 972 q 606 971 616 971 l 606 971 l 598 971 q 575 977 587 971 l 575 977 l 572 977 l 571 977 l 573 972 l 573 972 l 569 972 q 568 970 568 972 l 568 970 l 568 968 q 570 945 570 951 l 570 945 l 570 941 l 570 934 q 570 933 570 934 l 570 933 q 545 897 549 901 l 545 897 q 498 844 540 884 l 498 844 q 481 811 494 838 l 481 811 q 404 732 404 736 l 404 732 q 359 686 395 716 l 359 686 q 329 642 337 663 l 329 642 q 308 619 319 622 l 308 619 q 283 595 305 618 l 283 595 l 282 595 l 282 604 q 281 678 282 634 l 281 678 q 282 686 282 684 l 282 686 q 288 717 288 703 l 288 717 l 288 726 q 288 748 288 734 l 288 748 q 285 749 286 749 l 285 749 q 276 794 279 749 l 276 794 l 276 821 l 275 829 q 277 842 276 829 l 277 842 q 294 878 279 846 l 294 878 q 293 893 293 887 l 293 893 l 293 896 q 318 948 293 912 l 318 948 q 338 970 338 966 l 338 970 q 336 972 338 972 l 336 972 q 313 979 332 979 z "},"L":{"ha":781,"x_min":0,"x_max":775,"o":"m 245 975 l 245 975 l 242 975 l 239 975 q 129 970 155 970 l 129 970 q 115 970 121 970 l 115 970 l 94 965 q 87 966 91 965 l 87 966 q 73 970 79 970 l 73 970 q 62 970 66 970 l 62 970 l 17 970 l 16 969 q 22 962 17 966 l 22 962 q 58 913 58 929 l 58 913 q 68 867 62 884 l 68 867 q 66 836 68 858 l 66 836 l 68 826 q 79 812 79 817 l 79 812 l 79 808 q 73 793 73 795 l 73 793 q 73 757 73 770 l 73 757 l 73 702 q 79 629 73 692 l 79 629 q 78 593 78 606 l 78 593 q 79 582 78 586 l 79 582 q 85 570 85 577 l 85 570 q 83 536 83 544 l 83 536 l 83 464 q 80 450 83 455 l 80 450 l 73 376 q 67 368 67 370 l 67 368 q 68 363 67 363 l 68 363 q 75 333 75 343 l 75 333 l 73 273 l 73 267 q 79 201 78 223 l 79 201 q 73 164 79 190 l 73 164 q 73 156 73 160 l 73 156 l 73 150 q 74 120 73 139 l 74 120 q 72 109 74 117 l 72 109 q 62 90 62 99 l 62 90 l 62 87 q 64 81 62 85 l 64 81 q 50 58 64 72 l 50 58 q 35 34 44 45 l 35 34 q 0 2 5 9 l 0 2 l 1 1 q 28 4 10 1 l 28 4 q 58 12 51 12 l 58 12 l 60 12 q 78 10 71 12 l 78 10 q 117 12 110 12 l 117 12 q 189 10 130 12 l 189 10 q 201 12 197 12 l 201 12 q 212 6 212 9 l 212 6 q 237 0 212 0 l 237 0 q 245 2 241 0 l 245 2 q 262 10 252 10 l 262 10 q 424 12 322 10 l 424 12 q 526 10 500 10 l 526 10 q 570 12 550 12 l 570 12 l 578 10 q 591 5 587 5 l 591 5 q 597 8 597 6 l 597 8 q 623 12 597 12 l 623 12 l 649 12 q 694 10 665 12 l 694 10 l 696 10 q 709 5 703 5 l 709 5 q 741 7 713 5 l 741 7 l 743 7 l 773 1 q 775 1 774 1 l 775 1 q 754 22 775 5 l 754 22 q 737 35 739 30 l 737 35 q 726 54 730 54 l 726 54 q 721 52 724 54 l 721 52 q 715 54 719 52 l 715 54 q 683 87 686 85 l 683 87 q 644 149 651 127 l 644 149 q 623 184 637 170 l 623 184 q 541 147 606 161 l 541 147 q 472 132 479 132 l 472 132 l 465 132 q 416 138 430 138 l 416 138 q 407 136 410 136 l 407 136 l 384 132 l 382 132 q 283 142 331 132 l 283 142 q 282 227 283 177 l 282 227 q 288 249 282 231 l 288 249 l 288 257 q 282 283 282 269 l 282 283 l 282 296 q 283 327 282 306 l 283 327 q 294 341 294 334 l 294 341 l 294 342 q 290 357 290 355 l 290 357 q 278 433 278 397 l 278 433 l 278 435 l 279 439 q 285 466 285 444 l 285 466 l 281 564 l 281 568 q 282 581 281 573 l 282 581 q 294 644 294 614 l 294 644 l 293 682 q 294 709 294 692 l 294 709 l 294 713 q 288 752 288 744 l 288 752 l 288 764 q 288 778 288 770 l 288 778 q 282 830 282 826 l 282 830 q 288 851 282 844 l 288 851 q 301 894 301 871 l 301 894 q 327 945 301 918 l 327 945 q 345 966 334 958 l 345 966 q 334 968 345 968 l 334 968 l 290 968 q 267 970 275 968 l 267 970 q 245 975 256 975 z "},"M":{"ha":964,"x_min":0,"x_max":962,"o":"m 912 981 l 910 981 q 901 975 901 977 l 901 975 q 859 953 875 953 l 859 953 q 836 954 845 954 l 836 954 l 835 954 q 808 925 823 938 l 808 925 q 725 849 773 897 l 725 849 q 641 779 687 821 l 641 779 q 612 755 624 761 l 612 755 q 614 734 614 739 l 614 734 l 614 731 l 585 706 q 534 654 549 667 l 534 654 q 516 643 527 643 l 516 643 q 493 639 509 643 l 493 639 q 479 617 488 625 l 479 617 q 471 635 471 631 l 471 635 q 439 641 453 641 l 439 641 l 410 667 q 348 728 383 701 l 348 728 l 348 731 q 350 751 348 738 l 350 751 q 338 760 350 754 l 338 760 q 241 844 288 809 l 241 844 q 183 899 185 897 l 183 899 q 128 951 140 932 l 128 951 q 104 950 117 951 l 104 950 q 73 964 92 950 l 73 964 q 52 979 60 975 l 52 979 l 51 979 l 51 962 q 47 891 51 937 l 47 891 l 47 875 q 60 849 60 851 l 60 849 l 60 848 q 47 799 54 810 l 47 799 q 42 586 47 701 l 42 586 l 43 578 l 37 545 q 39 538 37 541 l 39 538 q 54 508 51 519 l 54 508 q 49 400 52 480 l 49 400 l 49 399 q 38 384 38 390 l 38 384 q 39 354 38 376 l 39 354 q 37 338 37 342 l 37 338 l 37 330 q 49 319 37 324 l 49 319 q 58 286 52 319 l 58 286 l 58 279 q 53 248 58 264 l 53 248 q 45 193 51 212 l 45 193 q 53 183 45 191 l 53 183 l 53 164 l 52 157 q 53 156 53 157 l 53 156 l 52 155 q 53 142 53 147 l 53 142 l 53 135 q 47 125 47 130 l 47 125 l 49 114 l 49 113 q 32 37 49 68 l 32 37 q 0 4 32 33 l 0 4 l 1 2 q 52 5 31 2 l 52 5 q 72 12 66 12 l 72 12 q 81 5 76 12 l 81 5 q 118 6 90 5 l 118 6 q 163 5 140 6 l 163 5 q 164 5 163 5 l 164 5 l 169 5 l 179 5 l 184 4 q 185 5 184 5 l 185 5 l 185 4 q 249 0 228 3 l 249 0 q 250 1 249 1 l 250 1 q 239 20 250 6 l 239 20 q 212 64 213 52 l 212 64 q 212 176 212 151 l 212 176 l 207 193 q 214 204 207 196 l 214 204 l 214 213 q 212 246 214 216 l 212 246 q 214 405 214 324 l 214 405 q 207 531 209 509 l 207 531 q 212 566 207 543 l 212 566 q 218 562 217 562 l 218 562 q 243 538 237 538 l 243 538 l 248 538 l 249 539 q 257 526 252 532 l 257 526 q 275 506 275 509 l 275 506 q 300 479 283 492 l 300 479 q 325 467 317 479 l 325 467 q 349 439 328 458 l 349 439 q 383 397 372 418 l 383 397 q 407 406 385 397 l 407 406 q 427 391 414 404 l 427 391 l 427 371 q 450 351 434 363 l 450 351 q 473 328 460 334 l 473 328 l 475 328 q 477 332 475 329 l 477 332 q 504 362 477 334 l 504 362 q 526 378 514 366 l 526 378 q 536 391 532 388 l 536 391 q 555 409 549 408 l 555 409 l 555 409 q 580 400 577 400 l 580 400 q 586 410 585 410 l 586 410 q 629 457 586 416 l 629 457 q 643 475 641 475 l 643 475 q 664 481 650 481 l 664 481 q 689 513 687 504 l 689 513 q 714 541 709 532 l 714 541 l 720 541 l 724 542 q 751 568 747 568 l 751 568 q 755 534 753 560 l 755 534 q 748 408 753 511 l 748 408 q 751 250 749 327 l 751 250 q 749 216 749 218 l 749 216 l 749 207 q 755 196 755 199 q 751 180 755 193 l 751 180 q 751 67 751 149 l 751 67 q 742 47 749 59 l 742 47 q 713 5 713 12 l 713 5 l 714 3 q 777 7 735 6 l 777 7 l 778 7 l 778 7 l 783 7 l 794 7 l 799 8 q 800 7 799 7 l 800 7 q 843 9 824 9 l 843 9 q 880 8 875 8 l 880 8 l 888 14 q 900 13 895 14 l 900 13 q 960 5 909 5 l 960 5 q 962 6 961 5 l 962 6 l 958 12 q 930 41 930 36 l 930 41 q 914 117 914 71 l 914 117 l 915 128 q 914 132 914 130 l 914 132 q 909 140 909 138 l 909 140 l 909 146 q 910 157 909 150 l 910 157 q 909 160 909 159 l 909 160 l 910 161 q 909 168 909 165 l 909 168 l 909 186 q 917 195 917 194 l 917 195 q 911 236 911 221 l 911 236 q 905 282 905 275 l 905 282 l 905 289 q 910 311 905 298 l 910 311 q 920 325 910 325 l 920 325 q 926 334 926 328 l 926 334 l 926 341 q 924 356 926 346 l 924 356 q 924 385 924 379 l 924 385 q 924 391 924 387 l 924 391 l 914 403 q 909 511 910 498 l 909 511 q 913 523 911 519 l 913 523 q 925 546 922 536 l 925 546 l 920 583 l 921 588 q 915 801 915 707 l 915 801 q 914 804 915 804 l 914 804 q 903 851 908 814 l 903 851 l 903 853 l 915 878 l 915 894 q 912 966 912 940 l 912 966 l 912 981 z "},"N":{"ha":838,"x_min":0,"x_max":836,"o":"m 555 979 l 555 979 l 555 978 q 598 925 588 951 l 598 925 q 610 863 604 913 l 610 863 l 610 834 q 617 822 617 825 l 617 822 l 617 821 l 615 814 l 615 793 q 612 772 615 785 l 612 772 q 608 764 608 766 l 608 764 q 618 748 608 758 l 618 748 q 627 705 627 748 l 627 705 l 627 688 q 612 643 627 661 l 612 643 q 625 608 625 616 l 625 608 q 624 592 625 599 l 624 592 q 625 583 625 585 l 625 583 q 624 557 624 564 l 624 557 q 626 522 626 527 l 626 522 l 626 480 q 593 513 606 502 l 593 513 q 516 579 557 541 l 516 579 q 470 635 470 623 l 470 635 q 439 641 452 641 l 439 641 q 406 672 437 641 l 406 672 q 348 727 370 713 l 348 727 l 348 731 q 350 751 348 737 l 350 751 q 347 755 350 753 l 347 755 q 323 774 337 759 l 323 774 q 239 844 280 814 l 239 844 q 186 895 203 879 l 186 895 q 128 950 144 928 l 128 950 q 104 949 117 950 l 104 949 q 73 963 93 949 l 73 963 q 52 978 60 975 l 52 978 l 51 978 l 51 963 q 47 890 51 936 l 47 890 l 47 874 q 60 849 58 854 l 60 849 q 58 837 58 837 l 58 837 q 47 799 58 821 l 47 799 q 42 587 47 702 l 42 587 q 43 578 42 585 l 43 578 l 37 545 l 37 541 q 54 508 54 513 l 54 508 q 49 400 52 479 l 49 400 q 47 398 49 399 l 47 398 q 38 382 38 391 l 38 382 q 39 354 38 376 l 39 354 q 36 331 37 342 l 36 331 q 50 319 36 324 l 50 319 q 58 286 58 292 l 58 286 l 58 281 q 53 248 58 264 l 53 248 q 45 192 52 218 l 45 192 q 53 183 45 191 l 53 183 l 53 176 q 52 155 53 163 l 52 155 q 53 137 53 149 l 53 137 l 53 136 q 47 125 48 130 l 47 125 l 49 116 l 49 115 q 31 35 49 66 l 31 35 q 0 4 31 33 l 0 4 l 1 3 q 52 5 33 3 l 52 5 q 72 12 65 12 l 72 12 l 73 12 q 82 5 75 12 l 82 5 q 119 6 87 5 l 119 6 q 163 5 138 6 l 163 5 q 164 5 163 5 l 164 5 l 169 5 l 180 5 l 184 4 q 184 5 184 5 l 184 5 l 186 4 q 248 0 217 4 l 248 0 l 250 1 q 240 20 250 5 l 240 20 q 212 64 213 52 l 212 64 q 211 176 211 151 l 211 176 l 207 193 q 214 204 207 196 l 214 204 l 214 212 q 211 247 214 218 l 211 247 q 214 405 214 323 l 214 405 q 207 531 209 509 l 207 531 q 212 565 209 557 l 212 565 q 218 562 217 562 l 218 562 q 243 538 237 538 l 243 538 l 250 538 q 272 512 251 530 l 272 512 q 292 484 275 503 l 292 484 q 313 477 297 477 l 313 477 l 323 469 q 349 439 328 457 l 349 439 q 382 397 371 418 l 382 397 q 407 406 385 397 l 407 406 q 456 360 416 404 l 456 360 q 490 321 487 330 l 490 321 l 490 298 q 513 279 496 289 l 513 279 q 559 236 524 277 l 559 236 q 572 213 570 216 l 572 213 q 595 202 595 205 l 595 202 q 602 186 595 190 l 602 186 q 629 165 621 176 l 629 165 q 661 121 637 149 l 661 121 q 707 54 661 120 l 707 54 q 748 -11 748 -5 l 748 -11 q 767 -49 764 -37 l 767 -49 q 775 -77 772 -75 l 775 -77 q 779 -21 779 -77 l 779 -21 l 779 17 l 776 33 q 779 67 777 60 l 779 67 q 774 73 775 73 l 774 73 q 786 111 780 111 l 786 111 q 778 119 786 117 l 778 119 q 772 145 772 119 l 772 145 l 772 218 q 774 232 772 222 l 774 232 l 774 271 q 777 285 774 275 l 777 285 q 776 288 776 286 l 776 288 q 765 307 768 299 l 765 307 q 767 323 765 309 l 767 323 l 767 338 q 776 351 767 340 l 776 351 q 777 389 776 360 l 777 389 q 776 391 777 390 l 776 391 l 777 394 q 776 500 776 475 l 776 500 q 777 533 776 513 l 777 533 q 776 565 776 538 l 776 565 l 776 571 q 779 585 776 574 l 779 585 q 779 616 779 596 l 779 616 q 779 650 779 641 l 779 650 l 779 651 q 769 683 778 683 l 769 683 l 769 684 q 777 695 777 691 l 777 695 q 776 708 777 703 l 776 708 q 777 715 776 709 l 777 715 q 774 779 777 724 l 774 779 q 767 787 774 783 l 767 787 l 767 804 l 766 809 q 772 814 770 809 l 772 814 q 772 838 772 828 l 772 838 l 772 859 q 787 925 779 925 l 787 925 q 809 954 802 945 l 809 954 q 836 976 833 972 l 836 976 l 836 977 l 702 977 q 674 973 691 973 l 674 973 l 673 973 q 633 977 647 973 l 633 977 l 583 977 q 555 979 577 977 z "},"O":{"ha":935,"x_min":0,"x_max":932,"o":"m 518 972 l 518 972 q 450 962 450 968 l 450 962 q 396 949 415 949 l 396 949 q 366 951 383 949 l 366 951 q 362 945 364 951 l 362 945 q 327 924 343 924 l 327 924 l 321 924 q 298 932 304 932 l 298 932 l 298 931 q 271 914 296 928 l 271 914 q 197 859 238 895 l 197 859 q 167 821 167 837 l 167 821 q 172 808 169 810 l 172 808 l 172 807 l 124 793 q 93 743 108 763 l 93 743 q 69 714 77 726 l 69 714 q 39 661 51 680 l 39 661 q 11 576 26 647 l 11 576 q 0 448 0 476 l 0 448 l 0 439 q 6 422 0 427 l 6 422 l 5 393 q 16 330 5 359 l 16 330 q 33 306 17 319 l 33 306 q 68 216 35 304 l 68 216 q 132 144 91 185 l 132 144 q 167 127 134 139 l 167 127 q 172 108 168 123 l 172 108 q 182 99 172 103 l 182 99 q 236 60 208 88 l 236 60 q 258 47 245 47 l 258 47 l 260 47 q 295 49 275 47 l 295 49 q 347 19 317 19 l 347 19 q 366 21 349 19 l 366 21 q 368 20 366 21 l 368 20 q 426 0 403 0 l 426 0 l 429 0 q 475 8 448 0 l 475 8 q 500 7 476 8 l 500 7 q 610 24 550 7 l 610 24 q 675 53 650 35 l 675 53 q 723 90 700 62 l 723 90 l 722 91 q 661 71 687 87 l 661 71 l 661 84 q 763 127 713 104 l 763 127 q 800 172 800 140 l 800 172 l 799 180 q 825 204 806 204 l 825 204 q 839 201 833 204 l 839 201 l 840 202 q 850 233 840 218 l 850 233 q 868 250 867 243 l 868 250 q 909 345 897 302 l 909 345 q 918 397 912 378 l 918 397 q 932 530 932 503 l 932 530 l 932 535 q 915 595 932 581 l 915 595 q 899 647 907 605 l 899 647 q 895 680 896 680 l 895 680 q 882 677 883 677 l 882 677 l 878 685 q 865 720 868 720 l 865 720 q 846 734 846 730 l 846 734 l 848 734 q 845 766 846 760 l 845 766 q 804 843 845 792 l 804 843 q 783 873 787 873 l 783 873 q 749 886 783 879 l 749 886 q 703 924 718 898 l 703 924 q 647 958 670 952 l 647 958 q 610 956 623 956 l 610 956 l 604 956 q 551 962 574 956 l 551 962 q 518 972 531 972 z m 316 745 l 327 742 q 344 750 337 742 l 344 750 q 368 783 358 772 l 368 783 q 435 813 374 787 l 435 813 l 444 813 q 510 808 452 813 l 510 808 q 572 786 515 808 l 572 786 q 597 766 585 770 l 597 766 q 635 730 598 766 l 635 730 q 675 682 661 705 l 675 682 q 673 665 673 673 l 673 665 q 690 625 673 642 l 690 625 q 698 604 696 625 l 698 604 q 716 497 709 519 l 716 497 q 711 496 713 497 l 711 496 q 701 463 701 490 l 701 463 q 702 428 701 453 l 702 428 q 716 408 702 408 l 716 408 q 709 389 710 390 l 709 389 q 705 351 709 371 l 705 351 q 690 296 696 337 l 690 296 q 675 269 686 269 l 675 269 q 642 216 661 241 l 642 216 q 556 164 590 164 l 556 164 l 554 164 q 531 174 540 164 l 531 174 q 485 157 494 163 l 485 157 q 475 153 483 153 l 475 153 l 469 153 q 434 166 453 153 l 434 166 l 400 166 l 372 194 l 353 194 q 309 230 332 205 l 309 230 q 292 256 302 244 l 292 256 q 279 270 283 270 l 279 270 q 255 288 255 275 l 255 288 q 220 397 220 366 l 220 397 q 220 477 220 452 l 220 477 q 227 534 220 511 l 227 534 l 227 564 q 220 579 226 570 l 220 579 q 240 587 220 580 l 240 587 q 251 645 245 625 l 251 645 q 288 696 262 678 l 288 696 q 296 724 290 697 l 296 724 q 316 732 315 730 l 316 732 l 316 745 z "},"P":{"ha":759,"x_min":-3,"x_max":755,"o":"m 394 968 l 389 975 l 381 975 q 348 965 359 965 l 348 965 q 322 966 345 965 l 322 966 l 319 966 q 318 966 319 966 l 318 966 q 293 968 300 968 l 293 968 q 231 966 250 966 l 231 966 l 174 966 l 170 965 q 151 955 161 955 l 151 955 q 138 966 146 955 l 138 966 l 134 966 q 102 955 104 955 l 102 955 q 83 957 87 955 l 83 957 q 73 966 79 966 l 73 966 l 9 966 l 7 965 q 9 959 7 964 l 9 959 q 33 924 17 933 l 33 924 q 58 884 50 906 l 58 884 q 57 869 57 874 l 57 869 l 57 866 q 66 848 66 850 l 66 848 l 66 844 q 57 841 57 844 l 57 841 l 57 836 q 60 799 57 799 l 60 799 l 66 799 l 67 793 q 66 772 67 783 l 66 772 q 68 740 68 743 l 68 740 q 66 657 68 734 l 66 657 q 67 576 67 602 l 67 576 q 66 536 66 542 l 66 536 q 71 531 68 531 l 71 531 q 87 508 81 526 l 87 508 q 85 506 87 506 l 85 506 l 71 506 q 66 503 68 506 l 66 503 q 67 429 67 456 l 67 429 l 67 357 q 66 334 67 349 l 66 334 q 68 320 68 334 l 68 320 q 57 297 59 304 l 57 297 l 57 296 q 67 286 67 293 l 67 286 q 66 270 67 278 l 66 270 q 68 248 68 260 l 68 248 l 68 244 q 66 208 68 222 l 66 208 q 67 191 67 200 l 67 191 q 66 186 67 188 l 66 186 q 56 179 56 184 l 56 179 q 58 122 56 176 l 58 122 q 57 102 58 113 l 57 102 q 58 85 58 100 l 58 85 q 49 56 58 77 l 49 56 q 26 26 40 38 l 26 26 q -3 -1 5 9 l -3 -1 l -2 -2 q 12 -1 9 -1 l 12 -1 q 62 -1 28 -1 l 62 -1 l 77 -2 q 79 4 79 -2 l 79 4 q 101 9 79 9 l 101 9 l 102 9 q 127 -2 110 9 l 127 -2 q 136 -1 132 -2 l 136 -1 q 180 -2 162 -2 l 180 -2 l 186 -2 q 199 -13 198 -13 l 199 -13 l 204 -12 q 213 -3 213 -12 l 213 -3 q 222 -1 213 -3 l 222 -1 q 229 -3 222 -1 l 229 -3 q 241 -13 233 -13 l 241 -13 q 284 -12 269 -12 l 284 -12 l 355 -12 l 356 -12 q 354 -5 356 -11 l 354 -5 q 311 34 349 2 l 311 34 q 296 81 296 47 l 296 81 q 298 144 298 130 l 298 144 l 298 154 q 291 183 298 174 l 291 183 q 287 194 287 183 l 287 194 q 276 275 281 221 l 276 275 q 277 283 276 278 l 277 283 q 287 330 287 324 l 287 330 q 286 343 287 336 l 286 343 q 287 372 287 359 l 287 372 q 279 391 287 385 l 279 391 q 270 402 276 402 l 270 402 q 265 429 265 402 l 265 429 q 270 440 265 439 l 270 440 l 275 436 l 277 437 q 276 448 277 445 l 276 448 q 277 561 277 471 l 277 561 q 275 572 277 568 l 275 572 q 265 582 265 575 l 265 582 l 265 583 q 270 601 265 599 l 270 601 q 288 608 286 606 l 288 608 q 287 613 288 610 l 287 613 q 288 670 287 620 l 288 670 q 287 684 288 676 l 287 684 q 277 693 287 693 l 277 693 l 277 703 q 276 815 277 745 l 276 815 q 277 826 277 821 l 277 826 l 303 826 q 338 837 321 837 l 338 837 q 406 836 387 836 l 406 836 l 408 836 q 463 814 439 836 l 463 814 q 520 730 520 753 l 520 730 q 519 721 519 726 l 519 721 l 519 713 q 523 701 519 707 l 523 701 q 549 653 549 667 l 549 653 l 545 623 q 547 595 546 616 l 547 595 q 538 573 547 583 l 538 573 q 521 522 531 557 l 521 522 q 479 467 499 467 l 479 467 q 448 468 456 468 l 448 468 l 373 465 q 343 468 355 465 l 343 468 l 338 467 q 329 470 336 467 l 329 470 q 313 478 315 478 l 313 478 q 307 476 308 477 l 307 476 q 319 441 309 459 l 319 441 q 353 401 353 406 l 353 401 l 380 393 q 546 357 480 357 l 546 357 q 606 372 579 357 l 606 372 q 656 404 627 377 l 656 404 q 693 452 677 428 l 693 452 q 755 661 755 568 l 755 661 l 755 684 q 749 715 755 699 l 749 715 q 724 772 724 761 l 724 772 q 727 805 724 776 l 727 805 l 727 808 q 724 819 727 814 l 724 819 q 696 851 713 826 l 696 851 q 656 905 656 903 l 656 905 q 635 916 648 905 l 635 916 l 633 916 q 630 916 631 916 l 630 916 q 620 903 622 903 l 620 903 q 606 906 615 903 l 606 906 q 616 916 606 907 l 616 916 q 615 928 616 924 l 615 928 q 604 936 615 928 l 604 936 q 582 945 593 945 l 582 945 l 562 945 q 547 947 554 945 l 547 947 q 519 956 532 956 l 519 956 q 500 956 502 956 l 500 956 q 434 966 489 956 l 434 966 l 409 966 q 394 968 399 966 l 394 968 z "},"Q":{"ha":967,"x_min":1,"x_max":1322,"o":"m 469 972 l 469 972 l 442 967 q 425 968 437 967 l 425 968 q 424 966 424 968 l 424 966 l 400 966 q 374 954 382 954 l 374 954 q 330 937 345 937 l 330 937 q 320 940 322 940 l 320 940 l 319 940 q 290 926 300 934 l 290 926 q 271 912 275 920 l 271 912 q 238 895 238 899 l 238 895 q 216 877 219 883 l 216 877 q 201 867 203 870 l 201 867 l 145 819 q 140 808 144 808 l 140 808 q 126 791 126 800 l 126 791 q 121 793 124 791 l 121 793 q 119 791 121 791 l 119 791 q 121 785 119 789 l 121 785 q 112 760 121 775 l 112 760 l 109 760 q 104 777 107 760 l 104 777 l 102 777 q 96 772 97 772 l 96 772 l 81 747 q 65 711 81 741 l 65 711 q 58 694 64 700 l 58 694 q 50 683 55 692 l 50 683 q 40 646 43 683 l 40 646 q 41 645 41 646 l 41 645 q 29 628 41 643 l 29 628 q 24 610 27 622 l 24 610 q 5 586 5 589 q 8 578 5 583 l 8 578 q 3 526 6 547 l 3 526 q 7 488 5 488 l 7 488 q 1 477 1 480 l 1 477 l 1 475 q 4 462 4 463 l 4 462 l 4 435 l 7 430 l 3 418 q 10 384 3 412 l 10 384 q 42 288 26 321 l 42 288 q 85 217 51 258 l 85 217 q 117 179 104 189 l 117 179 l 118 179 q 123 181 122 179 l 123 181 q 139 168 139 176 l 139 168 l 139 158 q 140 153 139 156 l 140 153 q 155 143 151 148 l 155 143 q 180 127 178 131 l 180 127 q 195 117 195 119 l 195 117 q 218 94 195 101 l 218 94 q 229 100 222 95 l 229 100 q 233 96 233 97 l 233 96 q 267 84 234 96 l 267 84 l 269 84 q 288 88 273 84 l 288 88 q 296 77 288 85 l 296 77 q 325 73 296 75 l 325 73 q 343 75 334 75 l 343 75 l 346 75 q 355 80 351 75 l 355 80 l 357 80 q 361 77 361 77 l 361 77 l 363 77 q 373 76 369 76 l 373 76 l 382 76 q 391 77 386 76 l 391 77 q 397 90 395 90 l 397 90 q 400 90 398 90 l 400 90 q 408 81 406 81 l 408 81 l 409 81 q 477 108 433 84 l 477 108 q 478 107 477 107 l 478 107 l 479 107 q 486 120 486 111 l 486 120 l 486 125 q 488 127 488 125 l 488 127 l 488 129 l 488 130 l 488 130 q 503 122 497 122 l 503 122 q 513 117 507 117 l 513 117 l 517 117 q 566 146 546 130 l 566 146 q 599 189 587 168 l 599 189 q 621 264 621 237 l 621 264 q 616 277 620 277 l 616 277 l 613 277 q 594 256 605 270 l 594 256 q 557 221 583 243 l 557 221 l 549 221 q 530 207 538 212 l 530 207 q 488 202 499 205 l 488 202 q 465 203 471 203 l 465 203 q 463 201 463 203 l 463 201 q 455 204 458 204 l 455 204 q 418 194 435 194 l 418 194 q 395 202 398 202 l 395 202 l 393 202 q 386 201 391 202 l 386 201 q 367 210 374 210 l 367 210 l 363 210 q 361 215 363 211 l 361 215 q 330 224 343 218 l 330 224 l 330 223 l 330 219 l 326 219 q 315 229 317 219 l 315 229 q 275 247 283 237 l 275 247 q 252 273 254 271 l 252 273 q 231 302 241 292 l 231 302 q 210 360 216 332 l 210 360 q 195 395 195 391 l 195 395 l 195 396 q 202 416 195 399 l 202 416 l 195 440 q 196 444 196 441 l 196 444 l 196 451 q 186 477 194 461 l 186 477 l 186 478 q 193 479 190 479 l 193 479 q 199 487 198 487 l 199 487 q 196 502 196 495 l 196 502 l 196 504 q 204 522 196 505 l 204 522 q 214 566 214 536 l 214 566 q 230 604 214 584 l 230 604 q 256 642 256 622 l 256 642 q 265 652 256 650 l 265 652 q 296 675 288 675 l 296 675 l 296 679 l 294 683 q 297 685 297 684 l 297 685 q 320 694 314 690 l 320 694 q 326 710 322 707 l 326 710 q 364 730 355 724 l 364 730 q 378 741 372 739 l 378 741 q 414 747 407 745 l 414 747 q 435 758 434 758 q 442 751 437 758 l 442 751 l 444 751 q 473 760 461 760 l 473 760 q 481 758 477 760 l 481 758 q 503 761 488 760 l 503 761 q 512 760 505 761 l 512 760 q 541 747 539 747 l 541 747 q 551 749 548 747 l 551 749 q 560 742 555 749 l 560 742 q 566 744 562 742 l 566 744 l 579 734 q 623 714 608 723 l 623 714 q 661 680 644 700 l 661 680 q 686 658 686 672 l 686 658 l 686 652 q 690 649 688 649 l 690 649 q 696 640 694 640 l 696 640 q 712 628 707 637 l 712 628 q 722 609 719 609 l 722 609 l 743 573 q 758 553 755 562 l 758 553 q 769 522 765 553 l 769 522 q 778 514 774 519 l 778 514 q 783 487 778 498 l 783 487 q 782 484 782 486 l 782 484 q 792 427 782 479 l 792 427 q 778 358 789 392 l 778 358 q 751 289 771 336 l 751 289 q 728 254 728 256 l 728 254 q 713 233 724 250 l 713 233 q 667 185 677 185 l 667 185 q 622 145 629 145 l 622 145 q 576 104 583 104 l 576 104 l 574 104 q 566 106 571 106 l 566 106 q 532 96 549 106 l 532 96 q 533 94 532 95 l 533 94 q 519 87 533 91 l 519 87 l 514 88 q 511 84 513 84 l 511 84 l 503 84 q 487 73 498 84 l 487 73 q 472 78 477 75 l 472 78 q 460 68 462 68 l 460 68 q 446 68 458 68 l 446 68 q 437 59 437 61 l 437 59 q 418 56 420 58 l 418 56 l 416 57 q 400 56 410 57 l 400 56 q 391 57 398 56 l 391 57 q 375 55 378 55 l 375 55 l 370 56 l 353 54 q 339 56 346 56 l 339 56 q 332 55 336 56 l 332 55 q 312 58 328 57 l 312 58 q 280 66 284 66 l 280 66 q 275 64 278 66 l 275 64 q 279 55 275 60 l 279 55 q 346 22 326 22 l 346 22 q 353 23 350 22 l 353 23 q 355 14 353 18 q 393 3 357 11 l 393 3 q 424 -1 418 1 l 424 -1 l 431 0 q 446 -3 444 -3 l 446 -3 q 465 1 452 -3 l 465 1 l 506 -1 q 557 -20 516 -1 l 557 -20 q 585 -10 564 -20 l 585 -10 q 612 -21 610 -21 l 612 -21 l 612 -21 q 656 -13 640 -13 l 656 -13 l 661 -13 q 719 -18 711 -18 l 719 -18 q 739 -18 722 -18 l 739 -18 l 743 -18 l 742 -22 l 742 -23 q 744 -24 743 -23 l 744 -24 q 789 -22 754 -24 l 789 -22 l 793 -22 q 869 -50 842 -37 l 869 -50 l 871 -48 l 871 -41 q 875 -39 875 -41 l 875 -39 l 878 -39 q 901 -62 900 -62 l 901 -62 q 907 -72 903 -72 l 907 -72 q 918 -68 913 -69 l 918 -68 q 929 -73 929 -72 l 929 -73 q 1000 -119 958 -87 l 1000 -119 q 1061 -170 1047 -160 l 1061 -170 q 1069 -182 1068 -182 l 1069 -182 q 1089 -192 1076 -192 l 1089 -192 q 1147 -219 1131 -214 l 1147 -219 q 1151 -210 1149 -219 l 1151 -210 q 1166 -217 1156 -210 l 1166 -217 q 1181 -229 1172 -229 l 1181 -229 q 1221 -234 1215 -231 l 1221 -234 q 1233 -229 1223 -234 l 1233 -229 q 1242 -222 1240 -222 l 1242 -222 l 1249 -222 q 1322 -165 1289 -222 l 1322 -165 l 1322 -163 l 1304 -176 q 1234 -204 1286 -191 l 1234 -204 l 1232 -203 q 1211 -195 1232 -197 l 1211 -195 q 1135 -162 1159 -184 l 1135 -162 q 1095 -132 1112 -143 l 1095 -132 q 1081 -122 1082 -124 l 1081 -122 q 1066 -94 1081 -111 l 1066 -94 q 1032 -54 1056 -75 l 1032 -54 l 1032 -53 q 1034 -48 1032 -50 l 1034 -48 q 1018 -24 1031 -43 l 1018 -24 q 913 49 970 22 l 913 49 q 829 80 841 80 l 829 80 q 798 94 804 94 l 798 94 l 797 93 q 792 85 795 85 l 792 85 l 791 85 q 765 94 768 94 l 765 94 l 765 94 q 775 100 771 94 l 775 100 q 782 100 781 100 l 782 100 q 789 104 786 100 l 789 104 q 802 120 802 118 l 802 120 q 812 136 808 124 l 812 136 q 833 157 812 136 l 833 157 q 855 190 846 168 l 855 190 q 884 211 875 200 l 884 211 q 900 254 894 254 l 900 254 q 897 261 900 257 l 897 261 l 897 267 q 901 277 897 274 l 901 277 l 902 277 q 901 269 902 274 l 901 269 q 903 261 902 262 l 903 261 q 905 267 905 261 l 905 267 l 905 267 q 908 260 907 261 l 908 260 q 916 271 913 264 l 916 271 q 937 298 920 283 l 937 298 l 943 311 q 956 341 949 331 l 956 341 q 970 396 964 361 l 970 396 l 968 396 q 959 386 966 396 l 959 386 l 959 387 q 968 427 968 422 l 968 427 l 968 450 q 967 457 968 452 l 967 457 q 970 492 968 472 l 970 492 l 970 494 q 957 507 957 505 l 957 507 q 963 535 957 522 l 963 535 q 962 540 963 538 l 962 540 q 953 565 955 556 l 953 565 q 947 585 950 585 l 947 585 q 949 601 947 588 l 949 601 q 941 622 947 610 l 941 622 q 949 635 942 627 l 949 635 q 944 651 949 643 l 944 651 q 924 684 924 680 l 924 684 q 928 692 924 686 l 928 692 q 886 768 925 711 l 886 768 q 854 808 886 771 l 854 808 q 827 835 827 831 l 827 835 q 782 871 809 850 l 782 871 q 675 936 726 913 l 675 936 l 643 949 q 623 966 634 964 l 623 966 q 616 966 619 966 l 616 966 l 614 966 q 602 968 613 966 l 602 968 q 586 967 597 968 l 586 967 l 575 970 l 569 970 q 553 972 564 970 l 553 972 q 549 970 549 970 l 549 970 q 524 966 524 968 l 524 966 q 501 962 509 964 l 501 962 q 487 970 490 962 l 487 970 q 478 968 479 968 l 478 968 l 477 968 q 469 972 474 968 z "},"R":{"ha":935,"x_min":0,"x_max":1088,"o":"m 409 981 l 378 981 q 361 980 365 981 l 361 980 q 332 972 337 972 l 332 972 q 277 979 286 979 l 277 979 q 248 975 261 979 l 248 975 l 203 972 q 193 976 197 976 l 193 976 l 193 976 q 186 975 189 976 l 186 975 q 173 964 182 975 l 173 964 q 157 959 173 959 l 157 959 l 134 959 q 123 962 129 959 l 123 962 q 107 970 109 970 l 107 970 l 99 970 q 85 970 93 970 l 85 970 q 77 970 83 970 l 77 970 q 68 973 71 973 l 68 973 q 53 972 56 972 l 53 972 q 28 976 52 972 l 28 976 q 1 975 23 976 l 1 975 l 0 975 q 16 951 0 963 l 16 951 q 49 897 49 908 l 49 897 q 47 884 47 885 l 47 884 q 61 853 47 874 l 61 853 q 60 850 60 852 l 60 850 q 52 841 52 846 l 52 841 q 52 835 52 839 l 52 835 q 61 752 61 783 l 61 752 l 61 673 q 62 616 61 653 l 62 616 q 59 610 59 614 l 59 610 l 59 602 q 62 591 59 600 l 62 591 l 62 566 q 59 555 62 564 l 59 555 l 59 540 q 67 441 67 448 l 67 441 l 67 429 q 56 386 67 405 l 56 386 l 58 381 q 67 370 67 373 l 67 370 l 67 353 q 68 327 67 340 l 68 327 q 59 309 68 317 l 59 309 l 59 305 l 60 303 q 72 289 72 297 l 72 289 l 72 286 q 65 273 65 279 l 65 273 l 66 259 q 66 252 66 255 l 66 252 l 66 242 q 65 228 66 236 l 65 228 l 66 227 q 65 220 65 222 l 65 220 l 65 193 q 62 147 65 188 l 62 147 q 63 144 62 145 l 63 144 q 62 138 62 140 l 62 138 l 62 110 q 63 91 62 103 l 63 91 q 62 85 62 90 l 62 85 q 51 49 57 58 l 51 49 q 14 8 46 35 l 14 8 l 14 7 q 68 2 14 6 l 68 2 q 74 5 70 2 l 74 5 q 84 3 75 5 l 84 3 l 107 9 l 111 9 q 125 7 116 9 l 125 7 q 133 2 130 2 l 133 2 q 144 5 139 5 l 144 5 l 149 5 q 156 1 151 1 l 156 1 l 165 1 q 167 3 167 1 l 167 3 q 208 0 208 1 l 208 0 q 215 5 215 3 l 215 5 q 238 13 221 13 l 238 13 q 252 3 249 13 l 252 3 l 257 3 l 294 3 l 298 5 q 298 3 298 3 l 298 3 q 360 1 311 3 l 360 1 q 334 34 360 17 l 334 34 q 308 61 308 52 l 308 61 q 296 202 296 79 l 296 202 l 290 224 l 290 225 q 290 237 290 233 l 290 237 l 290 239 q 292 251 292 250 l 292 251 q 281 268 292 257 l 281 268 l 281 279 q 281 282 281 281 l 281 282 q 281 285 281 283 l 281 285 l 281 334 q 283 342 281 335 l 283 342 l 283 408 l 282 413 q 266 441 266 435 l 266 441 l 266 450 q 274 465 266 453 l 274 465 l 274 522 q 271 528 274 525 l 271 528 l 271 547 q 274 548 274 547 l 274 548 l 274 559 q 271 560 274 560 l 271 560 l 271 599 q 282 608 271 604 l 282 608 q 284 713 284 696 l 284 713 l 284 715 l 288 733 l 276 748 l 276 787 q 273 823 276 795 l 273 823 l 273 823 q 277 834 273 831 l 277 834 q 288 833 283 834 l 288 833 l 325 837 q 341 836 334 836 l 341 836 l 355 836 q 359 838 357 836 l 359 838 q 366 845 361 845 l 366 845 q 390 844 382 845 l 390 844 q 433 836 403 844 l 433 836 q 444 823 441 825 l 444 823 q 467 806 458 823 l 467 806 q 498 762 498 772 l 498 762 q 496 750 498 758 l 496 750 q 497 747 497 749 l 497 747 q 524 675 524 703 l 524 675 q 522 659 524 665 l 522 659 q 494 585 506 608 l 494 585 q 460 569 494 572 l 460 569 q 406 570 425 570 l 406 570 l 395 570 q 381 561 381 570 l 381 561 q 304 568 368 561 l 304 568 q 301 568 302 568 l 301 568 l 301 565 q 319 531 319 536 l 319 531 q 348 481 341 496 l 348 481 q 357 475 355 478 l 357 475 l 357 474 q 357 464 357 470 l 357 464 q 357 461 357 463 l 357 461 q 358 459 357 461 l 358 459 q 372 431 369 443 l 372 431 q 387 420 376 423 l 387 420 q 416 380 412 395 l 416 380 l 416 368 q 416 363 416 363 l 416 363 q 432 341 416 360 l 432 341 q 485 268 485 273 l 485 268 l 485 255 q 488 249 485 254 l 488 249 q 527 207 527 210 l 527 207 q 535 185 532 207 l 535 185 q 561 161 535 184 l 561 161 q 606 121 583 134 l 606 121 q 677 66 648 96 l 677 66 l 692 66 q 705 66 696 66 l 705 66 q 705 66 705 66 l 705 66 q 706 66 705 66 l 706 66 l 714 66 q 732 51 718 66 l 732 51 q 768 24 764 29 l 768 24 q 791 16 774 16 l 791 16 q 867 1 848 1 l 867 1 q 869 1 868 1 l 869 1 q 876 7 876 7 l 876 7 q 889 7 886 7 l 889 7 q 893 3 890 7 l 893 3 l 897 3 q 947 1 940 1 l 947 1 l 1031 1 q 1072 3 1040 1 l 1072 3 l 1088 3 l 1088 5 q 1035 34 1053 23 l 1035 34 q 1015 43 1023 43 l 1015 43 q 1005 46 1010 43 l 1005 46 q 978 64 980 64 l 978 64 q 972 63 976 64 l 972 63 q 941 82 951 75 l 941 82 q 828 168 848 150 l 828 168 q 799 199 817 185 l 799 199 q 766 230 774 214 l 766 230 q 760 250 762 247 l 760 250 q 747 257 747 254 l 747 257 l 747 258 q 749 264 749 262 l 749 264 l 749 271 q 729 298 729 295 l 729 298 q 711 304 726 304 l 711 304 q 696 338 703 304 l 696 338 q 699 349 696 340 l 699 349 q 684 376 699 353 l 684 376 q 641 435 651 418 l 641 435 q 629 446 641 441 l 629 446 q 565 458 585 454 l 565 458 q 549 448 558 458 l 549 448 l 547 448 q 544 457 544 448 l 544 457 q 535 463 544 459 l 535 463 q 508 475 514 469 l 508 475 l 508 475 q 511 476 510 475 l 511 476 q 540 474 526 474 l 540 474 l 550 474 q 586 481 568 474 l 586 481 q 617 491 614 484 l 617 491 q 630 513 627 513 l 630 513 l 631 513 l 640 510 l 642 511 q 672 539 665 536 l 672 539 q 701 574 684 550 l 701 574 l 701 576 l 699 602 q 717 619 699 611 l 717 619 q 723 632 722 619 l 723 632 q 739 753 739 718 l 739 753 q 733 776 739 766 l 733 776 q 718 801 718 798 l 718 801 l 718 804 q 722 815 722 813 l 722 815 l 722 821 q 701 852 722 828 l 701 852 q 666 900 674 892 l 666 900 q 642 921 650 918 l 642 921 q 614 948 623 948 l 614 948 l 606 948 q 558 955 558 952 l 558 955 q 541 970 550 955 l 541 970 q 533 970 533 970 l 533 970 q 523 970 527 970 l 523 970 l 505 970 q 496 967 503 970 l 496 967 l 466 967 q 448 970 450 970 l 448 970 l 443 970 q 437 972 440 970 l 437 972 q 409 981 415 972 l 409 981 z "},"S":{"ha":566,"x_min":-3,"x_max":564,"o":"m 363 972 l 363 972 q 357 968 359 972 l 357 968 q 303 969 311 969 l 303 969 q 277 962 277 963 l 277 962 q 280 948 277 958 l 280 948 l 279 948 q 264 947 277 948 l 264 947 l 261 947 l 261 956 q 260 958 261 958 l 260 958 l 258 957 l 258 958 q 228 946 243 954 l 228 946 q 168 921 187 932 l 168 921 q 113 914 113 918 l 113 914 q 78 882 107 914 l 78 882 q 37 816 54 842 l 37 816 q 4 729 4 747 l 4 729 l 4 726 q 5 724 4 724 l 5 724 q 16 720 14 722 l 16 720 q -3 702 9 711 l -3 702 l -3 699 q 0 663 -3 689 l 0 663 q 5 655 5 658 l 5 655 q 4 638 5 648 l 4 638 q 5 628 4 636 l 5 628 q 5 618 5 622 l 5 618 q 12 599 5 612 l 12 599 q 26 570 20 572 l 26 570 q 40 540 33 548 l 40 540 q 99 481 63 506 l 99 481 q 104 483 100 481 l 104 483 q 113 478 107 483 l 113 478 q 172 454 163 458 l 172 454 q 194 431 194 439 l 194 431 q 216 425 194 425 l 216 425 l 220 425 q 228 426 227 426 l 228 426 q 229 424 228 425 l 229 424 q 227 414 227 415 l 227 414 q 237 402 227 407 l 237 402 q 285 380 254 388 l 285 380 q 323 351 305 375 l 323 351 q 357 260 357 297 l 357 260 l 357 256 q 341 201 357 227 l 341 201 q 326 191 337 193 l 326 191 q 309 180 317 191 l 309 180 q 286 161 298 161 l 286 161 q 283 162 284 162 l 283 162 q 250 160 253 160 l 250 160 q 194 163 204 160 l 194 163 q 180 157 182 159 l 180 157 q 172 136 179 157 l 172 136 l 172 134 l 169 134 l 167 149 l 167 149 q 176 161 167 154 l 176 161 q 139 168 175 165 l 139 168 q 108 180 116 174 l 108 180 q 88 187 103 182 l 88 187 q 89 189 88 188 l 89 189 q 87 194 88 192 l 87 194 q 53 233 58 220 l 53 233 q 44 214 46 233 l 44 214 q 35 180 35 184 l 35 180 q 26 123 26 150 l 26 123 q 29 117 26 119 l 29 117 q 18 49 29 94 l 18 49 l 14 50 q 12 48 12 50 l 12 48 l 12 38 q 61 26 12 36 l 61 26 q 97 54 89 54 l 97 54 l 98 54 l 100 52 q 91 39 100 47 l 91 39 q 83 26 83 37 l 83 26 l 83 25 q 96 24 96 24 l 96 24 q 127 13 123 24 l 127 13 q 175 9 145 13 l 175 9 l 178 9 q 210 12 201 12 l 210 12 l 214 12 q 237 6 237 12 l 237 6 q 236 3 236 5 l 236 3 l 236 3 q 248 0 236 1 l 248 0 l 249 0 q 276 12 254 0 l 276 12 l 322 10 q 323 11 322 11 l 323 11 q 332 9 323 10 l 332 9 q 389 26 349 16 l 389 26 q 438 39 427 39 l 438 39 q 481 68 444 39 l 481 68 q 488 78 481 78 l 488 78 l 489 78 l 490 74 l 492 74 l 500 114 q 528 154 514 132 l 528 154 q 541 239 535 209 l 541 239 l 541 247 q 534 286 541 259 l 534 286 l 534 291 q 536 292 535 291 l 536 292 q 536 296 536 296 l 536 296 q 528 336 536 317 l 528 336 l 530 336 q 542 312 539 324 l 542 312 q 549 300 549 302 l 549 300 q 549 286 549 289 l 549 286 l 549 283 q 559 262 559 267 l 559 262 l 562 262 l 564 263 q 562 288 563 288 l 562 288 q 554 331 562 317 l 554 331 q 549 361 554 355 l 549 361 q 538 392 543 387 l 538 392 l 535 391 l 530 391 q 528 394 528 391 l 528 394 l 528 402 q 497 444 525 413 l 497 444 q 472 473 472 471 l 472 473 q 458 491 465 491 l 458 491 q 444 481 450 484 l 444 481 l 443 481 l 443 496 q 447 508 443 499 l 447 508 q 429 524 443 517 l 429 524 q 407 541 413 538 l 407 541 q 359 558 366 551 l 359 558 q 349 581 352 576 l 349 581 l 348 581 q 327 578 344 581 l 327 578 q 322 580 325 578 l 322 580 q 311 590 314 589 l 311 590 l 311 598 q 261 627 311 600 l 261 627 q 238 637 243 632 l 238 637 q 204 668 216 651 l 204 668 q 193 720 193 677 l 193 720 l 193 740 q 194 750 193 743 l 194 750 q 193 755 193 750 l 193 755 q 195 758 194 758 l 195 758 l 199 758 q 208 766 205 758 l 208 766 q 204 767 207 767 l 204 767 l 204 770 l 211 770 q 232 797 227 794 l 232 797 l 233 797 l 236 794 q 251 808 239 794 l 251 808 q 281 825 258 812 l 281 825 l 281 829 q 294 825 292 825 l 294 825 l 294 825 q 316 831 300 825 l 316 831 q 382 848 382 844 l 382 848 q 436 820 401 846 l 436 820 q 451 804 445 806 l 451 804 q 470 787 460 800 l 470 787 q 477 776 475 777 l 477 776 q 484 779 484 777 l 484 779 l 484 781 q 480 806 484 787 l 480 806 l 480 823 q 473 895 473 842 l 473 895 q 477 906 473 899 l 477 906 q 480 936 478 919 l 480 936 l 480 938 q 439 960 480 946 l 439 960 q 363 972 380 972 z "},"T":{"ha":768,"x_min":-3,"x_max":772,"o":"m 131 988 l 131 988 q 129 986 129 987 l 129 986 l 129 981 q 119 982 125 981 l 119 982 q 41 983 69 983 l 41 983 l 39 983 q 26 899 30 899 l 26 899 q 12 879 16 892 l 12 879 q -3 799 -3 825 l -3 799 l -2 791 q 2 793 -1 791 l 2 793 q 48 834 14 798 l 48 834 q 117 853 74 853 l 117 853 l 120 853 q 138 847 125 853 l 138 847 q 215 848 158 847 l 215 848 q 230 847 226 847 l 230 847 l 260 836 q 278 817 273 829 l 278 817 q 287 691 287 748 l 287 691 l 287 688 q 282 676 282 680 l 282 676 l 282 673 q 283 671 282 671 l 283 671 q 291 675 286 671 l 291 675 l 292 675 l 293 675 q 275 644 293 670 l 275 644 q 277 640 277 642 l 277 640 q 288 635 288 638 l 288 635 l 288 629 q 287 614 288 623 l 287 614 q 289 604 289 608 l 289 604 q 285 517 287 550 l 285 517 q 291 496 285 500 l 291 496 q 304 488 304 492 l 304 488 q 304 487 304 488 l 304 487 q 286 479 286 483 l 286 479 l 286 471 q 293 403 293 413 l 293 403 q 292 399 293 400 l 292 399 l 293 395 l 293 394 q 294 357 293 376 l 294 357 q 291 338 293 338 l 291 338 l 286 340 l 284 340 q 281 334 282 340 l 281 334 q 282 293 282 307 l 282 293 l 287 252 l 287 250 q 282 225 287 244 l 282 225 q 283 217 282 222 l 283 217 q 293 200 293 205 l 293 200 q 287 161 287 167 l 287 161 l 287 159 q 293 145 293 149 l 293 145 l 293 144 q 288 102 293 122 l 288 102 q 278 83 280 91 l 278 83 q 265 49 278 62 l 265 49 q 246 19 255 26 l 246 19 q 228 3 232 12 l 228 3 q 230 1 228 1 l 230 1 l 273 1 q 285 -5 282 -5 l 285 -5 q 345 -4 322 -4 l 345 -4 l 346 -4 q 366 -1 363 -1 l 366 -1 l 369 -1 l 371 -1 q 376 7 371 7 l 376 7 l 382 7 q 401 10 399 10 l 401 10 q 416 7 416 9 l 416 7 q 475 -3 416 -3 l 475 -3 l 492 -3 q 556 -9 511 -3 l 556 -9 q 558 -9 557 -9 l 558 -9 q 530 15 551 3 l 530 15 q 509 45 512 33 l 509 45 q 511 73 509 56 l 511 73 l 509 78 q 498 85 498 81 l 498 85 q 499 101 498 92 l 499 101 l 504 101 l 505 104 q 500 134 505 125 l 500 134 l 498 132 q 498 140 498 134 l 498 140 q 499 176 498 159 l 499 176 q 498 216 498 215 l 498 216 q 499 309 499 285 l 499 309 l 499 313 q 492 347 492 329 l 492 347 q 498 358 492 358 l 498 358 q 499 385 499 377 l 499 385 l 499 388 q 498 394 499 391 l 498 394 q 493 405 493 401 l 493 405 l 493 448 q 488 456 488 453 l 488 456 q 490 477 488 463 l 490 477 q 489 483 489 481 l 489 483 l 489 484 q 492 481 492 482 l 492 481 q 493 483 493 481 l 493 483 l 493 486 q 499 507 493 500 l 499 507 l 499 515 q 496 517 499 517 l 496 517 q 493 517 495 517 l 493 517 l 492 517 q 492 519 492 517 l 492 519 q 496 571 494 571 l 496 571 q 505 580 505 575 l 505 580 q 503 582 505 582 l 503 582 l 496 582 q 487 593 487 582 l 487 593 q 488 621 488 612 l 488 621 q 487 673 488 641 l 487 673 q 489 687 488 686 l 489 687 l 491 687 q 494 694 494 687 l 494 694 q 493 724 494 698 l 493 724 q 498 750 493 736 l 498 750 q 505 810 502 797 l 505 810 l 508 809 q 515 824 510 809 l 515 824 l 515 825 q 524 832 517 825 l 524 832 q 560 858 551 858 l 560 858 l 561 858 q 567 852 562 858 l 567 852 q 570 852 568 852 l 570 852 l 607 847 q 722 823 675 847 l 722 823 q 768 783 732 820 l 768 783 l 770 783 q 772 788 771 783 l 772 788 q 768 809 772 793 l 768 809 q 758 840 758 829 l 758 840 q 760 869 760 862 l 760 869 q 749 885 760 880 l 749 885 q 734 905 739 885 l 734 905 q 720 975 723 962 l 720 975 q 708 983 717 983 l 708 983 l 705 983 q 687 977 692 977 l 687 977 l 677 977 q 656 978 671 977 l 656 978 q 656 979 656 979 l 656 979 q 642 983 656 983 l 642 983 q 545 977 621 983 l 545 977 q 527 972 534 972 l 527 972 l 515 972 q 493 978 507 972 l 493 978 q 490 975 490 977 l 490 975 q 482 972 490 972 l 482 972 q 471 961 476 961 l 471 961 l 470 961 l 469 965 q 456 974 469 974 l 456 974 q 403 972 441 972 l 403 972 q 307 974 382 972 l 307 974 q 282 966 293 974 l 282 966 q 277 970 277 966 l 277 970 q 271 978 277 978 l 271 978 l 245 972 q 212 979 242 972 l 212 979 q 178 978 182 978 l 178 978 l 159 983 q 144 982 155 983 l 144 982 l 142 983 q 131 988 132 988 z "},"U":{"ha":919,"x_min":0,"x_max":914,"o":"m 220 974 l 218 974 q 213 971 215 971 l 213 971 q 176 972 186 972 l 176 972 l 170 972 q 147 966 156 966 l 147 966 l 144 966 q 125 966 138 966 l 125 966 q 116 972 125 972 l 116 972 q 113 971 115 972 l 113 971 q 105 972 109 972 l 105 972 l 1 972 l 0 971 q 14 951 0 963 l 14 951 q 37 939 37 942 l 37 939 q 68 892 68 909 l 68 892 q 66 863 68 888 l 66 863 l 67 860 q 73 843 73 860 l 73 843 q 71 814 72 823 l 71 814 q 75 729 72 733 l 75 729 q 87 693 87 699 l 87 693 l 87 690 q 75 636 75 646 l 75 636 q 77 606 77 618 l 77 606 l 74 563 l 74 553 q 75 543 74 549 l 75 543 q 92 530 75 539 l 92 530 q 87 493 87 497 l 87 493 l 87 491 l 97 327 q 92 309 92 313 l 92 309 l 92 307 l 117 250 q 184 129 141 201 l 184 129 q 259 113 224 113 l 259 113 l 260 113 q 229 109 256 109 l 229 109 l 227 109 l 226 107 q 229 100 229 100 l 229 100 q 264 68 237 79 l 264 68 q 339 42 279 60 l 339 42 q 363 25 359 35 l 363 25 q 404 17 368 17 l 404 17 q 484 0 471 0 l 484 0 q 490 3 488 0 l 490 3 q 498 10 490 10 l 498 10 q 543 9 513 10 l 543 9 q 631 24 566 9 l 631 24 q 690 54 669 36 l 690 54 q 745 105 738 91 l 745 105 q 765 138 751 138 l 765 138 l 780 138 q 788 141 788 139 l 788 141 q 793 155 791 141 l 793 155 q 806 197 802 192 l 806 197 q 823 223 823 221 l 823 223 q 848 296 842 275 l 848 296 l 848 302 q 848 338 848 317 l 848 338 l 848 341 q 853 361 853 359 l 853 361 q 852 362 852 361 l 852 362 l 853 362 q 854 406 854 395 l 854 406 q 850 425 854 415 l 850 425 q 838 442 838 437 l 838 442 q 848 501 848 471 l 848 501 l 848 518 q 848 524 848 520 l 848 524 l 849 545 q 848 608 848 595 l 848 608 l 854 640 l 852 688 l 859 741 q 858 744 858 742 l 858 744 q 850 813 850 761 l 850 813 q 854 854 850 836 l 854 854 q 869 882 869 878 l 869 882 q 868 893 869 883 l 868 893 l 868 896 q 899 949 869 910 l 899 949 q 914 962 904 956 l 914 962 l 914 970 q 913 972 914 971 l 913 972 l 831 972 q 822 971 826 972 l 822 971 q 810 966 812 966 l 810 966 l 806 966 q 782 972 802 966 l 782 972 l 781 972 q 739 965 750 965 l 739 965 l 739 965 q 725 966 726 966 l 725 966 l 697 966 q 675 972 683 972 l 675 972 q 669 972 671 972 l 669 972 l 638 972 l 637 971 q 672 926 637 962 l 672 926 q 688 888 688 906 l 688 888 q 688 876 688 880 l 688 876 q 690 870 688 873 l 690 870 q 699 858 699 862 l 699 858 l 699 855 q 693 844 693 850 l 693 844 l 693 838 q 694 819 693 826 l 694 819 q 700 781 700 789 l 700 781 q 699 725 699 741 l 699 725 l 699 576 q 704 526 704 539 l 704 526 l 704 407 q 705 370 704 390 l 705 370 q 699 340 705 355 l 699 340 q 680 308 684 317 l 680 308 q 669 248 675 268 l 669 248 q 629 194 661 216 l 629 194 q 609 183 616 194 l 609 183 q 578 163 600 172 l 578 163 l 576 164 q 567 161 569 161 l 567 161 q 536 149 541 149 l 536 149 q 523 151 534 149 l 523 151 q 509 139 509 146 l 509 139 l 508 139 l 501 144 l 486 144 l 483 144 q 476 150 483 150 l 476 150 l 473 150 q 455 151 465 150 l 455 151 q 447 150 452 150 l 447 150 q 416 170 425 168 l 416 170 q 378 193 382 182 l 378 193 q 361 218 378 207 l 361 218 q 345 250 349 231 l 345 250 q 341 283 343 283 l 341 283 q 324 294 341 291 l 324 294 q 319 319 321 311 l 319 319 q 303 386 308 351 l 303 386 q 304 388 304 387 l 304 388 q 308 390 308 389 l 308 390 l 308 398 q 303 439 303 422 l 303 439 l 303 458 q 298 502 303 466 l 298 502 q 298 510 298 505 l 298 510 q 304 601 304 531 l 304 601 q 304 635 304 618 l 304 635 l 297 664 l 288 677 q 300 696 297 690 l 300 696 q 308 780 308 755 l 308 780 l 308 829 q 312 854 308 845 l 312 854 q 319 908 315 890 l 319 908 q 346 954 319 926 l 346 954 q 370 970 359 960 l 370 970 l 369 972 q 317 972 351 972 l 317 972 q 273 972 284 972 l 273 972 l 270 972 q 237 962 245 962 l 237 962 l 235 962 q 220 974 231 962 l 220 974 z "},"V":{"ha":987,"x_min":0,"x_max":991,"o":"m 124 975 l 124 975 q 110 975 115 975 l 110 975 q 94 969 96 969 l 94 969 q 66 975 68 975 l 66 975 l 65 975 q 62 969 63 975 l 62 969 q 57 970 60 969 l 57 970 q 47 975 51 975 l 47 975 l 0 975 l 0 974 q 31 955 28 956 l 31 955 q 80 908 62 932 l 80 908 q 151 779 125 844 l 151 779 q 188 713 163 748 l 188 713 q 207 680 201 701 l 207 680 l 207 679 q 202 676 202 678 l 202 676 l 202 675 q 223 633 221 642 l 223 633 q 222 629 222 631 l 222 629 q 233 602 222 619 l 233 602 q 260 545 251 554 l 260 545 q 279 504 269 545 l 279 504 l 278 504 q 264 511 267 511 l 264 511 q 262 509 262 511 l 262 509 q 271 494 268 501 l 271 494 q 295 456 274 479 l 295 456 q 308 420 302 435 l 308 420 q 393 246 365 313 l 393 246 q 414 189 406 203 l 414 189 q 426 172 426 183 l 426 172 q 421 165 426 167 l 421 165 l 422 159 q 442 151 422 156 l 442 151 q 454 132 450 137 l 454 132 l 454 131 q 442 111 442 114 l 442 111 l 442 109 q 446 100 442 106 l 446 100 q 475 50 469 68 l 475 50 q 520 0 481 26 l 520 0 q 542 37 528 9 l 542 37 q 617 222 572 107 l 617 222 q 640 274 640 264 l 640 274 l 640 279 q 633 291 640 286 l 633 291 l 633 296 q 635 296 633 296 l 635 296 q 651 297 642 296 l 651 297 q 653 296 652 296 l 653 296 l 654 297 q 648 307 654 299 l 648 307 q 653 318 650 313 l 653 318 q 665 346 659 321 l 665 346 q 723 465 723 456 l 723 465 q 721 476 723 466 l 721 476 l 721 477 q 732 492 721 486 l 732 492 q 749 527 736 494 l 749 527 q 777 608 767 570 l 777 608 q 791 615 777 611 l 791 615 q 805 637 801 615 l 805 637 q 827 681 808 652 l 827 681 l 846 730 q 864 761 864 760 l 864 761 q 882 820 870 791 l 882 820 q 926 880 896 860 l 926 880 q 954 918 945 900 l 954 918 q 991 959 959 931 l 991 959 l 991 968 q 970 975 984 972 l 970 975 l 968 975 l 942 969 l 903 969 q 901 967 901 969 l 901 967 l 901 952 q 899 953 900 952 l 899 953 q 882 951 884 951 l 882 951 l 878 952 q 858 964 868 964 l 858 964 l 830 964 q 820 963 826 964 l 820 963 q 777 969 814 963 l 777 969 l 768 969 q 766 970 767 969 l 766 970 q 756 975 762 975 l 756 975 q 747 975 751 975 l 747 975 l 742 975 l 738 969 l 722 969 l 724 966 q 745 948 745 954 l 745 948 q 744 934 744 938 l 744 934 l 744 930 l 745 928 l 749 928 l 749 924 l 749 911 q 739 885 739 894 l 739 885 l 735 886 q 732 885 734 886 l 732 885 q 745 863 732 882 l 745 863 q 728 856 745 859 l 728 856 q 716 833 724 854 l 716 833 q 684 750 699 781 l 684 750 q 614 602 628 639 l 614 602 q 597 565 597 570 l 597 565 q 582 523 597 536 l 582 523 q 558 452 565 472 l 558 452 q 536 403 549 403 l 536 403 l 535 403 q 523 448 524 411 l 523 448 q 510 463 523 452 l 510 463 q 479 527 495 497 l 479 527 q 440 628 467 558 l 440 628 q 398 751 416 708 l 398 751 q 390 767 390 751 l 390 767 q 368 829 390 780 l 368 829 q 340 889 344 878 l 340 889 q 342 897 342 895 l 342 897 l 342 903 l 340 908 l 338 908 l 336 907 q 334 915 335 907 l 334 915 q 335 918 335 916 l 335 918 l 335 926 q 353 953 335 937 l 353 953 q 374 973 374 972 l 374 973 l 374 975 l 370 974 q 350 975 355 975 l 350 975 q 347 975 349 975 l 347 975 q 345 975 346 975 l 345 975 l 278 975 q 271 974 275 975 l 271 974 q 260 969 262 969 l 260 969 l 258 969 l 253 970 q 250 969 252 969 l 250 969 q 243 963 246 963 l 243 963 l 242 963 q 222 970 229 963 l 222 970 q 177 975 222 975 l 177 975 l 175 975 l 166 975 q 161 969 163 969 l 161 969 l 160 969 q 151 975 158 975 l 151 975 q 134 975 134 975 l 134 975 l 132 974 l 134 969 l 133 969 q 124 975 129 975 z "},"W":{"ha":1353,"x_min":0,"x_max":1350,"o":"m 1116 981 l 1116 981 q 1106 981 1111 981 l 1106 981 l 1102 981 l 1098 975 l 1082 975 l 1084 972 q 1105 954 1105 960 l 1105 954 q 1103 940 1103 944 l 1103 940 l 1103 936 l 1105 934 l 1109 935 l 1109 931 l 1109 918 q 1099 891 1099 900 l 1099 891 l 1093 892 l 1093 892 l 1093 891 q 1104 870 1093 888 l 1104 870 q 1087 861 1104 867 l 1087 861 q 1074 833 1084 860 l 1074 833 q 1044 755 1059 788 l 1044 755 q 972 604 993 656 l 972 604 q 957 567 957 579 l 957 567 q 942 530 957 545 l 942 530 q 919 461 926 479 l 919 461 q 897 412 910 412 l 897 412 q 895 412 895 412 l 895 412 q 884 447 884 425 l 884 447 q 873 469 884 463 l 873 469 q 853 509 870 473 l 853 509 q 802 637 832 552 l 802 637 q 811 661 805 648 l 811 661 l 811 661 q 802 680 802 673 l 802 680 q 787 708 787 694 l 787 708 q 777 727 777 722 l 777 727 q 767 755 771 736 l 767 755 l 767 762 q 761 779 761 768 l 761 779 l 755 804 l 755 812 l 747 832 q 728 854 743 842 l 728 854 l 727 854 q 715 839 723 839 l 715 839 q 707 814 713 838 l 707 814 q 700 810 700 810 l 700 810 l 700 792 q 692 785 700 787 l 692 785 q 684 763 689 769 l 684 763 q 665 737 679 746 l 665 737 q 657 715 662 720 l 657 715 q 646 691 657 709 l 646 691 l 647 690 q 646 682 647 686 l 646 682 q 642 663 642 666 l 642 663 q 642 654 642 656 l 642 654 q 619 620 642 633 l 619 620 q 610 607 616 607 l 610 607 l 610 600 q 610 597 610 597 l 610 597 q 593 560 593 568 l 593 560 q 578 519 593 534 l 578 519 q 555 450 562 469 l 555 450 q 533 401 547 401 l 533 401 q 531 401 532 401 l 531 401 q 521 436 521 414 l 521 436 q 511 456 521 453 l 511 456 q 491 496 507 460 l 491 496 q 432 642 469 538 l 432 642 l 431 641 l 429 641 q 419 656 423 654 l 419 656 q 409 670 410 661 l 409 670 q 419 679 409 677 l 419 679 l 420 679 q 395 749 399 745 l 395 749 q 388 762 388 749 l 388 762 q 362 832 388 778 l 362 832 q 339 884 342 873 l 339 884 q 340 891 340 888 l 340 891 l 340 899 l 339 903 l 337 903 l 334 902 q 332 910 333 902 l 332 910 q 333 923 333 911 l 333 923 q 353 950 333 932 l 353 950 q 372 968 372 967 l 372 968 l 372 970 l 368 969 q 347 970 347 970 l 347 970 q 340 970 342 970 l 340 970 l 275 970 q 269 969 272 970 l 269 969 q 259 964 261 964 l 259 964 l 256 964 l 252 964 q 249 964 250 964 l 249 964 q 242 958 245 958 l 242 958 l 240 958 q 220 964 228 958 l 220 964 q 178 970 220 970 l 178 970 l 174 970 l 165 970 q 161 964 162 964 l 161 964 l 159 964 q 151 970 157 970 l 151 970 q 133 970 134 970 l 133 970 l 132 969 q 134 965 132 965 l 134 965 q 132 964 134 964 l 132 964 q 123 970 128 970 l 123 970 q 109 970 114 970 l 109 970 q 93 964 96 964 l 93 964 q 66 970 68 970 l 66 970 l 64 970 q 62 964 63 970 l 62 964 q 57 964 60 964 l 57 964 q 47 970 50 970 l 47 970 l 0 970 l 0 969 l 37 945 q 76 909 50 938 l 76 909 q 140 800 117 852 l 140 800 q 181 718 165 737 l 181 718 q 206 677 200 697 l 206 677 l 206 675 q 201 673 201 674 l 201 673 l 201 671 q 222 629 216 648 l 222 629 q 221 627 221 628 l 221 627 q 232 599 221 616 l 232 599 q 258 542 249 551 l 258 542 q 277 501 268 542 l 277 501 l 277 501 q 262 508 265 508 l 262 508 q 261 507 261 508 l 261 507 q 270 492 264 503 l 270 492 q 293 454 273 476 l 293 454 q 307 418 300 431 l 307 418 q 391 245 363 311 l 391 245 q 412 188 404 203 l 412 188 q 423 172 423 182 l 423 172 q 419 163 423 166 l 419 163 l 420 159 q 440 150 420 155 l 440 150 q 451 132 448 135 l 451 132 q 450 130 451 131 l 450 130 q 440 109 440 113 l 440 109 q 442 100 440 106 l 442 100 q 473 48 467 67 l 473 48 q 517 0 480 24 l 517 0 q 539 37 529 15 l 539 37 q 614 220 570 110 l 614 220 q 637 273 637 263 l 637 273 l 637 277 q 629 290 637 283 l 629 290 l 629 294 q 631 294 630 294 l 631 294 q 648 295 638 294 l 648 295 q 650 294 648 294 l 650 294 l 651 295 q 645 304 651 298 l 645 304 q 655 323 645 312 l 655 323 q 688 394 661 345 l 688 394 q 758 249 726 326 l 758 249 q 779 197 770 202 l 779 197 q 787 183 787 193 l 787 183 q 783 174 787 177 l 783 174 l 784 170 q 804 161 784 166 l 804 161 q 814 142 812 146 l 814 142 q 814 140 814 142 l 814 140 q 804 119 804 124 l 804 119 q 806 111 804 117 l 806 111 q 837 59 830 78 l 837 59 q 881 11 844 35 l 881 11 q 903 48 892 26 l 903 48 q 978 231 934 121 l 978 231 q 1000 283 1000 274 l 1000 283 l 1000 288 q 993 300 1000 294 l 993 300 l 993 306 q 995 304 994 306 l 995 304 q 1012 307 1002 304 l 1012 307 q 1013 306 1012 306 l 1013 306 l 1015 307 q 1009 316 1015 309 l 1009 316 l 1011 324 q 1027 358 1019 329 l 1027 358 q 1083 472 1083 465 l 1083 472 q 1081 484 1083 475 l 1081 484 l 1081 487 q 1089 498 1081 492 l 1089 498 q 1105 529 1096 498 l 1105 529 q 1134 604 1126 578 l 1134 604 q 1141 619 1137 619 l 1141 619 q 1160 629 1157 623 l 1160 629 q 1174 669 1169 661 l 1174 669 q 1204 734 1188 685 l 1204 734 q 1225 775 1225 769 l 1225 775 q 1253 852 1227 797 l 1253 852 q 1282 885 1259 865 l 1282 885 q 1312 923 1304 905 l 1312 923 q 1350 964 1317 937 l 1350 964 l 1350 975 q 1329 981 1333 981 l 1329 981 l 1327 981 l 1301 975 l 1261 975 q 1260 973 1260 975 l 1260 973 l 1260 958 q 1258 959 1259 958 l 1258 959 q 1241 958 1243 958 l 1241 958 l 1238 958 q 1217 970 1227 970 l 1217 970 l 1185 970 l 1181 969 q 1135 975 1176 969 l 1135 975 l 1128 975 q 1125 975 1126 975 l 1125 975 q 1116 981 1122 981 z "},"X":{"ha":1002,"x_min":-3,"x_max":1016,"o":"m 64 975 l 64 975 q 59 969 59 972 l 59 969 q 61 968 60 968 l 61 968 q 100 917 78 951 l 100 917 q 113 908 102 911 l 113 908 q 140 858 121 897 l 140 858 l 140 857 l 130 861 l 129 861 l 129 859 q 158 830 130 857 l 158 830 q 224 734 207 757 l 224 734 q 300 616 284 660 l 300 616 q 328 609 321 612 l 328 609 q 338 581 334 609 l 338 581 l 366 539 q 393 500 393 512 l 393 500 q 388 486 393 494 l 388 486 q 368 459 372 466 l 368 459 q 309 378 309 390 l 309 378 l 309 375 q 315 361 315 363 l 315 361 l 315 358 q 309 349 314 349 l 309 349 l 298 350 l 296 350 q 280 334 290 350 l 280 334 q 252 282 259 288 l 252 282 q 212 245 220 257 l 212 245 q 159 158 181 191 l 159 158 q 102 94 155 146 l 102 94 q 69 66 83 75 l 69 66 q 25 32 59 63 l 25 32 q 6 16 6 20 l 6 16 q -3 -1 -3 2 l -3 -1 l -3 -2 q 0 -1 -1 -2 l 0 -1 q 31 9 20 9 l 31 9 l 109 9 l 109 11 l 107 18 l 107 18 l 109 18 q 138 9 132 9 l 138 9 q 143 10 141 9 l 143 10 q 163 19 155 19 l 163 19 l 170 19 q 199 16 199 19 l 199 16 q 210 9 202 9 l 210 9 l 212 9 q 217 13 213 9 l 217 13 q 258 20 217 20 l 258 20 q 275 18 265 20 l 275 18 q 293 18 281 18 l 293 18 q 302 9 294 18 l 302 9 l 320 9 q 323 18 323 9 l 323 18 l 323 36 l 317 75 q 329 121 317 91 l 329 121 l 371 195 q 432 287 401 251 l 432 287 q 458 317 455 316 l 458 317 q 465 323 464 323 l 465 323 q 483 333 480 333 l 483 333 l 484 333 q 485 330 484 332 l 485 330 q 549 243 533 267 l 549 243 q 602 147 581 183 l 602 147 q 619 112 619 130 l 619 112 q 629 62 629 77 l 629 62 l 629 57 q 615 19 629 35 l 615 19 l 615 10 l 616 9 q 646 9 622 9 l 646 9 q 665 7 654 9 l 665 7 q 707 -3 692 -3 l 707 -3 q 757 -2 716 -3 l 757 -2 q 763 0 760 -2 l 763 0 q 762 7 762 5 q 766 9 762 8 l 766 9 q 777 3 774 9 l 777 3 q 812 -3 777 -3 l 812 -3 q 823 7 823 -3 l 823 7 q 857 9 823 9 l 857 9 l 858 9 q 876 6 869 9 l 876 6 q 889 -2 885 -2 l 889 -2 q 964 -1 913 -2 l 964 -1 q 980 -7 973 -1 l 980 -7 q 1011 -13 983 -13 l 1011 -13 l 1016 -13 l 1016 -12 l 1010 -12 q 996 10 1008 -5 l 996 10 q 968 31 987 17 l 968 31 q 918 77 951 39 l 918 77 q 801 267 852 176 l 801 267 q 770 306 792 280 l 770 306 q 753 355 763 320 l 753 355 q 729 380 753 363 l 729 380 q 715 389 724 389 l 715 389 q 703 403 705 389 l 703 403 l 703 404 q 708 424 703 408 l 708 424 l 708 428 q 660 503 708 437 l 660 503 q 625 545 648 525 l 625 545 q 629 557 625 549 l 629 557 q 659 604 654 593 l 659 604 q 684 646 659 626 l 684 646 q 717 688 710 673 l 717 688 q 776 767 734 720 l 776 767 q 820 844 788 781 l 820 844 q 869 895 842 864 l 869 895 q 942 954 922 945 l 942 954 q 960 962 959 961 l 960 962 l 960 970 l 959 972 l 885 975 l 882 975 q 836 971 865 971 l 836 971 l 785 971 l 783 970 q 772 960 779 960 l 772 960 l 770 960 q 754 962 760 960 l 754 962 q 745 972 750 972 l 745 972 l 726 972 q 676 974 721 972 l 676 974 l 668 974 q 635 971 648 974 l 635 971 q 646 952 638 961 l 646 952 q 665 920 662 933 l 665 920 l 665 920 q 665 892 665 913 l 665 892 q 663 884 665 890 l 663 884 q 652 844 652 873 l 652 844 l 652 842 q 655 829 652 836 l 655 829 l 651 827 q 637 829 650 827 l 637 829 l 636 829 q 631 826 633 829 l 631 826 q 565 744 578 770 l 565 744 q 530 686 539 690 l 530 686 q 527 689 530 687 l 527 689 l 525 689 l 524 688 q 498 735 500 716 l 498 735 q 477 779 486 774 l 477 779 q 458 795 469 779 l 458 795 q 420 855 441 830 l 420 855 q 398 896 405 866 l 398 896 q 391 912 391 907 q 392 929 391 918 l 392 929 q 391 935 391 935 l 391 935 q 393 956 393 952 l 393 956 q 392 962 393 958 l 392 962 q 393 964 392 963 l 393 964 q 402 970 401 967 l 402 970 l 402 970 l 401 972 q 349 972 366 972 l 349 972 l 328 972 q 299 968 306 972 l 299 968 q 290 961 294 961 l 290 961 l 283 961 l 283 962 q 290 969 290 968 l 290 969 l 290 970 q 214 974 290 972 l 214 974 l 213 974 q 159 972 199 974 l 159 972 l 159 971 l 166 964 l 166 962 l 163 961 l 157 961 q 140 974 145 974 l 140 974 q 87 972 136 974 l 87 972 l 64 975 z "},"Y":{"ha":1025,"x_min":0,"x_max":1024,"o":"m 7 988 l 0 988 l 0 987 l 6 987 q 46 947 15 964 l 46 947 q 99 897 70 932 l 99 897 q 220 700 162 800 l 220 700 q 248 664 243 675 l 248 664 q 265 635 252 652 l 265 635 q 290 597 290 611 l 290 597 q 301 587 290 587 l 301 587 q 312 573 310 587 l 312 573 l 312 572 q 310 562 312 568 l 310 562 q 334 543 318 553 l 334 543 q 353 507 353 517 l 353 507 q 353 501 353 505 l 353 501 q 378 487 378 492 l 378 487 q 387 474 387 475 l 387 474 q 402 448 401 458 l 402 448 l 401 446 l 402 442 l 402 435 l 403 433 q 402 432 402 433 l 402 432 l 402 425 q 391 376 402 393 l 391 376 q 392 372 391 374 l 392 372 l 401 361 q 400 343 401 355 l 400 343 q 401 341 401 342 l 401 341 q 400 340 400 341 l 400 340 q 401 338 400 339 l 401 338 l 400 336 q 401 326 401 330 l 401 326 l 401 319 q 397 307 401 311 l 397 307 q 392 300 392 304 l 392 300 l 392 298 q 404 283 404 290 l 404 283 l 403 279 q 397 266 397 273 l 397 266 l 397 262 q 387 117 394 180 l 387 117 l 388 116 q 387 113 387 115 l 387 113 l 387 94 q 387 85 387 88 l 387 85 q 381 64 381 66 l 381 64 q 358 30 379 52 l 358 30 l 330 9 l 331 7 q 387 2 382 2 l 387 2 q 393 4 389 2 l 393 4 q 407 3 399 4 l 407 3 q 431 9 425 9 l 431 9 l 433 9 q 451 2 451 7 l 451 2 l 465 4 l 471 4 q 481 1 472 1 l 481 1 l 487 1 l 490 3 q 491 3 490 3 l 491 3 l 500 3 l 505 2 q 506 3 505 3 l 506 3 l 530 1 l 536 4 q 553 12 543 12 l 553 12 l 563 12 q 571 9 568 12 l 571 9 q 581 3 571 3 l 581 3 q 591 4 586 4 l 591 4 l 600 4 l 604 3 l 606 4 q 680 0 630 3 l 680 0 q 681 1 680 1 l 681 1 q 667 24 680 10 l 667 24 q 637 48 643 40 l 637 48 q 620 104 626 56 l 620 104 q 621 106 621 104 l 621 106 q 619 114 620 106 l 619 114 l 620 115 q 618 140 618 120 l 618 140 l 618 199 q 612 219 614 210 l 612 219 q 613 221 612 220 l 613 221 q 612 233 613 222 l 612 233 l 615 242 l 615 250 q 604 264 604 262 l 604 264 q 604 275 604 271 l 604 275 l 604 325 q 607 334 604 327 l 607 334 l 607 397 q 601 410 607 399 l 601 410 q 602 413 602 411 l 602 413 l 602 420 q 609 439 602 430 l 609 439 q 612 456 610 452 l 612 456 q 618 471 618 465 l 618 471 q 618 477 618 471 l 618 477 q 625 493 618 486 l 625 493 q 654 526 640 505 l 654 526 q 706 598 705 587 l 706 598 l 706 599 q 699 616 699 613 l 699 616 l 699 618 q 706 627 701 627 l 706 627 l 716 626 l 718 626 q 745 664 727 626 l 745 664 q 794 720 751 689 l 794 720 q 827 772 804 729 l 827 772 q 882 851 849 815 l 882 851 q 954 917 942 912 l 954 917 q 996 951 962 920 l 996 951 q 1015 966 1015 962 l 1015 966 q 1024 983 1024 981 l 1024 983 l 1023 984 l 1022 984 q 991 973 1000 973 l 991 973 l 912 973 l 911 972 l 913 964 l 913 964 l 912 964 q 883 973 888 973 l 883 973 q 878 972 880 973 l 878 972 q 857 963 866 963 l 857 963 l 851 963 q 822 966 822 963 l 822 966 q 812 973 819 973 l 812 973 l 809 973 q 804 969 808 973 l 804 969 q 762 962 804 962 l 762 962 q 746 964 756 962 l 746 964 q 728 964 740 964 l 728 964 q 719 973 727 964 l 719 973 l 701 973 q 699 964 699 973 l 699 964 l 699 954 q 705 907 699 941 l 705 907 q 686 854 698 884 l 686 854 q 648 787 657 805 l 648 787 q 578 684 614 725 l 578 684 q 557 659 560 660 l 557 659 q 529 631 546 653 l 529 631 q 522 625 526 625 l 522 625 q 512 636 517 625 l 512 636 l 511 636 q 510 640 511 637 l 510 640 q 439 732 448 718 l 439 732 q 387 829 408 791 l 387 829 q 369 864 369 846 l 369 864 q 359 914 359 899 l 359 914 l 359 919 q 363 941 359 928 l 363 941 q 373 958 373 957 l 373 958 l 373 965 l 372 966 q 342 966 366 966 l 342 966 q 326 968 336 966 l 326 968 q 281 979 295 979 l 281 979 q 245 972 275 979 l 245 972 q 225 971 226 969 l 225 971 q 232 976 224 972 l 232 976 q 176 978 211 978 l 176 978 q 165 969 165 978 l 165 969 q 132 966 165 966 l 132 966 q 114 968 120 966 l 114 968 q 127 977 128 976 l 127 977 q 127 977 127 977 l 127 977 q 50 977 101 977 l 50 977 q 36 982 43 977 l 36 982 q 7 988 33 988 l 7 988 z "},"Z":{"ha":961,"x_min":0,"x_max":964,"o":"m 134 987 l 134 987 l 134 985 q 156 962 138 979 l 156 962 q 218 888 174 943 l 218 888 l 267 829 q 285 804 282 804 l 285 804 q 292 806 288 804 l 292 806 q 302 823 298 820 l 302 823 q 338 839 330 838 l 338 839 q 355 838 341 839 l 355 838 q 368 843 361 838 l 368 843 q 471 856 428 856 l 471 856 q 508 850 491 856 l 508 850 l 514 850 q 525 856 517 850 l 525 856 l 526 856 q 541 848 535 856 l 541 848 l 544 848 l 547 850 q 560 875 557 875 l 560 875 l 562 875 l 562 873 q 558 858 562 869 l 558 858 l 558 857 q 572 849 562 849 l 572 849 q 610 850 574 850 l 610 850 q 621 844 618 850 l 621 844 q 657 861 627 844 l 657 861 l 658 861 q 648 848 650 848 l 648 848 q 606 798 618 808 l 606 798 q 597 784 600 794 l 597 784 q 589 765 594 765 l 589 765 q 566 732 582 765 l 566 732 q 522 662 541 696 l 522 662 q 498 615 505 621 l 498 615 l 496 615 q 494 616 495 615 l 494 616 q 477 590 486 616 l 477 590 q 452 531 452 546 l 452 531 q 410 483 439 509 l 410 483 l 410 482 q 418 469 410 479 l 418 469 q 393 433 417 464 l 393 433 q 359 369 374 391 l 359 369 q 342 357 351 360 l 342 357 q 351 344 345 352 l 351 344 q 345 329 351 340 l 345 329 q 294 248 328 294 l 294 248 l 264 210 q 217 171 251 196 l 217 171 l 217 170 q 233 157 231 160 l 233 157 q 230 157 231 157 l 230 157 q 229 157 230 157 l 229 157 l 208 157 l 204 157 q 134 85 168 112 l 134 85 q 104 68 117 69 l 104 68 q 100 56 101 68 l 100 56 l 95 56 q 57 40 74 56 l 57 40 q 0 8 42 28 l 0 8 l 0 7 q 43 0 26 0 l 43 0 q 51 2 48 0 l 51 2 q 134 12 91 5 l 134 12 q 147 11 144 11 l 147 11 q 172 19 159 13 l 172 19 q 214 25 197 22 l 214 25 l 300 28 l 338 33 l 342 33 q 357 25 355 25 l 357 25 l 361 25 q 370 28 363 28 l 370 28 l 373 28 q 424 31 380 28 l 424 31 l 425 31 q 436 30 431 31 l 436 30 q 455 22 452 22 l 455 22 l 497 22 q 545 28 536 28 l 545 28 q 606 21 583 21 l 606 21 q 627 28 613 21 l 627 28 l 632 28 q 644 20 635 28 l 644 20 l 693 20 q 708 19 699 20 l 708 19 q 718 20 708 20 l 718 20 l 726 20 q 731 25 731 24 l 731 25 l 733 24 q 784 11 745 11 l 784 11 l 839 17 q 875 12 842 17 l 875 12 l 876 12 q 880 34 877 12 l 880 34 q 892 76 892 74 l 892 76 q 901 111 892 106 l 901 111 q 914 114 914 112 l 914 114 l 914 117 q 913 146 914 127 l 913 146 q 926 202 926 188 l 926 202 q 925 209 925 207 l 925 209 l 925 211 l 926 220 q 924 222 924 220 l 924 222 l 922 222 q 879 180 882 180 l 879 180 q 848 171 871 174 l 848 171 q 815 163 825 163 l 815 163 l 814 163 l 760 166 l 752 166 q 739 165 748 166 l 739 165 q 711 151 715 151 l 711 151 q 705 163 708 163 l 705 163 l 684 163 q 655 165 680 163 l 655 165 q 631 163 635 163 l 631 163 l 630 163 q 565 169 576 169 l 565 169 l 562 169 q 540 168 551 169 l 540 168 q 526 170 530 170 l 526 170 q 479 165 526 168 l 479 165 l 476 165 q 471 168 473 168 l 471 168 q 487 193 479 181 l 487 193 q 551 273 544 256 l 551 273 q 575 304 559 295 l 575 304 l 573 310 q 562 321 562 315 l 562 321 q 608 386 574 340 l 608 386 q 623 398 614 398 l 623 398 q 646 412 642 398 l 646 412 q 659 457 651 444 l 659 457 q 715 540 687 508 l 715 540 l 715 559 q 723 558 716 559 l 723 558 q 728 560 724 558 l 728 560 q 746 587 739 583 l 746 587 q 745 592 746 589 l 745 592 q 746 595 746 595 l 746 595 q 737 608 746 597 l 737 608 l 737 609 q 754 612 737 610 l 754 612 q 776 639 759 612 l 776 639 q 836 738 814 705 l 836 738 q 872 791 856 779 l 872 791 q 871 793 872 792 l 871 793 q 872 812 872 804 l 872 812 l 872 813 q 911 873 890 845 l 911 873 q 936 907 936 903 l 936 907 l 936 923 q 940 934 936 927 l 940 934 q 964 972 958 957 l 964 972 l 962 974 l 954 974 l 945 970 l 935 970 q 926 977 931 970 l 926 977 l 924 977 q 918 974 918 975 l 918 974 l 892 972 l 891 972 q 863 979 868 979 l 863 979 l 768 974 l 766 974 q 747 975 758 974 l 747 975 q 729 971 745 975 l 729 971 q 718 979 724 971 l 718 979 l 662 979 q 659 970 660 979 l 659 970 l 627 970 q 564 968 611 970 l 564 968 q 549 968 555 968 l 549 968 l 548 968 l 551 971 q 566 977 566 975 l 566 977 q 565 979 566 979 l 565 979 l 538 979 q 511 980 525 979 l 511 980 q 463 976 505 980 l 463 976 q 425 977 444 977 l 425 977 l 416 977 q 391 974 410 977 l 391 974 l 366 974 q 321 968 351 968 l 321 968 l 315 968 q 300 969 304 968 l 300 969 q 228 979 234 979 l 228 979 l 227 979 l 224 978 q 227 972 227 972 l 227 972 l 226 970 l 220 974 l 217 974 q 176 982 197 974 l 176 982 q 165 978 170 982 l 165 978 l 159 978 q 134 987 137 987 z "},"a":{"ha":897,"x_min":0,"x_max":904,"o":"m 467 882 l 459 882 q 448 871 454 882 l 448 871 q 429 820 433 831 l 429 820 q 415 804 415 806 l 415 804 l 420 772 l 416 771 q 397 763 397 768 l 397 763 q 393 737 395 744 l 393 737 q 395 732 393 736 l 395 732 l 395 731 q 393 724 395 728 l 393 724 l 389 724 q 368 679 382 724 l 368 679 q 351 629 359 642 l 351 629 q 309 555 316 568 l 309 555 q 286 496 298 536 l 286 496 l 294 488 q 253 438 264 459 l 253 438 q 216 357 216 368 l 216 357 q 217 355 216 357 l 217 355 q 221 357 219 355 l 221 357 l 222 357 q 220 350 222 353 l 220 350 q 207 341 219 349 l 207 341 q 194 309 197 317 l 194 309 q 166 267 166 271 l 166 267 l 169 262 l 169 262 q 168 254 169 260 l 168 254 l 168 246 q 153 231 168 239 l 153 231 q 151 232 152 232 l 151 232 l 112 143 q 98 126 112 136 l 98 126 q 73 82 85 110 l 73 82 q 62 73 64 77 l 62 73 l 41 29 q 0 -4 37 24 l 0 -4 q 1 -5 0 -5 l 1 -5 l 45 -5 q 62 0 55 0 l 62 0 l 81 0 q 104 15 98 0 l 104 15 q 123 9 120 12 l 123 9 q 123 1 123 6 l 123 1 q 148 -1 123 -1 l 148 -1 l 161 -1 q 170 2 170 -1 l 170 2 q 181 5 170 5 l 181 5 l 188 5 l 189 5 q 188 1 188 3 l 188 1 l 189 0 q 198 -1 195 0 l 198 -1 q 241 0 224 0 l 241 0 l 268 0 q 260 26 263 22 l 260 26 q 252 33 252 32 l 252 33 q 246 43 246 33 l 246 43 l 246 50 q 264 105 254 105 l 264 105 q 279 157 269 105 l 279 157 q 294 181 279 170 l 294 181 q 307 200 302 195 l 307 200 q 317 205 307 205 l 317 205 l 334 205 q 357 199 354 199 l 357 199 q 366 201 364 201 l 366 201 q 417 205 375 205 l 417 205 q 432 205 426 205 l 432 205 l 432 204 q 429 191 429 192 q 431 189 429 189 l 431 189 l 433 189 q 462 196 459 194 l 462 196 q 473 205 469 205 l 473 205 l 477 205 q 514 199 481 205 l 514 199 l 540 205 l 545 205 q 561 194 557 194 l 561 194 q 580 154 564 193 l 580 154 q 608 104 589 132 l 608 104 q 621 52 621 64 l 621 52 l 621 50 q 609 1 621 38 l 609 1 q 610 0 609 0 l 610 0 l 690 0 q 695 5 690 5 l 695 5 l 700 5 q 716 5 711 5 l 716 5 q 726 5 724 5 l 726 5 q 773 5 756 5 l 773 5 q 793 10 781 5 l 793 10 q 801 7 795 9 l 801 7 q 821 -7 812 -7 l 821 -7 l 824 -7 q 846 -5 825 -7 l 846 -5 l 851 -5 l 901 -11 l 902 -11 l 904 -10 l 901 -7 l 874 19 q 852 51 856 51 l 852 51 q 817 104 843 60 l 817 104 q 798 142 806 130 l 798 142 q 772 192 772 176 l 772 192 l 772 196 q 776 201 772 201 l 776 201 q 781 199 778 201 l 781 199 q 752 256 774 216 l 752 256 q 715 304 715 299 l 715 304 l 713 304 q 710 300 712 304 l 710 300 l 709 300 q 706 327 707 300 l 706 327 q 674 406 706 349 l 674 406 q 654 446 655 437 l 654 446 q 647 471 647 457 l 647 471 q 638 521 642 513 l 638 521 q 623 532 638 527 l 623 532 q 614 537 619 537 l 614 537 q 601 567 608 537 l 601 567 q 588 599 591 588 l 588 599 q 585 597 585 598 l 585 597 q 577 593 577 596 l 577 593 l 576 593 q 564 632 572 593 l 564 632 q 566 635 566 635 l 566 635 l 572 635 q 578 640 577 635 l 578 640 q 567 661 576 647 l 567 661 q 545 719 551 701 l 545 719 q 529 779 534 769 l 529 779 q 509 804 509 800 l 509 804 q 491 841 494 823 l 491 841 q 467 882 472 877 l 467 882 z m 429 519 l 429 519 l 430 519 q 455 471 445 498 l 455 471 q 473 408 470 417 l 473 408 q 484 393 484 399 l 484 393 q 503 309 490 355 l 503 309 l 503 309 q 484 300 486 305 l 484 300 l 479 300 q 463 310 473 300 l 463 310 l 420 306 l 418 306 q 383 311 408 311 l 383 311 l 368 311 q 347 310 355 311 l 347 310 q 349 314 348 314 l 349 314 q 370 380 349 326 l 370 380 q 382 422 378 414 l 382 422 q 390 427 388 422 l 390 427 q 407 475 402 466 l 407 475 q 429 519 413 478 z "},"b":{"ha":720,"x_min":0,"x_max":715,"o":"m 173 885 l 168 885 q 154 872 162 885 l 154 872 l 144 872 q 109 880 115 872 l 109 880 q 94 865 101 865 l 94 865 l 90 865 q 83 873 85 865 l 83 873 q 71 873 77 873 l 71 873 q 16 878 19 878 l 16 878 l 16 877 q 24 866 16 873 l 24 866 q 44 848 38 852 l 44 848 q 66 798 66 814 l 66 798 q 66 782 66 790 l 66 782 l 66 766 q 65 717 66 756 l 65 717 q 66 712 65 715 l 66 712 q 74 707 74 709 l 74 707 q 75 650 74 696 l 75 650 q 73 635 75 646 l 73 635 q 74 623 74 629 l 74 623 q 71 615 74 618 l 71 615 q 66 612 66 613 l 66 612 l 66 611 q 74 593 70 597 l 74 593 q 73 570 73 577 l 73 570 l 73 543 q 71 429 73 481 l 71 429 l 73 427 q 89 425 87 426 l 89 425 q 80 409 89 421 l 80 409 l 71 401 l 71 393 l 71 389 q 71 389 71 389 l 71 389 q 71 383 71 385 l 71 383 l 71 381 l 71 380 l 71 380 q 64 180 67 214 l 64 180 l 64 168 q 58 163 64 163 l 58 163 q 53 123 53 163 l 53 123 l 53 122 q 61 121 60 122 l 61 121 q 60 117 60 117 l 60 117 q 51 96 51 103 l 51 96 l 51 92 l 52 89 q 45 72 52 81 l 45 72 q 28 49 38 59 l 28 49 q 0 9 7 35 l 0 9 l 1 9 l 42 9 q 68 14 68 9 l 68 14 q 85 21 68 21 l 85 21 l 90 21 q 121 11 117 11 l 121 11 q 132 22 130 22 l 132 22 q 142 20 140 21 l 142 20 q 153 11 150 11 l 153 11 l 195 11 q 260 8 221 11 l 260 8 l 261 8 q 315 9 304 8 l 315 9 l 340 9 q 351 9 347 9 l 351 9 q 374 0 370 0 l 374 0 l 378 0 l 380 1 q 393 8 380 8 l 393 8 q 420 7 412 7 l 420 7 q 473 14 454 14 l 473 14 q 493 13 479 14 l 493 13 q 503 14 499 13 l 503 14 q 524 21 517 21 l 524 21 q 551 20 534 21 l 551 20 l 551 20 q 569 31 564 26 l 569 31 q 578 43 576 31 l 578 43 q 570 54 578 46 l 570 54 q 581 56 576 56 l 581 56 q 583 56 583 56 l 583 56 q 592 45 590 45 l 592 45 l 595 45 q 612 53 606 53 l 612 53 q 642 87 631 77 l 642 87 q 675 126 671 122 l 675 126 q 684 146 684 130 l 684 146 l 683 167 q 700 207 683 182 l 700 207 q 715 263 715 226 l 715 263 q 665 426 715 336 l 665 426 q 609 498 648 458 l 609 498 q 629 524 614 504 l 629 524 l 629 525 l 624 549 q 643 564 627 557 l 643 564 q 642 566 643 564 l 642 566 l 646 612 q 645 613 645 612 l 645 613 q 646 615 646 614 l 646 615 q 645 641 646 634 l 645 641 q 638 688 645 682 l 638 688 q 623 713 623 709 l 623 713 q 624 722 623 715 l 624 722 q 608 751 624 734 l 608 751 q 577 795 582 789 l 577 795 q 557 815 560 815 l 557 815 q 536 840 543 838 l 536 840 q 505 846 526 840 l 505 846 q 478 863 490 846 l 478 863 l 477 863 q 451 865 473 863 l 451 865 l 446 863 q 418 866 418 864 l 418 866 q 398 871 403 869 l 398 871 q 379 880 382 871 l 379 880 q 348 882 374 880 l 348 882 l 342 881 q 319 876 323 876 l 319 876 l 318 876 q 240 884 246 884 l 240 884 l 233 884 l 199 881 l 190 882 q 182 881 189 882 l 182 881 q 180 882 182 882 l 180 882 q 173 885 178 885 l 173 885 z m 337 759 l 337 759 l 341 759 q 345 765 344 765 l 345 765 q 378 762 359 765 l 378 762 q 399 756 396 756 l 399 756 q 408 747 407 747 l 408 747 q 433 740 423 744 l 433 740 q 457 722 451 732 l 457 722 q 470 707 463 718 l 470 707 l 477 695 q 485 682 484 682 l 485 682 l 497 648 q 503 632 503 639 l 503 632 q 507 582 505 632 l 507 582 q 504 558 507 563 l 504 558 q 495 541 501 547 l 495 541 l 495 538 q 494 530 495 533 l 494 530 l 489 530 q 487 528 487 530 l 487 528 q 468 510 481 510 l 468 510 q 460 496 463 496 l 460 496 l 452 498 q 447 492 450 498 l 447 492 q 427 486 446 489 l 427 486 l 424 486 q 413 488 414 488 l 413 488 q 399 484 406 484 l 399 484 q 376 497 387 484 l 376 497 q 368 510 370 509 l 368 510 q 370 517 368 517 l 370 517 q 387 542 376 534 l 387 542 l 387 551 l 386 552 q 369 549 380 552 l 369 549 q 359 550 366 549 l 359 550 q 334 542 354 546 l 334 542 q 319 519 329 542 l 319 519 q 311 495 319 503 l 311 495 l 311 494 q 315 473 311 492 l 315 473 l 312 461 l 312 460 q 317 452 315 457 l 317 452 q 331 437 331 441 l 331 437 q 347 427 340 428 l 347 427 q 360 416 349 427 l 360 416 q 374 406 368 406 l 374 406 q 411 401 404 405 l 411 401 q 429 408 427 408 l 429 408 q 442 408 432 408 l 442 408 q 460 417 452 417 l 460 417 q 474 421 469 421 l 474 421 l 478 421 q 498 416 492 418 l 498 416 q 509 417 505 417 l 509 417 l 510 417 q 515 416 513 417 l 515 416 q 533 391 533 409 l 533 391 q 532 387 533 390 l 532 387 q 533 386 532 386 l 533 386 q 543 355 540 378 l 543 355 l 543 353 q 543 342 543 351 l 543 342 l 543 338 l 543 330 q 543 322 543 324 l 543 322 q 545 309 545 315 l 545 309 l 545 304 q 545 296 545 302 l 545 296 q 549 284 547 296 l 549 284 l 549 279 q 532 258 549 268 l 532 258 l 532 255 q 528 241 532 246 l 528 241 q 519 224 523 227 l 519 224 q 521 216 521 217 l 521 216 q 518 204 521 209 l 518 204 q 502 178 518 189 l 502 178 q 476 150 493 164 l 476 150 q 449 136 455 140 l 449 136 q 429 128 439 128 l 429 128 q 406 123 415 123 l 406 123 l 404 123 q 401 123 403 123 l 401 123 l 400 123 q 363 124 376 124 l 363 124 l 345 124 q 321 127 333 124 l 321 127 q 263 135 309 135 l 263 135 q 261 134 262 135 l 261 134 q 260 135 261 135 l 260 135 l 257 135 q 256 173 256 153 l 256 173 l 256 223 q 252 241 252 236 l 252 241 l 252 253 l 256 253 q 261 284 261 253 l 261 284 q 260 296 260 290 l 260 296 l 260 321 q 262 328 260 323 l 262 328 q 261 329 262 328 l 261 329 q 245 336 248 334 l 245 336 q 247 342 245 337 l 247 342 l 247 359 q 253 372 253 362 l 253 372 q 252 434 252 411 l 252 434 l 252 479 l 252 481 l 247 477 l 246 477 q 243 486 243 477 l 243 486 q 244 509 243 490 l 244 509 q 246 510 245 510 l 246 510 q 253 518 253 512 l 253 518 q 261 534 261 528 l 261 534 q 260 562 260 551 l 260 562 l 260 572 q 260 580 260 578 l 260 580 q 252 621 252 615 l 252 621 q 254 657 252 634 l 254 657 q 260 700 260 696 l 260 700 q 262 726 262 700 l 262 726 l 262 743 q 302 760 302 749 l 302 760 l 311 760 q 337 759 315 760 z "}}}
